<?xml version="1.0" encoding="utf-8" standalone="no"?>
<!DOCTYPE svg PUBLIC "-//W3C//DTD SVG 1.1//EN"
  "http://www.w3.org/Graphics/SVG/1.1/DTD/svg11.dtd">
<svg xmlns:xlink="http://www.w3.org/1999/xlink" width="705.659129pt" height="164.0085pt" viewBox="0 0 705.659129 164.0085" xmlns="http://www.w3.org/2000/svg" version="1.1">
 <metadata>
  <rdf:RDF xmlns:dc="http://purl.org/dc/elements/1.1/" xmlns:cc="http://creativecommons.org/ns#" xmlns:rdf="http://www.w3.org/1999/02/22-rdf-syntax-ns#">
   <cc:Work>
    <dc:type rdf:resource="http://purl.org/dc/dcmitype/StillImage"/>
    <dc:date>2023-05-18T15:12:58.238774</dc:date>
    <dc:format>image/svg+xml</dc:format>
    <dc:creator>
     <cc:Agent>
      <dc:title>Matplotlib v3.7.0, https://matplotlib.org/</dc:title>
     </cc:Agent>
    </dc:creator>
   </cc:Work>
  </rdf:RDF>
 </metadata>
 <defs>
  <style type="text/css">*{stroke-linejoin: round; stroke-linecap: butt}</style>
 </defs>
 <g id="figure_1">
  <g id="patch_1">
   <path d="M 0 164.0085 
L 705.659129 164.0085 
L 705.659129 0 
L 0 0 
z
" style="fill: #ffffff"/>
  </g>
  <g id="axes_1">
   <g id="patch_2">
    <path d="M 43.365625 130.05225 
L 155.992337 130.05225 
L 155.992337 28.39625 
L 43.365625 28.39625 
z
" style="fill: #ffffff"/>
   </g>
   <g id="matplotlib.axis_1">
    <g id="xtick_1">
     <g id="line2d_1">
      <path d="M 48.485021 130.05225 
L 48.485021 28.39625 
" clip-path="url(#p9690f2aeb9)" style="fill: none; stroke: #b0b0b0; stroke-opacity: 0.5; stroke-width: 0.8; stroke-linecap: square"/>
     </g>
     <g id="line2d_2">
      <defs>
       <path id="m4c4ad96966" d="M 0 0 
L 0 3.5 
" style="stroke: #000000; stroke-width: 0.8"/>
      </defs>
      <g>
       <use xlink:href="#m4c4ad96966" x="48.485021" y="130.05225" style="stroke: #000000; stroke-width: 0.8"/>
      </g>
     </g>
     <g id="text_1">
      <!-- 0 -->
      <g transform="translate(45.303771 144.650688) scale(0.1 -0.1)">
       <defs>
        <path id="DejaVuSans-30" d="M 2034 4250 
Q 1547 4250 1301 3770 
Q 1056 3291 1056 2328 
Q 1056 1369 1301 889 
Q 1547 409 2034 409 
Q 2525 409 2770 889 
Q 3016 1369 3016 2328 
Q 3016 3291 2770 3770 
Q 2525 4250 2034 4250 
z
M 2034 4750 
Q 2819 4750 3233 4129 
Q 3647 3509 3647 2328 
Q 3647 1150 3233 529 
Q 2819 -91 2034 -91 
Q 1250 -91 836 529 
Q 422 1150 422 2328 
Q 422 3509 836 4129 
Q 1250 4750 2034 4750 
z
" transform="scale(0.015625)"/>
       </defs>
       <use xlink:href="#DejaVuSans-30"/>
      </g>
     </g>
    </g>
    <g id="xtick_2">
     <g id="line2d_3">
      <path d="M 100.196092 130.05225 
L 100.196092 28.39625 
" clip-path="url(#p9690f2aeb9)" style="fill: none; stroke: #b0b0b0; stroke-opacity: 0.5; stroke-width: 0.8; stroke-linecap: square"/>
     </g>
     <g id="line2d_4">
      <g>
       <use xlink:href="#m4c4ad96966" x="100.196092" y="130.05225" style="stroke: #000000; stroke-width: 0.8"/>
      </g>
     </g>
     <g id="text_2">
      <!-- 50 -->
      <g transform="translate(93.833592 144.650688) scale(0.1 -0.1)">
       <defs>
        <path id="DejaVuSans-35" d="M 691 4666 
L 3169 4666 
L 3169 4134 
L 1269 4134 
L 1269 2991 
Q 1406 3038 1543 3061 
Q 1681 3084 1819 3084 
Q 2600 3084 3056 2656 
Q 3513 2228 3513 1497 
Q 3513 744 3044 326 
Q 2575 -91 1722 -91 
Q 1428 -91 1123 -41 
Q 819 9 494 109 
L 494 744 
Q 775 591 1075 516 
Q 1375 441 1709 441 
Q 2250 441 2565 725 
Q 2881 1009 2881 1497 
Q 2881 1984 2565 2268 
Q 2250 2553 1709 2553 
Q 1456 2553 1204 2497 
Q 953 2441 691 2322 
L 691 4666 
z
" transform="scale(0.015625)"/>
       </defs>
       <use xlink:href="#DejaVuSans-35"/>
       <use xlink:href="#DejaVuSans-30" x="63.623047"/>
      </g>
     </g>
    </g>
    <g id="xtick_3">
     <g id="line2d_5">
      <path d="M 151.907162 130.05225 
L 151.907162 28.39625 
" clip-path="url(#p9690f2aeb9)" style="fill: none; stroke: #b0b0b0; stroke-opacity: 0.5; stroke-width: 0.8; stroke-linecap: square"/>
     </g>
     <g id="line2d_6">
      <g>
       <use xlink:href="#m4c4ad96966" x="151.907162" y="130.05225" style="stroke: #000000; stroke-width: 0.8"/>
      </g>
     </g>
     <g id="text_3">
      <!-- 100 -->
      <g transform="translate(142.363412 144.650688) scale(0.1 -0.1)">
       <defs>
        <path id="DejaVuSans-31" d="M 794 531 
L 1825 531 
L 1825 4091 
L 703 3866 
L 703 4441 
L 1819 4666 
L 2450 4666 
L 2450 531 
L 3481 531 
L 3481 0 
L 794 0 
L 794 531 
z
" transform="scale(0.015625)"/>
       </defs>
       <use xlink:href="#DejaVuSans-31"/>
       <use xlink:href="#DejaVuSans-30" x="63.623047"/>
       <use xlink:href="#DejaVuSans-30" x="127.246094"/>
      </g>
     </g>
    </g>
    <g id="text_4">
     <!-- bin number -->
     <g transform="translate(70.843825 158.328813) scale(0.1 -0.1)">
      <defs>
       <path id="DejaVuSans-62" d="M 3116 1747 
Q 3116 2381 2855 2742 
Q 2594 3103 2138 3103 
Q 1681 3103 1420 2742 
Q 1159 2381 1159 1747 
Q 1159 1113 1420 752 
Q 1681 391 2138 391 
Q 2594 391 2855 752 
Q 3116 1113 3116 1747 
z
M 1159 2969 
Q 1341 3281 1617 3432 
Q 1894 3584 2278 3584 
Q 2916 3584 3314 3078 
Q 3713 2572 3713 1747 
Q 3713 922 3314 415 
Q 2916 -91 2278 -91 
Q 1894 -91 1617 61 
Q 1341 213 1159 525 
L 1159 0 
L 581 0 
L 581 4863 
L 1159 4863 
L 1159 2969 
z
" transform="scale(0.015625)"/>
       <path id="DejaVuSans-69" d="M 603 3500 
L 1178 3500 
L 1178 0 
L 603 0 
L 603 3500 
z
M 603 4863 
L 1178 4863 
L 1178 4134 
L 603 4134 
L 603 4863 
z
" transform="scale(0.015625)"/>
       <path id="DejaVuSans-6e" d="M 3513 2113 
L 3513 0 
L 2938 0 
L 2938 2094 
Q 2938 2591 2744 2837 
Q 2550 3084 2163 3084 
Q 1697 3084 1428 2787 
Q 1159 2491 1159 1978 
L 1159 0 
L 581 0 
L 581 3500 
L 1159 3500 
L 1159 2956 
Q 1366 3272 1645 3428 
Q 1925 3584 2291 3584 
Q 2894 3584 3203 3211 
Q 3513 2838 3513 2113 
z
" transform="scale(0.015625)"/>
       <path id="DejaVuSans-20" transform="scale(0.015625)"/>
       <path id="DejaVuSans-75" d="M 544 1381 
L 544 3500 
L 1119 3500 
L 1119 1403 
Q 1119 906 1312 657 
Q 1506 409 1894 409 
Q 2359 409 2629 706 
Q 2900 1003 2900 1516 
L 2900 3500 
L 3475 3500 
L 3475 0 
L 2900 0 
L 2900 538 
Q 2691 219 2414 64 
Q 2138 -91 1772 -91 
Q 1169 -91 856 284 
Q 544 659 544 1381 
z
M 1991 3584 
L 1991 3584 
z
" transform="scale(0.015625)"/>
       <path id="DejaVuSans-6d" d="M 3328 2828 
Q 3544 3216 3844 3400 
Q 4144 3584 4550 3584 
Q 5097 3584 5394 3201 
Q 5691 2819 5691 2113 
L 5691 0 
L 5113 0 
L 5113 2094 
Q 5113 2597 4934 2840 
Q 4756 3084 4391 3084 
Q 3944 3084 3684 2787 
Q 3425 2491 3425 1978 
L 3425 0 
L 2847 0 
L 2847 2094 
Q 2847 2600 2669 2842 
Q 2491 3084 2119 3084 
Q 1678 3084 1418 2786 
Q 1159 2488 1159 1978 
L 1159 0 
L 581 0 
L 581 3500 
L 1159 3500 
L 1159 2956 
Q 1356 3278 1631 3431 
Q 1906 3584 2284 3584 
Q 2666 3584 2933 3390 
Q 3200 3197 3328 2828 
z
" transform="scale(0.015625)"/>
       <path id="DejaVuSans-65" d="M 3597 1894 
L 3597 1613 
L 953 1613 
Q 991 1019 1311 708 
Q 1631 397 2203 397 
Q 2534 397 2845 478 
Q 3156 559 3463 722 
L 3463 178 
Q 3153 47 2828 -22 
Q 2503 -91 2169 -91 
Q 1331 -91 842 396 
Q 353 884 353 1716 
Q 353 2575 817 3079 
Q 1281 3584 2069 3584 
Q 2775 3584 3186 3129 
Q 3597 2675 3597 1894 
z
M 3022 2063 
Q 3016 2534 2758 2815 
Q 2500 3097 2075 3097 
Q 1594 3097 1305 2825 
Q 1016 2553 972 2059 
L 3022 2063 
z
" transform="scale(0.015625)"/>
       <path id="DejaVuSans-72" d="M 2631 2963 
Q 2534 3019 2420 3045 
Q 2306 3072 2169 3072 
Q 1681 3072 1420 2755 
Q 1159 2438 1159 1844 
L 1159 0 
L 581 0 
L 581 3500 
L 1159 3500 
L 1159 2956 
Q 1341 3275 1631 3429 
Q 1922 3584 2338 3584 
Q 2397 3584 2469 3576 
Q 2541 3569 2628 3553 
L 2631 2963 
z
" transform="scale(0.015625)"/>
      </defs>
      <use xlink:href="#DejaVuSans-62"/>
      <use xlink:href="#DejaVuSans-69" x="63.476562"/>
      <use xlink:href="#DejaVuSans-6e" x="91.259766"/>
      <use xlink:href="#DejaVuSans-20" x="154.638672"/>
      <use xlink:href="#DejaVuSans-6e" x="186.425781"/>
      <use xlink:href="#DejaVuSans-75" x="249.804688"/>
      <use xlink:href="#DejaVuSans-6d" x="313.183594"/>
      <use xlink:href="#DejaVuSans-62" x="410.595703"/>
      <use xlink:href="#DejaVuSans-65" x="474.072266"/>
      <use xlink:href="#DejaVuSans-72" x="535.595703"/>
     </g>
    </g>
   </g>
   <g id="matplotlib.axis_2">
    <g id="ytick_1">
     <g id="line2d_7">
      <path d="M 43.365625 130.05225 
L 155.992337 130.05225 
" clip-path="url(#p9690f2aeb9)" style="fill: none; stroke: #b0b0b0; stroke-opacity: 0.5; stroke-width: 0.8; stroke-linecap: square"/>
     </g>
     <g id="line2d_8">
      <defs>
       <path id="m445a9c0c3d" d="M 0 0 
L -3.5 0 
" style="stroke: #000000; stroke-width: 0.8"/>
      </defs>
      <g>
       <use xlink:href="#m445a9c0c3d" x="43.365625" y="130.05225" style="stroke: #000000; stroke-width: 0.8"/>
      </g>
     </g>
     <g id="text_5">
      <!-- 0 -->
      <g transform="translate(30.003125 133.851469) scale(0.1 -0.1)">
       <use xlink:href="#DejaVuSans-30"/>
      </g>
     </g>
    </g>
    <g id="ytick_2">
     <g id="line2d_9">
      <path d="M 43.365625 108.873917 
L 155.992337 108.873917 
" clip-path="url(#p9690f2aeb9)" style="fill: none; stroke: #b0b0b0; stroke-opacity: 0.5; stroke-width: 0.8; stroke-linecap: square"/>
     </g>
     <g id="line2d_10">
      <g>
       <use xlink:href="#m445a9c0c3d" x="43.365625" y="108.873917" style="stroke: #000000; stroke-width: 0.8"/>
      </g>
     </g>
     <g id="text_6">
      <!-- 25 -->
      <g transform="translate(23.640625 112.673135) scale(0.1 -0.1)">
       <defs>
        <path id="DejaVuSans-32" d="M 1228 531 
L 3431 531 
L 3431 0 
L 469 0 
L 469 531 
Q 828 903 1448 1529 
Q 2069 2156 2228 2338 
Q 2531 2678 2651 2914 
Q 2772 3150 2772 3378 
Q 2772 3750 2511 3984 
Q 2250 4219 1831 4219 
Q 1534 4219 1204 4116 
Q 875 4013 500 3803 
L 500 4441 
Q 881 4594 1212 4672 
Q 1544 4750 1819 4750 
Q 2544 4750 2975 4387 
Q 3406 4025 3406 3419 
Q 3406 3131 3298 2873 
Q 3191 2616 2906 2266 
Q 2828 2175 2409 1742 
Q 1991 1309 1228 531 
z
" transform="scale(0.015625)"/>
       </defs>
       <use xlink:href="#DejaVuSans-32"/>
       <use xlink:href="#DejaVuSans-35" x="63.623047"/>
      </g>
     </g>
    </g>
    <g id="ytick_3">
     <g id="line2d_11">
      <path d="M 43.365625 87.695583 
L 155.992337 87.695583 
" clip-path="url(#p9690f2aeb9)" style="fill: none; stroke: #b0b0b0; stroke-opacity: 0.5; stroke-width: 0.8; stroke-linecap: square"/>
     </g>
     <g id="line2d_12">
      <g>
       <use xlink:href="#m445a9c0c3d" x="43.365625" y="87.695583" style="stroke: #000000; stroke-width: 0.8"/>
      </g>
     </g>
     <g id="text_7">
      <!-- 50 -->
      <g transform="translate(23.640625 91.494802) scale(0.1 -0.1)">
       <use xlink:href="#DejaVuSans-35"/>
       <use xlink:href="#DejaVuSans-30" x="63.623047"/>
      </g>
     </g>
    </g>
    <g id="ytick_4">
     <g id="line2d_13">
      <path d="M 43.365625 66.51725 
L 155.992337 66.51725 
" clip-path="url(#p9690f2aeb9)" style="fill: none; stroke: #b0b0b0; stroke-opacity: 0.5; stroke-width: 0.8; stroke-linecap: square"/>
     </g>
     <g id="line2d_14">
      <g>
       <use xlink:href="#m445a9c0c3d" x="43.365625" y="66.51725" style="stroke: #000000; stroke-width: 0.8"/>
      </g>
     </g>
     <g id="text_8">
      <!-- 75 -->
      <g transform="translate(23.640625 70.316469) scale(0.1 -0.1)">
       <defs>
        <path id="DejaVuSans-37" d="M 525 4666 
L 3525 4666 
L 3525 4397 
L 1831 0 
L 1172 0 
L 2766 4134 
L 525 4134 
L 525 4666 
z
" transform="scale(0.015625)"/>
       </defs>
       <use xlink:href="#DejaVuSans-37"/>
       <use xlink:href="#DejaVuSans-35" x="63.623047"/>
      </g>
     </g>
    </g>
    <g id="ytick_5">
     <g id="line2d_15">
      <path d="M 43.365625 45.338917 
L 155.992337 45.338917 
" clip-path="url(#p9690f2aeb9)" style="fill: none; stroke: #b0b0b0; stroke-opacity: 0.5; stroke-width: 0.8; stroke-linecap: square"/>
     </g>
     <g id="line2d_16">
      <g>
       <use xlink:href="#m445a9c0c3d" x="43.365625" y="45.338917" style="stroke: #000000; stroke-width: 0.8"/>
      </g>
     </g>
     <g id="text_9">
      <!-- 100 -->
      <g transform="translate(17.278125 49.138135) scale(0.1 -0.1)">
       <use xlink:href="#DejaVuSans-31"/>
       <use xlink:href="#DejaVuSans-30" x="63.623047"/>
       <use xlink:href="#DejaVuSans-30" x="127.246094"/>
      </g>
     </g>
    </g>
    <g id="text_10">
     <!-- sum of each bin [-] -->
     <g transform="translate(11.198438 126.539875) rotate(-90) scale(0.1 -0.1)">
      <defs>
       <path id="DejaVuSans-73" d="M 2834 3397 
L 2834 2853 
Q 2591 2978 2328 3040 
Q 2066 3103 1784 3103 
Q 1356 3103 1142 2972 
Q 928 2841 928 2578 
Q 928 2378 1081 2264 
Q 1234 2150 1697 2047 
L 1894 2003 
Q 2506 1872 2764 1633 
Q 3022 1394 3022 966 
Q 3022 478 2636 193 
Q 2250 -91 1575 -91 
Q 1294 -91 989 -36 
Q 684 19 347 128 
L 347 722 
Q 666 556 975 473 
Q 1284 391 1588 391 
Q 1994 391 2212 530 
Q 2431 669 2431 922 
Q 2431 1156 2273 1281 
Q 2116 1406 1581 1522 
L 1381 1569 
Q 847 1681 609 1914 
Q 372 2147 372 2553 
Q 372 3047 722 3315 
Q 1072 3584 1716 3584 
Q 2034 3584 2315 3537 
Q 2597 3491 2834 3397 
z
" transform="scale(0.015625)"/>
       <path id="DejaVuSans-6f" d="M 1959 3097 
Q 1497 3097 1228 2736 
Q 959 2375 959 1747 
Q 959 1119 1226 758 
Q 1494 397 1959 397 
Q 2419 397 2687 759 
Q 2956 1122 2956 1747 
Q 2956 2369 2687 2733 
Q 2419 3097 1959 3097 
z
M 1959 3584 
Q 2709 3584 3137 3096 
Q 3566 2609 3566 1747 
Q 3566 888 3137 398 
Q 2709 -91 1959 -91 
Q 1206 -91 779 398 
Q 353 888 353 1747 
Q 353 2609 779 3096 
Q 1206 3584 1959 3584 
z
" transform="scale(0.015625)"/>
       <path id="DejaVuSans-66" d="M 2375 4863 
L 2375 4384 
L 1825 4384 
Q 1516 4384 1395 4259 
Q 1275 4134 1275 3809 
L 1275 3500 
L 2222 3500 
L 2222 3053 
L 1275 3053 
L 1275 0 
L 697 0 
L 697 3053 
L 147 3053 
L 147 3500 
L 697 3500 
L 697 3744 
Q 697 4328 969 4595 
Q 1241 4863 1831 4863 
L 2375 4863 
z
" transform="scale(0.015625)"/>
       <path id="DejaVuSans-61" d="M 2194 1759 
Q 1497 1759 1228 1600 
Q 959 1441 959 1056 
Q 959 750 1161 570 
Q 1363 391 1709 391 
Q 2188 391 2477 730 
Q 2766 1069 2766 1631 
L 2766 1759 
L 2194 1759 
z
M 3341 1997 
L 3341 0 
L 2766 0 
L 2766 531 
Q 2569 213 2275 61 
Q 1981 -91 1556 -91 
Q 1019 -91 701 211 
Q 384 513 384 1019 
Q 384 1609 779 1909 
Q 1175 2209 1959 2209 
L 2766 2209 
L 2766 2266 
Q 2766 2663 2505 2880 
Q 2244 3097 1772 3097 
Q 1472 3097 1187 3025 
Q 903 2953 641 2809 
L 641 3341 
Q 956 3463 1253 3523 
Q 1550 3584 1831 3584 
Q 2591 3584 2966 3190 
Q 3341 2797 3341 1997 
z
" transform="scale(0.015625)"/>
       <path id="DejaVuSans-63" d="M 3122 3366 
L 3122 2828 
Q 2878 2963 2633 3030 
Q 2388 3097 2138 3097 
Q 1578 3097 1268 2742 
Q 959 2388 959 1747 
Q 959 1106 1268 751 
Q 1578 397 2138 397 
Q 2388 397 2633 464 
Q 2878 531 3122 666 
L 3122 134 
Q 2881 22 2623 -34 
Q 2366 -91 2075 -91 
Q 1284 -91 818 406 
Q 353 903 353 1747 
Q 353 2603 823 3093 
Q 1294 3584 2113 3584 
Q 2378 3584 2631 3529 
Q 2884 3475 3122 3366 
z
" transform="scale(0.015625)"/>
       <path id="DejaVuSans-68" d="M 3513 2113 
L 3513 0 
L 2938 0 
L 2938 2094 
Q 2938 2591 2744 2837 
Q 2550 3084 2163 3084 
Q 1697 3084 1428 2787 
Q 1159 2491 1159 1978 
L 1159 0 
L 581 0 
L 581 4863 
L 1159 4863 
L 1159 2956 
Q 1366 3272 1645 3428 
Q 1925 3584 2291 3584 
Q 2894 3584 3203 3211 
Q 3513 2838 3513 2113 
z
" transform="scale(0.015625)"/>
       <path id="DejaVuSans-5b" d="M 550 4863 
L 1875 4863 
L 1875 4416 
L 1125 4416 
L 1125 -397 
L 1875 -397 
L 1875 -844 
L 550 -844 
L 550 4863 
z
" transform="scale(0.015625)"/>
       <path id="DejaVuSans-2d" d="M 313 2009 
L 1997 2009 
L 1997 1497 
L 313 1497 
L 313 2009 
z
" transform="scale(0.015625)"/>
       <path id="DejaVuSans-5d" d="M 1947 4863 
L 1947 -844 
L 622 -844 
L 622 -397 
L 1369 -397 
L 1369 4416 
L 622 4416 
L 622 4863 
L 1947 4863 
z
" transform="scale(0.015625)"/>
      </defs>
      <use xlink:href="#DejaVuSans-73"/>
      <use xlink:href="#DejaVuSans-75" x="52.099609"/>
      <use xlink:href="#DejaVuSans-6d" x="115.478516"/>
      <use xlink:href="#DejaVuSans-20" x="212.890625"/>
      <use xlink:href="#DejaVuSans-6f" x="244.677734"/>
      <use xlink:href="#DejaVuSans-66" x="305.859375"/>
      <use xlink:href="#DejaVuSans-20" x="341.064453"/>
      <use xlink:href="#DejaVuSans-65" x="372.851562"/>
      <use xlink:href="#DejaVuSans-61" x="434.375"/>
      <use xlink:href="#DejaVuSans-63" x="495.654297"/>
      <use xlink:href="#DejaVuSans-68" x="550.634766"/>
      <use xlink:href="#DejaVuSans-20" x="614.013672"/>
      <use xlink:href="#DejaVuSans-62" x="645.800781"/>
      <use xlink:href="#DejaVuSans-69" x="709.277344"/>
      <use xlink:href="#DejaVuSans-6e" x="737.060547"/>
      <use xlink:href="#DejaVuSans-20" x="800.439453"/>
      <use xlink:href="#DejaVuSans-5b" x="832.226562"/>
      <use xlink:href="#DejaVuSans-2d" x="871.240234"/>
      <use xlink:href="#DejaVuSans-5d" x="907.324219"/>
     </g>
    </g>
   </g>
   <g id="line2d_17">
    <path d="M 48.485021 130.05225 
L 49.519242 130.05225 
L 50.553464 130.05225 
L 51.587685 130.05225 
L 52.621907 130.05225 
L 53.656128 130.05225 
L 54.690349 130.05225 
L 55.724571 130.05225 
L 56.758792 130.05225 
L 57.793014 130.05225 
L 58.827235 130.05225 
L 59.861457 130.05225 
L 60.895678 130.05225 
L 61.929899 130.05225 
L 62.964121 130.05225 
L 63.998342 130.05225 
L 65.032564 130.05225 
L 66.066785 130.05225 
L 67.101006 130.05225 
L 68.135228 130.05225 
L 69.169449 130.05225 
L 70.203671 130.05225 
L 71.237892 130.05225 
L 72.272113 130.05225 
L 73.306335 130.05225 
L 74.340556 130.05225 
L 75.374778 130.05225 
L 76.408999 130.05225 
L 77.443221 130.05225 
L 78.477442 130.05225 
L 79.511663 130.05225 
L 80.545885 130.05225 
L 81.580106 130.05225 
L 82.614328 130.05225 
L 83.648549 130.05225 
L 84.68277 130.05225 
L 85.716992 130.05225 
L 86.751213 130.05225 
L 87.785435 130.05225 
L 88.819656 130.05225 
L 89.853877 130.05225 
L 90.888099 130.05225 
L 91.92232 130.05225 
L 92.956542 130.05225 
L 93.990763 130.05225 
L 95.024985 130.05225 
L 96.059206 130.05225 
L 97.093427 130.05225 
L 98.127649 130.05225 
L 99.16187 130.05225 
L 100.196092 130.05225 
L 101.230313 130.05225 
L 102.264534 130.05225 
L 103.298756 130.05225 
L 104.332977 130.05225 
L 105.367199 130.05225 
L 106.40142 130.05225 
L 107.435641 130.05225 
L 108.469863 130.05225 
L 109.504084 130.05225 
L 110.538306 130.05225 
L 111.572527 130.05225 
L 112.606749 130.05225 
L 113.64097 130.05225 
L 114.675191 130.05225 
L 115.709413 130.05225 
L 116.743634 126.233481 
L 117.777856 122.414711 
L 118.812077 122.414711 
L 119.846298 118.595942 
L 120.88052 114.777172 
L 121.914741 113.839229 
L 122.948963 105.263747 
L 123.983184 101.444978 
L 125.017405 95.750321 
L 126.051627 76.656474 
L 127.085848 69.018936 
L 128.12007 66.205106 
L 129.154291 63.391276 
L 130.188513 55.820733 
L 131.222734 45.369364 
L 132.256955 43.493477 
L 133.291177 51.198012 
L 134.325398 63.726255 
L 135.35962 77.192442 
L 136.393841 82.954094 
L 137.428062 99.301107 
L 138.462284 113.705237 
L 139.496505 113.705237 
L 140.530727 115.64812 
L 141.564948 121.409772 
L 142.599169 124.290598 
L 143.633391 130.05225 
L 144.667612 130.05225 
L 145.701834 130.05225 
L 146.736055 130.05225 
L 147.770277 130.05225 
L 148.804498 130.05225 
L 149.838719 130.05225 
L 150.872941 130.05225 
" clip-path="url(#p9690f2aeb9)" style="fill: none; stroke: #000000; stroke-width: 1.5; stroke-linecap: square"/>
   </g>
   <g id="patch_3">
    <path d="M 43.365625 130.05225 
L 43.365625 28.39625 
" style="fill: none; stroke: #000000; stroke-width: 0.8; stroke-linejoin: miter; stroke-linecap: square"/>
   </g>
   <g id="patch_4">
    <path d="M 155.992337 130.05225 
L 155.992337 28.39625 
" style="fill: none; stroke: #000000; stroke-width: 0.8; stroke-linejoin: miter; stroke-linecap: square"/>
   </g>
   <g id="patch_5">
    <path d="M 43.365625 130.05225 
L 155.992337 130.05225 
" style="fill: none; stroke: #000000; stroke-width: 0.8; stroke-linejoin: miter; stroke-linecap: square"/>
   </g>
   <g id="patch_6">
    <path d="M 43.365625 28.39625 
L 155.992337 28.39625 
" style="fill: none; stroke: #000000; stroke-width: 0.8; stroke-linejoin: miter; stroke-linecap: square"/>
   </g>
   <g id="text_11">
    <!-- feature 501 -->
    <g transform="translate(70.49695 11.198438) scale(0.1 -0.1)">
     <defs>
      <path id="DejaVuSans-74" d="M 1172 4494 
L 1172 3500 
L 2356 3500 
L 2356 3053 
L 1172 3053 
L 1172 1153 
Q 1172 725 1289 603 
Q 1406 481 1766 481 
L 2356 481 
L 2356 0 
L 1766 0 
Q 1100 0 847 248 
Q 594 497 594 1153 
L 594 3053 
L 172 3053 
L 172 3500 
L 594 3500 
L 594 4494 
L 1172 4494 
z
" transform="scale(0.015625)"/>
     </defs>
     <use xlink:href="#DejaVuSans-66"/>
     <use xlink:href="#DejaVuSans-65" x="35.205078"/>
     <use xlink:href="#DejaVuSans-61" x="96.728516"/>
     <use xlink:href="#DejaVuSans-74" x="158.007812"/>
     <use xlink:href="#DejaVuSans-75" x="197.216797"/>
     <use xlink:href="#DejaVuSans-72" x="260.595703"/>
     <use xlink:href="#DejaVuSans-65" x="299.458984"/>
     <use xlink:href="#DejaVuSans-20" x="360.982422"/>
     <use xlink:href="#DejaVuSans-35" x="392.769531"/>
     <use xlink:href="#DejaVuSans-30" x="456.392578"/>
     <use xlink:href="#DejaVuSans-31" x="520.015625"/>
    </g>
    <!--   cumsum = 1153.94 -->
    <g transform="translate(47.024293 22.39625) scale(0.1 -0.1)">
     <defs>
      <path id="DejaVuSans-3d" d="M 678 2906 
L 4684 2906 
L 4684 2381 
L 678 2381 
L 678 2906 
z
M 678 1631 
L 4684 1631 
L 4684 1100 
L 678 1100 
L 678 1631 
z
" transform="scale(0.015625)"/>
      <path id="DejaVuSans-33" d="M 2597 2516 
Q 3050 2419 3304 2112 
Q 3559 1806 3559 1356 
Q 3559 666 3084 287 
Q 2609 -91 1734 -91 
Q 1441 -91 1130 -33 
Q 819 25 488 141 
L 488 750 
Q 750 597 1062 519 
Q 1375 441 1716 441 
Q 2309 441 2620 675 
Q 2931 909 2931 1356 
Q 2931 1769 2642 2001 
Q 2353 2234 1838 2234 
L 1294 2234 
L 1294 2753 
L 1863 2753 
Q 2328 2753 2575 2939 
Q 2822 3125 2822 3475 
Q 2822 3834 2567 4026 
Q 2313 4219 1838 4219 
Q 1578 4219 1281 4162 
Q 984 4106 628 3988 
L 628 4550 
Q 988 4650 1302 4700 
Q 1616 4750 1894 4750 
Q 2613 4750 3031 4423 
Q 3450 4097 3450 3541 
Q 3450 3153 3228 2886 
Q 3006 2619 2597 2516 
z
" transform="scale(0.015625)"/>
      <path id="DejaVuSans-2e" d="M 684 794 
L 1344 794 
L 1344 0 
L 684 0 
L 684 794 
z
" transform="scale(0.015625)"/>
      <path id="DejaVuSans-39" d="M 703 97 
L 703 672 
Q 941 559 1184 500 
Q 1428 441 1663 441 
Q 2288 441 2617 861 
Q 2947 1281 2994 2138 
Q 2813 1869 2534 1725 
Q 2256 1581 1919 1581 
Q 1219 1581 811 2004 
Q 403 2428 403 3163 
Q 403 3881 828 4315 
Q 1253 4750 1959 4750 
Q 2769 4750 3195 4129 
Q 3622 3509 3622 2328 
Q 3622 1225 3098 567 
Q 2575 -91 1691 -91 
Q 1453 -91 1209 -44 
Q 966 3 703 97 
z
M 1959 2075 
Q 2384 2075 2632 2365 
Q 2881 2656 2881 3163 
Q 2881 3666 2632 3958 
Q 2384 4250 1959 4250 
Q 1534 4250 1286 3958 
Q 1038 3666 1038 3163 
Q 1038 2656 1286 2365 
Q 1534 2075 1959 2075 
z
" transform="scale(0.015625)"/>
      <path id="DejaVuSans-34" d="M 2419 4116 
L 825 1625 
L 2419 1625 
L 2419 4116 
z
M 2253 4666 
L 3047 4666 
L 3047 1625 
L 3713 1625 
L 3713 1100 
L 3047 1100 
L 3047 0 
L 2419 0 
L 2419 1100 
L 313 1100 
L 313 1709 
L 2253 4666 
z
" transform="scale(0.015625)"/>
     </defs>
     <use xlink:href="#DejaVuSans-20"/>
     <use xlink:href="#DejaVuSans-20" x="31.787109"/>
     <use xlink:href="#DejaVuSans-63" x="63.574219"/>
     <use xlink:href="#DejaVuSans-75" x="118.554688"/>
     <use xlink:href="#DejaVuSans-6d" x="181.933594"/>
     <use xlink:href="#DejaVuSans-73" x="279.345703"/>
     <use xlink:href="#DejaVuSans-75" x="331.445312"/>
     <use xlink:href="#DejaVuSans-6d" x="394.824219"/>
     <use xlink:href="#DejaVuSans-20" x="492.236328"/>
     <use xlink:href="#DejaVuSans-3d" x="524.023438"/>
     <use xlink:href="#DejaVuSans-20" x="607.8125"/>
     <use xlink:href="#DejaVuSans-31" x="639.599609"/>
     <use xlink:href="#DejaVuSans-31" x="703.222656"/>
     <use xlink:href="#DejaVuSans-35" x="766.845703"/>
     <use xlink:href="#DejaVuSans-33" x="830.46875"/>
     <use xlink:href="#DejaVuSans-2e" x="894.091797"/>
     <use xlink:href="#DejaVuSans-39" x="925.878906"/>
     <use xlink:href="#DejaVuSans-34" x="989.501953"/>
    </g>
   </g>
  </g>
  <g id="axes_2">
   <g id="patch_7">
    <path d="M 223.568364 130.05225 
L 336.195076 130.05225 
L 336.195076 28.39625 
L 223.568364 28.39625 
z
" style="fill: #ffffff"/>
   </g>
   <g id="matplotlib.axis_3">
    <g id="xtick_4">
     <g id="line2d_18">
      <path d="M 228.68776 130.05225 
L 228.68776 28.39625 
" clip-path="url(#pad1b2534ec)" style="fill: none; stroke: #b0b0b0; stroke-opacity: 0.5; stroke-width: 0.8; stroke-linecap: square"/>
     </g>
     <g id="line2d_19">
      <g>
       <use xlink:href="#m4c4ad96966" x="228.68776" y="130.05225" style="stroke: #000000; stroke-width: 0.8"/>
      </g>
     </g>
     <g id="text_12">
      <!-- 0 -->
      <g transform="translate(225.50651 144.650688) scale(0.1 -0.1)">
       <use xlink:href="#DejaVuSans-30"/>
      </g>
     </g>
    </g>
    <g id="xtick_5">
     <g id="line2d_20">
      <path d="M 280.39883 130.05225 
L 280.39883 28.39625 
" clip-path="url(#pad1b2534ec)" style="fill: none; stroke: #b0b0b0; stroke-opacity: 0.5; stroke-width: 0.8; stroke-linecap: square"/>
     </g>
     <g id="line2d_21">
      <g>
       <use xlink:href="#m4c4ad96966" x="280.39883" y="130.05225" style="stroke: #000000; stroke-width: 0.8"/>
      </g>
     </g>
     <g id="text_13">
      <!-- 50 -->
      <g transform="translate(274.03633 144.650688) scale(0.1 -0.1)">
       <use xlink:href="#DejaVuSans-35"/>
       <use xlink:href="#DejaVuSans-30" x="63.623047"/>
      </g>
     </g>
    </g>
    <g id="xtick_6">
     <g id="line2d_22">
      <path d="M 332.109901 130.05225 
L 332.109901 28.39625 
" clip-path="url(#pad1b2534ec)" style="fill: none; stroke: #b0b0b0; stroke-opacity: 0.5; stroke-width: 0.8; stroke-linecap: square"/>
     </g>
     <g id="line2d_23">
      <g>
       <use xlink:href="#m4c4ad96966" x="332.109901" y="130.05225" style="stroke: #000000; stroke-width: 0.8"/>
      </g>
     </g>
     <g id="text_14">
      <!-- 100 -->
      <g transform="translate(322.566151 144.650688) scale(0.1 -0.1)">
       <use xlink:href="#DejaVuSans-31"/>
       <use xlink:href="#DejaVuSans-30" x="63.623047"/>
       <use xlink:href="#DejaVuSans-30" x="127.246094"/>
      </g>
     </g>
    </g>
    <g id="text_15">
     <!-- bin number -->
     <g transform="translate(251.046563 158.328813) scale(0.1 -0.1)">
      <use xlink:href="#DejaVuSans-62"/>
      <use xlink:href="#DejaVuSans-69" x="63.476562"/>
      <use xlink:href="#DejaVuSans-6e" x="91.259766"/>
      <use xlink:href="#DejaVuSans-20" x="154.638672"/>
      <use xlink:href="#DejaVuSans-6e" x="186.425781"/>
      <use xlink:href="#DejaVuSans-75" x="249.804688"/>
      <use xlink:href="#DejaVuSans-6d" x="313.183594"/>
      <use xlink:href="#DejaVuSans-62" x="410.595703"/>
      <use xlink:href="#DejaVuSans-65" x="474.072266"/>
      <use xlink:href="#DejaVuSans-72" x="535.595703"/>
     </g>
    </g>
   </g>
   <g id="matplotlib.axis_4">
    <g id="ytick_6">
     <g id="line2d_24">
      <path d="M 223.568364 130.05225 
L 336.195076 130.05225 
" clip-path="url(#pad1b2534ec)" style="fill: none; stroke: #b0b0b0; stroke-opacity: 0.5; stroke-width: 0.8; stroke-linecap: square"/>
     </g>
     <g id="line2d_25">
      <g>
       <use xlink:href="#m445a9c0c3d" x="223.568364" y="130.05225" style="stroke: #000000; stroke-width: 0.8"/>
      </g>
     </g>
     <g id="text_16">
      <!-- 0 -->
      <g transform="translate(210.205864 133.851469) scale(0.1 -0.1)">
       <use xlink:href="#DejaVuSans-30"/>
      </g>
     </g>
    </g>
    <g id="ytick_7">
     <g id="line2d_26">
      <path d="M 223.568364 108.873917 
L 336.195076 108.873917 
" clip-path="url(#pad1b2534ec)" style="fill: none; stroke: #b0b0b0; stroke-opacity: 0.5; stroke-width: 0.8; stroke-linecap: square"/>
     </g>
     <g id="line2d_27">
      <g>
       <use xlink:href="#m445a9c0c3d" x="223.568364" y="108.873917" style="stroke: #000000; stroke-width: 0.8"/>
      </g>
     </g>
     <g id="text_17">
      <!-- 25 -->
      <g transform="translate(203.843364 112.673135) scale(0.1 -0.1)">
       <use xlink:href="#DejaVuSans-32"/>
       <use xlink:href="#DejaVuSans-35" x="63.623047"/>
      </g>
     </g>
    </g>
    <g id="ytick_8">
     <g id="line2d_28">
      <path d="M 223.568364 87.695583 
L 336.195076 87.695583 
" clip-path="url(#pad1b2534ec)" style="fill: none; stroke: #b0b0b0; stroke-opacity: 0.5; stroke-width: 0.8; stroke-linecap: square"/>
     </g>
     <g id="line2d_29">
      <g>
       <use xlink:href="#m445a9c0c3d" x="223.568364" y="87.695583" style="stroke: #000000; stroke-width: 0.8"/>
      </g>
     </g>
     <g id="text_18">
      <!-- 50 -->
      <g transform="translate(203.843364 91.494802) scale(0.1 -0.1)">
       <use xlink:href="#DejaVuSans-35"/>
       <use xlink:href="#DejaVuSans-30" x="63.623047"/>
      </g>
     </g>
    </g>
    <g id="ytick_9">
     <g id="line2d_30">
      <path d="M 223.568364 66.51725 
L 336.195076 66.51725 
" clip-path="url(#pad1b2534ec)" style="fill: none; stroke: #b0b0b0; stroke-opacity: 0.5; stroke-width: 0.8; stroke-linecap: square"/>
     </g>
     <g id="line2d_31">
      <g>
       <use xlink:href="#m445a9c0c3d" x="223.568364" y="66.51725" style="stroke: #000000; stroke-width: 0.8"/>
      </g>
     </g>
     <g id="text_19">
      <!-- 75 -->
      <g transform="translate(203.843364 70.316469) scale(0.1 -0.1)">
       <use xlink:href="#DejaVuSans-37"/>
       <use xlink:href="#DejaVuSans-35" x="63.623047"/>
      </g>
     </g>
    </g>
    <g id="ytick_10">
     <g id="line2d_32">
      <path d="M 223.568364 45.338917 
L 336.195076 45.338917 
" clip-path="url(#pad1b2534ec)" style="fill: none; stroke: #b0b0b0; stroke-opacity: 0.5; stroke-width: 0.8; stroke-linecap: square"/>
     </g>
     <g id="line2d_33">
      <g>
       <use xlink:href="#m445a9c0c3d" x="223.568364" y="45.338917" style="stroke: #000000; stroke-width: 0.8"/>
      </g>
     </g>
     <g id="text_20">
      <!-- 100 -->
      <g transform="translate(197.480864 49.138135) scale(0.1 -0.1)">
       <use xlink:href="#DejaVuSans-31"/>
       <use xlink:href="#DejaVuSans-30" x="63.623047"/>
       <use xlink:href="#DejaVuSans-30" x="127.246094"/>
      </g>
     </g>
    </g>
    <g id="text_21">
     <!-- sum of each bin [-] -->
     <g transform="translate(191.401176 126.539875) rotate(-90) scale(0.1 -0.1)">
      <use xlink:href="#DejaVuSans-73"/>
      <use xlink:href="#DejaVuSans-75" x="52.099609"/>
      <use xlink:href="#DejaVuSans-6d" x="115.478516"/>
      <use xlink:href="#DejaVuSans-20" x="212.890625"/>
      <use xlink:href="#DejaVuSans-6f" x="244.677734"/>
      <use xlink:href="#DejaVuSans-66" x="305.859375"/>
      <use xlink:href="#DejaVuSans-20" x="341.064453"/>
      <use xlink:href="#DejaVuSans-65" x="372.851562"/>
      <use xlink:href="#DejaVuSans-61" x="434.375"/>
      <use xlink:href="#DejaVuSans-63" x="495.654297"/>
      <use xlink:href="#DejaVuSans-68" x="550.634766"/>
      <use xlink:href="#DejaVuSans-20" x="614.013672"/>
      <use xlink:href="#DejaVuSans-62" x="645.800781"/>
      <use xlink:href="#DejaVuSans-69" x="709.277344"/>
      <use xlink:href="#DejaVuSans-6e" x="737.060547"/>
      <use xlink:href="#DejaVuSans-20" x="800.439453"/>
      <use xlink:href="#DejaVuSans-5b" x="832.226562"/>
      <use xlink:href="#DejaVuSans-2d" x="871.240234"/>
      <use xlink:href="#DejaVuSans-5d" x="907.324219"/>
     </g>
    </g>
   </g>
   <g id="line2d_34">
    <path d="M 228.68776 130.05225 
L 229.721981 130.05225 
L 230.756203 130.05225 
L 231.790424 130.05225 
L 232.824645 130.05225 
L 233.858867 130.05225 
L 234.893088 130.05225 
L 235.92731 130.05225 
L 236.961531 130.05225 
L 237.995752 130.05225 
L 239.029974 130.05225 
L 240.064195 130.05225 
L 241.098417 130.05225 
L 242.132638 130.05225 
L 243.16686 130.05225 
L 244.201081 130.05225 
L 245.235302 130.05225 
L 246.269524 130.05225 
L 247.303745 130.05225 
L 248.337967 130.05225 
L 249.372188 130.05225 
L 250.406409 130.05225 
L 251.440631 130.05225 
L 252.474852 130.05225 
L 253.509074 130.05225 
L 254.543295 130.05225 
L 255.577516 130.05225 
L 256.611738 130.05225 
L 257.645959 130.05225 
L 258.680181 130.05225 
L 259.714402 130.05225 
L 260.748624 130.05225 
L 261.782845 130.05225 
L 262.817066 130.05225 
L 263.851288 130.05225 
L 264.885509 130.05225 
L 265.919731 130.05225 
L 266.953952 130.05225 
L 267.988173 130.05225 
L 269.022395 130.05225 
L 270.056616 130.05225 
L 271.090838 130.05225 
L 272.125059 130.05225 
L 273.15928 130.05225 
L 274.193502 130.05225 
L 275.227723 130.05225 
L 276.261945 130.05225 
L 277.296166 130.05225 
L 278.330388 130.05225 
L 279.364609 130.05225 
L 280.39883 130.05225 
L 281.433052 130.05225 
L 282.467273 130.05225 
L 283.501495 130.05225 
L 284.535716 130.05225 
L 285.569937 130.05225 
L 286.604159 130.05225 
L 287.63838 130.05225 
L 288.672602 130.05225 
L 289.706823 130.05225 
L 290.741044 130.05225 
L 291.775266 130.05225 
L 292.809487 130.05225 
L 293.843709 130.05225 
L 294.87793 130.05225 
L 295.912152 130.05225 
L 296.946373 130.05225 
L 297.980594 130.05225 
L 299.014816 130.05225 
L 300.049037 122.414711 
L 301.083259 121.476768 
L 302.11748 124.357594 
L 303.151701 115.782112 
L 304.185923 114.844168 
L 305.220144 110.087456 
L 306.254366 97.693204 
L 307.288587 70.023875 
L 308.322808 66.205106 
L 309.35703 71.09581 
L 310.391251 74.981576 
L 311.425473 69.286919 
L 312.459694 66.473089 
L 313.493916 60.778433 
L 314.528137 80.944216 
L 315.562358 87.710807 
L 316.59658 93.472459 
L 317.630801 92.601512 
L 318.665023 95.482338 
L 319.699244 104.124816 
L 320.733465 112.767294 
L 321.767687 118.528946 
L 322.801908 127.171424 
L 323.83613 127.171424 
L 324.870351 130.05225 
L 325.904572 130.05225 
L 326.938794 130.05225 
L 327.973015 130.05225 
L 329.007237 130.05225 
L 330.041458 130.05225 
L 331.07568 130.05225 
" clip-path="url(#pad1b2534ec)" style="fill: none; stroke: #000000; stroke-width: 1.5; stroke-linecap: square"/>
   </g>
   <g id="patch_8">
    <path d="M 223.568364 130.05225 
L 223.568364 28.39625 
" style="fill: none; stroke: #000000; stroke-width: 0.8; stroke-linejoin: miter; stroke-linecap: square"/>
   </g>
   <g id="patch_9">
    <path d="M 336.195076 130.05225 
L 336.195076 28.39625 
" style="fill: none; stroke: #000000; stroke-width: 0.8; stroke-linejoin: miter; stroke-linecap: square"/>
   </g>
   <g id="patch_10">
    <path d="M 223.568364 130.05225 
L 336.195076 130.05225 
" style="fill: none; stroke: #000000; stroke-width: 0.8; stroke-linejoin: miter; stroke-linecap: square"/>
   </g>
   <g id="patch_11">
    <path d="M 223.568364 28.39625 
L 336.195076 28.39625 
" style="fill: none; stroke: #000000; stroke-width: 0.8; stroke-linejoin: miter; stroke-linecap: square"/>
   </g>
   <g id="text_22">
    <!-- feature 1125 -->
    <g transform="translate(247.518438 11.198438) scale(0.1 -0.1)">
     <use xlink:href="#DejaVuSans-66"/>
     <use xlink:href="#DejaVuSans-65" x="35.205078"/>
     <use xlink:href="#DejaVuSans-61" x="96.728516"/>
     <use xlink:href="#DejaVuSans-74" x="158.007812"/>
     <use xlink:href="#DejaVuSans-75" x="197.216797"/>
     <use xlink:href="#DejaVuSans-72" x="260.595703"/>
     <use xlink:href="#DejaVuSans-65" x="299.458984"/>
     <use xlink:href="#DejaVuSans-20" x="360.982422"/>
     <use xlink:href="#DejaVuSans-31" x="392.769531"/>
     <use xlink:href="#DejaVuSans-31" x="456.392578"/>
     <use xlink:href="#DejaVuSans-32" x="520.015625"/>
     <use xlink:href="#DejaVuSans-35" x="583.638672"/>
    </g>
    <!--   cumsum = 939.38 -->
    <g transform="translate(230.408282 22.39625) scale(0.1 -0.1)">
     <defs>
      <path id="DejaVuSans-38" d="M 2034 2216 
Q 1584 2216 1326 1975 
Q 1069 1734 1069 1313 
Q 1069 891 1326 650 
Q 1584 409 2034 409 
Q 2484 409 2743 651 
Q 3003 894 3003 1313 
Q 3003 1734 2745 1975 
Q 2488 2216 2034 2216 
z
M 1403 2484 
Q 997 2584 770 2862 
Q 544 3141 544 3541 
Q 544 4100 942 4425 
Q 1341 4750 2034 4750 
Q 2731 4750 3128 4425 
Q 3525 4100 3525 3541 
Q 3525 3141 3298 2862 
Q 3072 2584 2669 2484 
Q 3125 2378 3379 2068 
Q 3634 1759 3634 1313 
Q 3634 634 3220 271 
Q 2806 -91 2034 -91 
Q 1263 -91 848 271 
Q 434 634 434 1313 
Q 434 1759 690 2068 
Q 947 2378 1403 2484 
z
M 1172 3481 
Q 1172 3119 1398 2916 
Q 1625 2713 2034 2713 
Q 2441 2713 2670 2916 
Q 2900 3119 2900 3481 
Q 2900 3844 2670 4047 
Q 2441 4250 2034 4250 
Q 1625 4250 1398 4047 
Q 1172 3844 1172 3481 
z
" transform="scale(0.015625)"/>
     </defs>
     <use xlink:href="#DejaVuSans-20"/>
     <use xlink:href="#DejaVuSans-20" x="31.787109"/>
     <use xlink:href="#DejaVuSans-63" x="63.574219"/>
     <use xlink:href="#DejaVuSans-75" x="118.554688"/>
     <use xlink:href="#DejaVuSans-6d" x="181.933594"/>
     <use xlink:href="#DejaVuSans-73" x="279.345703"/>
     <use xlink:href="#DejaVuSans-75" x="331.445312"/>
     <use xlink:href="#DejaVuSans-6d" x="394.824219"/>
     <use xlink:href="#DejaVuSans-20" x="492.236328"/>
     <use xlink:href="#DejaVuSans-3d" x="524.023438"/>
     <use xlink:href="#DejaVuSans-20" x="607.8125"/>
     <use xlink:href="#DejaVuSans-39" x="639.599609"/>
     <use xlink:href="#DejaVuSans-33" x="703.222656"/>
     <use xlink:href="#DejaVuSans-39" x="766.845703"/>
     <use xlink:href="#DejaVuSans-2e" x="830.46875"/>
     <use xlink:href="#DejaVuSans-33" x="862.255859"/>
     <use xlink:href="#DejaVuSans-38" x="925.878906"/>
    </g>
   </g>
  </g>
  <g id="axes_3">
   <g id="patch_12">
    <path d="M 403.771103 130.05225 
L 516.397814 130.05225 
L 516.397814 28.39625 
L 403.771103 28.39625 
z
" style="fill: #ffffff"/>
   </g>
   <g id="matplotlib.axis_5">
    <g id="xtick_7">
     <g id="line2d_35">
      <path d="M 408.890499 130.05225 
L 408.890499 28.39625 
" clip-path="url(#pcf0732abbd)" style="fill: none; stroke: #b0b0b0; stroke-opacity: 0.5; stroke-width: 0.8; stroke-linecap: square"/>
     </g>
     <g id="line2d_36">
      <g>
       <use xlink:href="#m4c4ad96966" x="408.890499" y="130.05225" style="stroke: #000000; stroke-width: 0.8"/>
      </g>
     </g>
     <g id="text_23">
      <!-- 0 -->
      <g transform="translate(405.709249 144.650688) scale(0.1 -0.1)">
       <use xlink:href="#DejaVuSans-30"/>
      </g>
     </g>
    </g>
    <g id="xtick_8">
     <g id="line2d_37">
      <path d="M 460.601569 130.05225 
L 460.601569 28.39625 
" clip-path="url(#pcf0732abbd)" style="fill: none; stroke: #b0b0b0; stroke-opacity: 0.5; stroke-width: 0.8; stroke-linecap: square"/>
     </g>
     <g id="line2d_38">
      <g>
       <use xlink:href="#m4c4ad96966" x="460.601569" y="130.05225" style="stroke: #000000; stroke-width: 0.8"/>
      </g>
     </g>
     <g id="text_24">
      <!-- 50 -->
      <g transform="translate(454.239069 144.650688) scale(0.1 -0.1)">
       <use xlink:href="#DejaVuSans-35"/>
       <use xlink:href="#DejaVuSans-30" x="63.623047"/>
      </g>
     </g>
    </g>
    <g id="xtick_9">
     <g id="line2d_39">
      <path d="M 512.31264 130.05225 
L 512.31264 28.39625 
" clip-path="url(#pcf0732abbd)" style="fill: none; stroke: #b0b0b0; stroke-opacity: 0.5; stroke-width: 0.8; stroke-linecap: square"/>
     </g>
     <g id="line2d_40">
      <g>
       <use xlink:href="#m4c4ad96966" x="512.31264" y="130.05225" style="stroke: #000000; stroke-width: 0.8"/>
      </g>
     </g>
     <g id="text_25">
      <!-- 100 -->
      <g transform="translate(502.76889 144.650688) scale(0.1 -0.1)">
       <use xlink:href="#DejaVuSans-31"/>
       <use xlink:href="#DejaVuSans-30" x="63.623047"/>
       <use xlink:href="#DejaVuSans-30" x="127.246094"/>
      </g>
     </g>
    </g>
    <g id="text_26">
     <!-- bin number -->
     <g transform="translate(431.249302 158.328813) scale(0.1 -0.1)">
      <use xlink:href="#DejaVuSans-62"/>
      <use xlink:href="#DejaVuSans-69" x="63.476562"/>
      <use xlink:href="#DejaVuSans-6e" x="91.259766"/>
      <use xlink:href="#DejaVuSans-20" x="154.638672"/>
      <use xlink:href="#DejaVuSans-6e" x="186.425781"/>
      <use xlink:href="#DejaVuSans-75" x="249.804688"/>
      <use xlink:href="#DejaVuSans-6d" x="313.183594"/>
      <use xlink:href="#DejaVuSans-62" x="410.595703"/>
      <use xlink:href="#DejaVuSans-65" x="474.072266"/>
      <use xlink:href="#DejaVuSans-72" x="535.595703"/>
     </g>
    </g>
   </g>
   <g id="matplotlib.axis_6">
    <g id="ytick_11">
     <g id="line2d_41">
      <path d="M 403.771103 130.05225 
L 516.397814 130.05225 
" clip-path="url(#pcf0732abbd)" style="fill: none; stroke: #b0b0b0; stroke-opacity: 0.5; stroke-width: 0.8; stroke-linecap: square"/>
     </g>
     <g id="line2d_42">
      <g>
       <use xlink:href="#m445a9c0c3d" x="403.771103" y="130.05225" style="stroke: #000000; stroke-width: 0.8"/>
      </g>
     </g>
     <g id="text_27">
      <!-- 0 -->
      <g transform="translate(390.408603 133.851469) scale(0.1 -0.1)">
       <use xlink:href="#DejaVuSans-30"/>
      </g>
     </g>
    </g>
    <g id="ytick_12">
     <g id="line2d_43">
      <path d="M 403.771103 108.873917 
L 516.397814 108.873917 
" clip-path="url(#pcf0732abbd)" style="fill: none; stroke: #b0b0b0; stroke-opacity: 0.5; stroke-width: 0.8; stroke-linecap: square"/>
     </g>
     <g id="line2d_44">
      <g>
       <use xlink:href="#m445a9c0c3d" x="403.771103" y="108.873917" style="stroke: #000000; stroke-width: 0.8"/>
      </g>
     </g>
     <g id="text_28">
      <!-- 25 -->
      <g transform="translate(384.046103 112.673135) scale(0.1 -0.1)">
       <use xlink:href="#DejaVuSans-32"/>
       <use xlink:href="#DejaVuSans-35" x="63.623047"/>
      </g>
     </g>
    </g>
    <g id="ytick_13">
     <g id="line2d_45">
      <path d="M 403.771103 87.695583 
L 516.397814 87.695583 
" clip-path="url(#pcf0732abbd)" style="fill: none; stroke: #b0b0b0; stroke-opacity: 0.5; stroke-width: 0.8; stroke-linecap: square"/>
     </g>
     <g id="line2d_46">
      <g>
       <use xlink:href="#m445a9c0c3d" x="403.771103" y="87.695583" style="stroke: #000000; stroke-width: 0.8"/>
      </g>
     </g>
     <g id="text_29">
      <!-- 50 -->
      <g transform="translate(384.046103 91.494802) scale(0.1 -0.1)">
       <use xlink:href="#DejaVuSans-35"/>
       <use xlink:href="#DejaVuSans-30" x="63.623047"/>
      </g>
     </g>
    </g>
    <g id="ytick_14">
     <g id="line2d_47">
      <path d="M 403.771103 66.51725 
L 516.397814 66.51725 
" clip-path="url(#pcf0732abbd)" style="fill: none; stroke: #b0b0b0; stroke-opacity: 0.5; stroke-width: 0.8; stroke-linecap: square"/>
     </g>
     <g id="line2d_48">
      <g>
       <use xlink:href="#m445a9c0c3d" x="403.771103" y="66.51725" style="stroke: #000000; stroke-width: 0.8"/>
      </g>
     </g>
     <g id="text_30">
      <!-- 75 -->
      <g transform="translate(384.046103 70.316469) scale(0.1 -0.1)">
       <use xlink:href="#DejaVuSans-37"/>
       <use xlink:href="#DejaVuSans-35" x="63.623047"/>
      </g>
     </g>
    </g>
    <g id="ytick_15">
     <g id="line2d_49">
      <path d="M 403.771103 45.338917 
L 516.397814 45.338917 
" clip-path="url(#pcf0732abbd)" style="fill: none; stroke: #b0b0b0; stroke-opacity: 0.5; stroke-width: 0.8; stroke-linecap: square"/>
     </g>
     <g id="line2d_50">
      <g>
       <use xlink:href="#m445a9c0c3d" x="403.771103" y="45.338917" style="stroke: #000000; stroke-width: 0.8"/>
      </g>
     </g>
     <g id="text_31">
      <!-- 100 -->
      <g transform="translate(377.683603 49.138135) scale(0.1 -0.1)">
       <use xlink:href="#DejaVuSans-31"/>
       <use xlink:href="#DejaVuSans-30" x="63.623047"/>
       <use xlink:href="#DejaVuSans-30" x="127.246094"/>
      </g>
     </g>
    </g>
    <g id="text_32">
     <!-- sum of each bin [-] -->
     <g transform="translate(371.603915 126.539875) rotate(-90) scale(0.1 -0.1)">
      <use xlink:href="#DejaVuSans-73"/>
      <use xlink:href="#DejaVuSans-75" x="52.099609"/>
      <use xlink:href="#DejaVuSans-6d" x="115.478516"/>
      <use xlink:href="#DejaVuSans-20" x="212.890625"/>
      <use xlink:href="#DejaVuSans-6f" x="244.677734"/>
      <use xlink:href="#DejaVuSans-66" x="305.859375"/>
      <use xlink:href="#DejaVuSans-20" x="341.064453"/>
      <use xlink:href="#DejaVuSans-65" x="372.851562"/>
      <use xlink:href="#DejaVuSans-61" x="434.375"/>
      <use xlink:href="#DejaVuSans-63" x="495.654297"/>
      <use xlink:href="#DejaVuSans-68" x="550.634766"/>
      <use xlink:href="#DejaVuSans-20" x="614.013672"/>
      <use xlink:href="#DejaVuSans-62" x="645.800781"/>
      <use xlink:href="#DejaVuSans-69" x="709.277344"/>
      <use xlink:href="#DejaVuSans-6e" x="737.060547"/>
      <use xlink:href="#DejaVuSans-20" x="800.439453"/>
      <use xlink:href="#DejaVuSans-5b" x="832.226562"/>
      <use xlink:href="#DejaVuSans-2d" x="871.240234"/>
      <use xlink:href="#DejaVuSans-5d" x="907.324219"/>
     </g>
    </g>
   </g>
   <g id="line2d_51">
    <path d="M 408.890499 130.05225 
L 409.92472 130.05225 
L 410.958941 130.05225 
L 411.993163 130.05225 
L 413.027384 130.05225 
L 414.061606 130.05225 
L 415.095827 130.05225 
L 416.130048 130.05225 
L 417.16427 130.05225 
L 418.198491 130.05225 
L 419.232713 130.05225 
L 420.266934 130.05225 
L 421.301156 130.05225 
L 422.335377 130.05225 
L 423.369598 130.05225 
L 424.40382 130.05225 
L 425.438041 130.05225 
L 426.472263 130.05225 
L 427.506484 130.05225 
L 428.540705 130.05225 
L 429.574927 130.05225 
L 430.609148 130.05225 
L 431.64337 130.05225 
L 432.677591 130.05225 
L 433.711812 130.05225 
L 434.746034 130.05225 
L 435.780255 130.05225 
L 436.814477 130.05225 
L 437.848698 130.05225 
L 438.88292 130.05225 
L 439.917141 130.05225 
L 440.951362 130.05225 
L 441.985584 130.05225 
L 443.019805 130.05225 
L 444.054027 130.05225 
L 445.088248 130.05225 
L 446.122469 130.05225 
L 447.156691 130.05225 
L 448.190912 130.05225 
L 449.225134 130.05225 
L 450.259355 130.05225 
L 451.293576 130.05225 
L 452.327798 130.05225 
L 453.362019 130.05225 
L 454.396241 130.05225 
L 455.430462 130.05225 
L 456.464684 130.05225 
L 457.498905 130.05225 
L 458.533126 130.05225 
L 459.567348 130.05225 
L 460.601569 130.05225 
L 461.635791 130.05225 
L 462.670012 130.05225 
L 463.704233 130.05225 
L 464.738455 130.05225 
L 465.772676 130.05225 
L 466.806898 130.05225 
L 467.841119 130.05225 
L 468.87534 130.05225 
L 469.909562 130.05225 
L 470.943783 130.05225 
L 471.978005 130.05225 
L 473.012226 130.05225 
L 474.046448 130.05225 
L 475.080669 130.05225 
L 476.11489 130.05225 
L 477.149112 130.05225 
L 478.183333 124.290598 
L 479.217555 124.290598 
L 480.251776 121.409772 
L 481.285997 118.528946 
L 482.320219 112.767294 
L 483.35444 104.124816 
L 484.388662 102.181933 
L 485.422883 90.658629 
L 486.457104 86.772864 
L 487.491326 85.767924 
L 488.525547 83.825042 
L 489.559769 71.296798 
L 490.59399 69.286919 
L 491.628212 73.038693 
L 492.662433 72.971697 
L 493.696654 72.904701 
L 494.730876 82.418127 
L 495.765097 105.330743 
L 496.799319 107.20663 
L 497.83354 127.23842 
L 498.867761 124.357594 
L 499.901983 118.595942 
L 500.936204 130.05225 
L 501.970426 130.05225 
L 503.004647 130.05225 
L 504.038868 130.05225 
L 505.07309 130.05225 
L 506.107311 130.05225 
L 507.141533 130.05225 
L 508.175754 130.05225 
L 509.209976 130.05225 
L 510.244197 130.05225 
L 511.278418 130.05225 
" clip-path="url(#pcf0732abbd)" style="fill: none; stroke: #000000; stroke-width: 1.5; stroke-linecap: square"/>
   </g>
   <g id="patch_13">
    <path d="M 403.771103 130.05225 
L 403.771103 28.39625 
" style="fill: none; stroke: #000000; stroke-width: 0.8; stroke-linejoin: miter; stroke-linecap: square"/>
   </g>
   <g id="patch_14">
    <path d="M 516.397814 130.05225 
L 516.397814 28.39625 
" style="fill: none; stroke: #000000; stroke-width: 0.8; stroke-linejoin: miter; stroke-linecap: square"/>
   </g>
   <g id="patch_15">
    <path d="M 403.771103 130.05225 
L 516.397814 130.05225 
" style="fill: none; stroke: #000000; stroke-width: 0.8; stroke-linejoin: miter; stroke-linecap: square"/>
   </g>
   <g id="patch_16">
    <path d="M 403.771103 28.39625 
L 516.397814 28.39625 
" style="fill: none; stroke: #000000; stroke-width: 0.8; stroke-linejoin: miter; stroke-linecap: square"/>
   </g>
   <g id="text_33">
    <!-- feature 802 -->
    <g transform="translate(430.902427 11.198438) scale(0.1 -0.1)">
     <use xlink:href="#DejaVuSans-66"/>
     <use xlink:href="#DejaVuSans-65" x="35.205078"/>
     <use xlink:href="#DejaVuSans-61" x="96.728516"/>
     <use xlink:href="#DejaVuSans-74" x="158.007812"/>
     <use xlink:href="#DejaVuSans-75" x="197.216797"/>
     <use xlink:href="#DejaVuSans-72" x="260.595703"/>
     <use xlink:href="#DejaVuSans-65" x="299.458984"/>
     <use xlink:href="#DejaVuSans-20" x="360.982422"/>
     <use xlink:href="#DejaVuSans-38" x="392.769531"/>
     <use xlink:href="#DejaVuSans-30" x="456.392578"/>
     <use xlink:href="#DejaVuSans-32" x="520.015625"/>
    </g>
    <!--   cumsum = 804.93 -->
    <g transform="translate(410.611021 22.39625) scale(0.1 -0.1)">
     <use xlink:href="#DejaVuSans-20"/>
     <use xlink:href="#DejaVuSans-20" x="31.787109"/>
     <use xlink:href="#DejaVuSans-63" x="63.574219"/>
     <use xlink:href="#DejaVuSans-75" x="118.554688"/>
     <use xlink:href="#DejaVuSans-6d" x="181.933594"/>
     <use xlink:href="#DejaVuSans-73" x="279.345703"/>
     <use xlink:href="#DejaVuSans-75" x="331.445312"/>
     <use xlink:href="#DejaVuSans-6d" x="394.824219"/>
     <use xlink:href="#DejaVuSans-20" x="492.236328"/>
     <use xlink:href="#DejaVuSans-3d" x="524.023438"/>
     <use xlink:href="#DejaVuSans-20" x="607.8125"/>
     <use xlink:href="#DejaVuSans-38" x="639.599609"/>
     <use xlink:href="#DejaVuSans-30" x="703.222656"/>
     <use xlink:href="#DejaVuSans-34" x="766.845703"/>
     <use xlink:href="#DejaVuSans-2e" x="830.46875"/>
     <use xlink:href="#DejaVuSans-39" x="862.255859"/>
     <use xlink:href="#DejaVuSans-33" x="925.878906"/>
    </g>
   </g>
  </g>
  <g id="axes_4">
   <g id="patch_17">
    <path d="M 583.973841 130.05225 
L 696.600553 130.05225 
L 696.600553 28.39625 
L 583.973841 28.39625 
z
" style="fill: #ffffff"/>
   </g>
   <g id="matplotlib.axis_7">
    <g id="xtick_10">
     <g id="line2d_52">
      <path d="M 589.093237 130.05225 
L 589.093237 28.39625 
" clip-path="url(#p3530f05d43)" style="fill: none; stroke: #b0b0b0; stroke-opacity: 0.5; stroke-width: 0.8; stroke-linecap: square"/>
     </g>
     <g id="line2d_53">
      <g>
       <use xlink:href="#m4c4ad96966" x="589.093237" y="130.05225" style="stroke: #000000; stroke-width: 0.8"/>
      </g>
     </g>
     <g id="text_34">
      <!-- 0 -->
      <g transform="translate(585.911987 144.650688) scale(0.1 -0.1)">
       <use xlink:href="#DejaVuSans-30"/>
      </g>
     </g>
    </g>
    <g id="xtick_11">
     <g id="line2d_54">
      <path d="M 640.804308 130.05225 
L 640.804308 28.39625 
" clip-path="url(#p3530f05d43)" style="fill: none; stroke: #b0b0b0; stroke-opacity: 0.5; stroke-width: 0.8; stroke-linecap: square"/>
     </g>
     <g id="line2d_55">
      <g>
       <use xlink:href="#m4c4ad96966" x="640.804308" y="130.05225" style="stroke: #000000; stroke-width: 0.8"/>
      </g>
     </g>
     <g id="text_35">
      <!-- 50 -->
      <g transform="translate(634.441808 144.650688) scale(0.1 -0.1)">
       <use xlink:href="#DejaVuSans-35"/>
       <use xlink:href="#DejaVuSans-30" x="63.623047"/>
      </g>
     </g>
    </g>
    <g id="xtick_12">
     <g id="line2d_56">
      <path d="M 692.515379 130.05225 
L 692.515379 28.39625 
" clip-path="url(#p3530f05d43)" style="fill: none; stroke: #b0b0b0; stroke-opacity: 0.5; stroke-width: 0.8; stroke-linecap: square"/>
     </g>
     <g id="line2d_57">
      <g>
       <use xlink:href="#m4c4ad96966" x="692.515379" y="130.05225" style="stroke: #000000; stroke-width: 0.8"/>
      </g>
     </g>
     <g id="text_36">
      <!-- 100 -->
      <g transform="translate(682.971629 144.650688) scale(0.1 -0.1)">
       <use xlink:href="#DejaVuSans-31"/>
       <use xlink:href="#DejaVuSans-30" x="63.623047"/>
       <use xlink:href="#DejaVuSans-30" x="127.246094"/>
      </g>
     </g>
    </g>
    <g id="text_37">
     <!-- bin number -->
     <g transform="translate(611.452041 158.328813) scale(0.1 -0.1)">
      <use xlink:href="#DejaVuSans-62"/>
      <use xlink:href="#DejaVuSans-69" x="63.476562"/>
      <use xlink:href="#DejaVuSans-6e" x="91.259766"/>
      <use xlink:href="#DejaVuSans-20" x="154.638672"/>
      <use xlink:href="#DejaVuSans-6e" x="186.425781"/>
      <use xlink:href="#DejaVuSans-75" x="249.804688"/>
      <use xlink:href="#DejaVuSans-6d" x="313.183594"/>
      <use xlink:href="#DejaVuSans-62" x="410.595703"/>
      <use xlink:href="#DejaVuSans-65" x="474.072266"/>
      <use xlink:href="#DejaVuSans-72" x="535.595703"/>
     </g>
    </g>
   </g>
   <g id="matplotlib.axis_8">
    <g id="ytick_16">
     <g id="line2d_58">
      <path d="M 583.973841 130.05225 
L 696.600553 130.05225 
" clip-path="url(#p3530f05d43)" style="fill: none; stroke: #b0b0b0; stroke-opacity: 0.5; stroke-width: 0.8; stroke-linecap: square"/>
     </g>
     <g id="line2d_59">
      <g>
       <use xlink:href="#m445a9c0c3d" x="583.973841" y="130.05225" style="stroke: #000000; stroke-width: 0.8"/>
      </g>
     </g>
     <g id="text_38">
      <!-- 0 -->
      <g transform="translate(570.611341 133.851469) scale(0.1 -0.1)">
       <use xlink:href="#DejaVuSans-30"/>
      </g>
     </g>
    </g>
    <g id="ytick_17">
     <g id="line2d_60">
      <path d="M 583.973841 108.873917 
L 696.600553 108.873917 
" clip-path="url(#p3530f05d43)" style="fill: none; stroke: #b0b0b0; stroke-opacity: 0.5; stroke-width: 0.8; stroke-linecap: square"/>
     </g>
     <g id="line2d_61">
      <g>
       <use xlink:href="#m445a9c0c3d" x="583.973841" y="108.873917" style="stroke: #000000; stroke-width: 0.8"/>
      </g>
     </g>
     <g id="text_39">
      <!-- 25 -->
      <g transform="translate(564.248841 112.673135) scale(0.1 -0.1)">
       <use xlink:href="#DejaVuSans-32"/>
       <use xlink:href="#DejaVuSans-35" x="63.623047"/>
      </g>
     </g>
    </g>
    <g id="ytick_18">
     <g id="line2d_62">
      <path d="M 583.973841 87.695583 
L 696.600553 87.695583 
" clip-path="url(#p3530f05d43)" style="fill: none; stroke: #b0b0b0; stroke-opacity: 0.5; stroke-width: 0.8; stroke-linecap: square"/>
     </g>
     <g id="line2d_63">
      <g>
       <use xlink:href="#m445a9c0c3d" x="583.973841" y="87.695583" style="stroke: #000000; stroke-width: 0.8"/>
      </g>
     </g>
     <g id="text_40">
      <!-- 50 -->
      <g transform="translate(564.248841 91.494802) scale(0.1 -0.1)">
       <use xlink:href="#DejaVuSans-35"/>
       <use xlink:href="#DejaVuSans-30" x="63.623047"/>
      </g>
     </g>
    </g>
    <g id="ytick_19">
     <g id="line2d_64">
      <path d="M 583.973841 66.51725 
L 696.600553 66.51725 
" clip-path="url(#p3530f05d43)" style="fill: none; stroke: #b0b0b0; stroke-opacity: 0.5; stroke-width: 0.8; stroke-linecap: square"/>
     </g>
     <g id="line2d_65">
      <g>
       <use xlink:href="#m445a9c0c3d" x="583.973841" y="66.51725" style="stroke: #000000; stroke-width: 0.8"/>
      </g>
     </g>
     <g id="text_41">
      <!-- 75 -->
      <g transform="translate(564.248841 70.316469) scale(0.1 -0.1)">
       <use xlink:href="#DejaVuSans-37"/>
       <use xlink:href="#DejaVuSans-35" x="63.623047"/>
      </g>
     </g>
    </g>
    <g id="ytick_20">
     <g id="line2d_66">
      <path d="M 583.973841 45.338917 
L 696.600553 45.338917 
" clip-path="url(#p3530f05d43)" style="fill: none; stroke: #b0b0b0; stroke-opacity: 0.5; stroke-width: 0.8; stroke-linecap: square"/>
     </g>
     <g id="line2d_67">
      <g>
       <use xlink:href="#m445a9c0c3d" x="583.973841" y="45.338917" style="stroke: #000000; stroke-width: 0.8"/>
      </g>
     </g>
     <g id="text_42">
      <!-- 100 -->
      <g transform="translate(557.886341 49.138135) scale(0.1 -0.1)">
       <use xlink:href="#DejaVuSans-31"/>
       <use xlink:href="#DejaVuSans-30" x="63.623047"/>
       <use xlink:href="#DejaVuSans-30" x="127.246094"/>
      </g>
     </g>
    </g>
    <g id="text_43">
     <!-- sum of each bin [-] -->
     <g transform="translate(551.806654 126.539875) rotate(-90) scale(0.1 -0.1)">
      <use xlink:href="#DejaVuSans-73"/>
      <use xlink:href="#DejaVuSans-75" x="52.099609"/>
      <use xlink:href="#DejaVuSans-6d" x="115.478516"/>
      <use xlink:href="#DejaVuSans-20" x="212.890625"/>
      <use xlink:href="#DejaVuSans-6f" x="244.677734"/>
      <use xlink:href="#DejaVuSans-66" x="305.859375"/>
      <use xlink:href="#DejaVuSans-20" x="341.064453"/>
      <use xlink:href="#DejaVuSans-65" x="372.851562"/>
      <use xlink:href="#DejaVuSans-61" x="434.375"/>
      <use xlink:href="#DejaVuSans-63" x="495.654297"/>
      <use xlink:href="#DejaVuSans-68" x="550.634766"/>
      <use xlink:href="#DejaVuSans-20" x="614.013672"/>
      <use xlink:href="#DejaVuSans-62" x="645.800781"/>
      <use xlink:href="#DejaVuSans-69" x="709.277344"/>
      <use xlink:href="#DejaVuSans-6e" x="737.060547"/>
      <use xlink:href="#DejaVuSans-20" x="800.439453"/>
      <use xlink:href="#DejaVuSans-5b" x="832.226562"/>
      <use xlink:href="#DejaVuSans-2d" x="871.240234"/>
      <use xlink:href="#DejaVuSans-5d" x="907.324219"/>
     </g>
    </g>
   </g>
   <g id="line2d_68">
    <path d="M 589.093237 130.05225 
L 590.127459 130.05225 
L 591.16168 130.05225 
L 592.195902 130.05225 
L 593.230123 130.05225 
L 594.264344 130.05225 
L 595.298566 130.05225 
L 596.332787 130.05225 
L 597.367009 130.05225 
L 598.40123 130.05225 
L 599.435451 130.05225 
L 600.469673 130.05225 
L 601.503894 130.05225 
L 602.538116 130.05225 
L 603.572337 130.05225 
L 604.606559 130.05225 
L 605.64078 130.05225 
L 606.675001 130.05225 
L 607.709223 130.05225 
L 608.743444 130.05225 
L 609.777666 130.05225 
L 610.811887 130.05225 
L 611.846108 130.05225 
L 612.88033 130.05225 
L 613.914551 130.05225 
L 614.948773 130.05225 
L 615.982994 130.05225 
L 617.017215 130.05225 
L 618.051437 130.05225 
L 619.085658 130.05225 
L 620.11988 130.05225 
L 621.154101 130.05225 
L 622.188323 130.05225 
L 623.222544 130.05225 
L 624.256765 130.05225 
L 625.290987 130.05225 
L 626.325208 130.05225 
L 627.35943 130.05225 
L 628.393651 130.05225 
L 629.427872 130.05225 
L 630.462094 130.05225 
L 631.496315 130.05225 
L 632.530537 130.05225 
L 633.564758 130.05225 
L 634.598979 130.05225 
L 635.633201 130.05225 
L 636.667422 130.05225 
L 637.701644 130.05225 
L 638.735865 130.05225 
L 639.770087 130.05225 
L 640.804308 130.05225 
L 641.838529 130.05225 
L 642.872751 130.05225 
L 643.906972 130.05225 
L 644.941194 130.05225 
L 645.975415 130.05225 
L 647.009636 130.05225 
L 648.043858 130.05225 
L 649.078079 130.05225 
L 650.112301 130.05225 
L 651.146522 130.05225 
L 652.180743 130.05225 
L 653.214965 130.05225 
L 654.249186 130.05225 
L 655.283408 130.05225 
L 656.317629 130.05225 
L 657.351851 127.171424 
L 658.386072 127.171424 
L 659.420293 127.171424 
L 660.454515 117.657998 
L 661.488736 113.839229 
L 662.522958 97.626208 
L 663.557179 91.931552 
L 664.5914 90.055665 
L 665.625622 78.666353 
L 666.659843 75.852523 
L 667.694065 79.738288 
L 668.728286 66.406093 
L 669.762507 65.535146 
L 670.796729 66.540085 
L 671.83095 74.24462 
L 672.865172 86.772864 
L 673.899393 100.23905 
L 674.933615 117.524007 
L 675.967836 119.466889 
L 677.002057 122.347715 
L 678.036279 121.409772 
L 679.0705 121.409772 
L 680.104722 124.290598 
L 681.138943 130.05225 
L 682.173164 130.05225 
L 683.207386 130.05225 
L 684.241607 130.05225 
L 685.275829 130.05225 
L 686.31005 130.05225 
L 687.344271 130.05225 
L 688.378493 130.05225 
L 689.412714 130.05225 
L 690.446936 130.05225 
L 691.481157 130.05225 
" clip-path="url(#p3530f05d43)" style="fill: none; stroke: #000000; stroke-width: 1.5; stroke-linecap: square"/>
   </g>
   <g id="patch_18">
    <path d="M 583.973841 130.05225 
L 583.973841 28.39625 
" style="fill: none; stroke: #000000; stroke-width: 0.8; stroke-linejoin: miter; stroke-linecap: square"/>
   </g>
   <g id="patch_19">
    <path d="M 696.600553 130.05225 
L 696.600553 28.39625 
" style="fill: none; stroke: #000000; stroke-width: 0.8; stroke-linejoin: miter; stroke-linecap: square"/>
   </g>
   <g id="patch_20">
    <path d="M 583.973841 130.05225 
L 696.600553 130.05225 
" style="fill: none; stroke: #000000; stroke-width: 0.8; stroke-linejoin: miter; stroke-linecap: square"/>
   </g>
   <g id="patch_21">
    <path d="M 583.973841 28.39625 
L 696.600553 28.39625 
" style="fill: none; stroke: #000000; stroke-width: 0.8; stroke-linejoin: miter; stroke-linecap: square"/>
   </g>
   <g id="text_44">
    <!-- feature 1988 -->
    <g transform="translate(607.923916 11.198438) scale(0.1 -0.1)">
     <use xlink:href="#DejaVuSans-66"/>
     <use xlink:href="#DejaVuSans-65" x="35.205078"/>
     <use xlink:href="#DejaVuSans-61" x="96.728516"/>
     <use xlink:href="#DejaVuSans-74" x="158.007812"/>
     <use xlink:href="#DejaVuSans-75" x="197.216797"/>
     <use xlink:href="#DejaVuSans-72" x="260.595703"/>
     <use xlink:href="#DejaVuSans-65" x="299.458984"/>
     <use xlink:href="#DejaVuSans-20" x="360.982422"/>
     <use xlink:href="#DejaVuSans-31" x="392.769531"/>
     <use xlink:href="#DejaVuSans-39" x="456.392578"/>
     <use xlink:href="#DejaVuSans-38" x="520.015625"/>
     <use xlink:href="#DejaVuSans-38" x="583.638672"/>
    </g>
    <!--   cumsum = 800.50 -->
    <g transform="translate(590.81376 22.39625) scale(0.1 -0.1)">
     <use xlink:href="#DejaVuSans-20"/>
     <use xlink:href="#DejaVuSans-20" x="31.787109"/>
     <use xlink:href="#DejaVuSans-63" x="63.574219"/>
     <use xlink:href="#DejaVuSans-75" x="118.554688"/>
     <use xlink:href="#DejaVuSans-6d" x="181.933594"/>
     <use xlink:href="#DejaVuSans-73" x="279.345703"/>
     <use xlink:href="#DejaVuSans-75" x="331.445312"/>
     <use xlink:href="#DejaVuSans-6d" x="394.824219"/>
     <use xlink:href="#DejaVuSans-20" x="492.236328"/>
     <use xlink:href="#DejaVuSans-3d" x="524.023438"/>
     <use xlink:href="#DejaVuSans-20" x="607.8125"/>
     <use xlink:href="#DejaVuSans-38" x="639.599609"/>
     <use xlink:href="#DejaVuSans-30" x="703.222656"/>
     <use xlink:href="#DejaVuSans-30" x="766.845703"/>
     <use xlink:href="#DejaVuSans-2e" x="830.46875"/>
     <use xlink:href="#DejaVuSans-35" x="862.255859"/>
     <use xlink:href="#DejaVuSans-30" x="925.878906"/>
    </g>
   </g>
  </g>
 </g>
 <defs>
  <clipPath id="p9690f2aeb9">
   <rect x="43.365625" y="28.39625" width="112.626712" height="101.656"/>
  </clipPath>
  <clipPath id="pad1b2534ec">
   <rect x="223.568364" y="28.39625" width="112.626712" height="101.656"/>
  </clipPath>
  <clipPath id="pcf0732abbd">
   <rect x="403.771103" y="28.39625" width="112.626712" height="101.656"/>
  </clipPath>
  <clipPath id="p3530f05d43">
   <rect x="583.973841" y="28.39625" width="112.626712" height="101.656"/>
  </clipPath>
 </defs>
</svg>
