<?xml version="1.0" encoding="utf-8" standalone="no"?>
<!DOCTYPE svg PUBLIC "-//W3C//DTD SVG 1.1//EN"
  "http://www.w3.org/Graphics/SVG/1.1/DTD/svg11.dtd">
<svg xmlns:xlink="http://www.w3.org/1999/xlink" width="1152pt" height="288pt" viewBox="0 0 1152 288" xmlns="http://www.w3.org/2000/svg" version="1.1">
 <metadata>
  <rdf:RDF xmlns:dc="http://purl.org/dc/elements/1.1/" xmlns:cc="http://creativecommons.org/ns#" xmlns:rdf="http://www.w3.org/1999/02/22-rdf-syntax-ns#">
   <cc:Work>
    <dc:type rdf:resource="http://purl.org/dc/dcmitype/StillImage"/>
    <dc:date>2023-05-17T14:59:47.058663</dc:date>
    <dc:format>image/svg+xml</dc:format>
    <dc:creator>
     <cc:Agent>
      <dc:title>Matplotlib v3.7.0, https://matplotlib.org/</dc:title>
     </cc:Agent>
    </dc:creator>
   </cc:Work>
  </rdf:RDF>
 </metadata>
 <defs>
  <style type="text/css">*{stroke-linejoin: round; stroke-linecap: butt}</style>
 </defs>
 <g id="figure_1">
  <g id="patch_1">
   <path d="M 0 288 
L 1152 288 
L 1152 0 
L 0 0 
z
" style="fill: #ffffff"/>
  </g>
  <g id="axes_1">
   <g id="patch_2">
    <path d="M 50.87 135.812 
L 158.275032 135.812 
L 158.275032 36.384 
L 50.87 36.384 
z
" style="fill: #ffffff"/>
   </g>
   <g id="matplotlib.axis_1">
    <g id="xtick_1">
     <g id="line2d_1">
      <path d="M 55.752047 135.812 
L 55.752047 36.384 
" clip-path="url(#pd48ad2237b)" style="fill: none; stroke: #b0b0b0; stroke-opacity: 0.5; stroke-width: 0.8; stroke-linecap: square"/>
     </g>
     <g id="line2d_2">
      <defs>
       <path id="m662bc0dc96" d="M 0 0 
L 0 3.5 
" style="stroke: #000000; stroke-width: 0.8"/>
      </defs>
      <g>
       <use xlink:href="#m662bc0dc96" x="55.752047" y="135.812" style="stroke: #000000; stroke-width: 0.8"/>
      </g>
     </g>
     <g id="text_1">
      <!-- 0 -->
      <g transform="translate(52.570797 150.410438) scale(0.1 -0.1)">
       <defs>
        <path id="DejaVuSans-30" d="M 2034 4250 
Q 1547 4250 1301 3770 
Q 1056 3291 1056 2328 
Q 1056 1369 1301 889 
Q 1547 409 2034 409 
Q 2525 409 2770 889 
Q 3016 1369 3016 2328 
Q 3016 3291 2770 3770 
Q 2525 4250 2034 4250 
z
M 2034 4750 
Q 2819 4750 3233 4129 
Q 3647 3509 3647 2328 
Q 3647 1150 3233 529 
Q 2819 -91 2034 -91 
Q 1250 -91 836 529 
Q 422 1150 422 2328 
Q 422 3509 836 4129 
Q 1250 4750 2034 4750 
z
" transform="scale(0.015625)"/>
       </defs>
       <use xlink:href="#DejaVuSans-30"/>
      </g>
     </g>
    </g>
    <g id="xtick_2">
     <g id="line2d_3">
      <path d="M 105.065652 135.812 
L 105.065652 36.384 
" clip-path="url(#pd48ad2237b)" style="fill: none; stroke: #b0b0b0; stroke-opacity: 0.5; stroke-width: 0.8; stroke-linecap: square"/>
     </g>
     <g id="line2d_4">
      <g>
       <use xlink:href="#m662bc0dc96" x="105.065652" y="135.812" style="stroke: #000000; stroke-width: 0.8"/>
      </g>
     </g>
     <g id="text_2">
      <!-- 50 -->
      <g transform="translate(98.703152 150.410438) scale(0.1 -0.1)">
       <defs>
        <path id="DejaVuSans-35" d="M 691 4666 
L 3169 4666 
L 3169 4134 
L 1269 4134 
L 1269 2991 
Q 1406 3038 1543 3061 
Q 1681 3084 1819 3084 
Q 2600 3084 3056 2656 
Q 3513 2228 3513 1497 
Q 3513 744 3044 326 
Q 2575 -91 1722 -91 
Q 1428 -91 1123 -41 
Q 819 9 494 109 
L 494 744 
Q 775 591 1075 516 
Q 1375 441 1709 441 
Q 2250 441 2565 725 
Q 2881 1009 2881 1497 
Q 2881 1984 2565 2268 
Q 2250 2553 1709 2553 
Q 1456 2553 1204 2497 
Q 953 2441 691 2322 
L 691 4666 
z
" transform="scale(0.015625)"/>
       </defs>
       <use xlink:href="#DejaVuSans-35"/>
       <use xlink:href="#DejaVuSans-30" x="63.623047"/>
      </g>
     </g>
    </g>
    <g id="xtick_3">
     <g id="line2d_5">
      <path d="M 154.379257 135.812 
L 154.379257 36.384 
" clip-path="url(#pd48ad2237b)" style="fill: none; stroke: #b0b0b0; stroke-opacity: 0.5; stroke-width: 0.8; stroke-linecap: square"/>
     </g>
     <g id="line2d_6">
      <g>
       <use xlink:href="#m662bc0dc96" x="154.379257" y="135.812" style="stroke: #000000; stroke-width: 0.8"/>
      </g>
     </g>
     <g id="text_3">
      <!-- 100 -->
      <g transform="translate(144.835507 150.410438) scale(0.1 -0.1)">
       <defs>
        <path id="DejaVuSans-31" d="M 794 531 
L 1825 531 
L 1825 4091 
L 703 3866 
L 703 4441 
L 1819 4666 
L 2450 4666 
L 2450 531 
L 3481 531 
L 3481 0 
L 794 0 
L 794 531 
z
" transform="scale(0.015625)"/>
       </defs>
       <use xlink:href="#DejaVuSans-31"/>
       <use xlink:href="#DejaVuSans-30" x="63.623047"/>
       <use xlink:href="#DejaVuSans-30" x="127.246094"/>
      </g>
     </g>
    </g>
    <g id="text_4">
     <!-- bin number -->
     <g transform="translate(75.73736 164.088563) scale(0.1 -0.1)">
      <defs>
       <path id="DejaVuSans-62" d="M 3116 1747 
Q 3116 2381 2855 2742 
Q 2594 3103 2138 3103 
Q 1681 3103 1420 2742 
Q 1159 2381 1159 1747 
Q 1159 1113 1420 752 
Q 1681 391 2138 391 
Q 2594 391 2855 752 
Q 3116 1113 3116 1747 
z
M 1159 2969 
Q 1341 3281 1617 3432 
Q 1894 3584 2278 3584 
Q 2916 3584 3314 3078 
Q 3713 2572 3713 1747 
Q 3713 922 3314 415 
Q 2916 -91 2278 -91 
Q 1894 -91 1617 61 
Q 1341 213 1159 525 
L 1159 0 
L 581 0 
L 581 4863 
L 1159 4863 
L 1159 2969 
z
" transform="scale(0.015625)"/>
       <path id="DejaVuSans-69" d="M 603 3500 
L 1178 3500 
L 1178 0 
L 603 0 
L 603 3500 
z
M 603 4863 
L 1178 4863 
L 1178 4134 
L 603 4134 
L 603 4863 
z
" transform="scale(0.015625)"/>
       <path id="DejaVuSans-6e" d="M 3513 2113 
L 3513 0 
L 2938 0 
L 2938 2094 
Q 2938 2591 2744 2837 
Q 2550 3084 2163 3084 
Q 1697 3084 1428 2787 
Q 1159 2491 1159 1978 
L 1159 0 
L 581 0 
L 581 3500 
L 1159 3500 
L 1159 2956 
Q 1366 3272 1645 3428 
Q 1925 3584 2291 3584 
Q 2894 3584 3203 3211 
Q 3513 2838 3513 2113 
z
" transform="scale(0.015625)"/>
       <path id="DejaVuSans-20" transform="scale(0.015625)"/>
       <path id="DejaVuSans-75" d="M 544 1381 
L 544 3500 
L 1119 3500 
L 1119 1403 
Q 1119 906 1312 657 
Q 1506 409 1894 409 
Q 2359 409 2629 706 
Q 2900 1003 2900 1516 
L 2900 3500 
L 3475 3500 
L 3475 0 
L 2900 0 
L 2900 538 
Q 2691 219 2414 64 
Q 2138 -91 1772 -91 
Q 1169 -91 856 284 
Q 544 659 544 1381 
z
M 1991 3584 
L 1991 3584 
z
" transform="scale(0.015625)"/>
       <path id="DejaVuSans-6d" d="M 3328 2828 
Q 3544 3216 3844 3400 
Q 4144 3584 4550 3584 
Q 5097 3584 5394 3201 
Q 5691 2819 5691 2113 
L 5691 0 
L 5113 0 
L 5113 2094 
Q 5113 2597 4934 2840 
Q 4756 3084 4391 3084 
Q 3944 3084 3684 2787 
Q 3425 2491 3425 1978 
L 3425 0 
L 2847 0 
L 2847 2094 
Q 2847 2600 2669 2842 
Q 2491 3084 2119 3084 
Q 1678 3084 1418 2786 
Q 1159 2488 1159 1978 
L 1159 0 
L 581 0 
L 581 3500 
L 1159 3500 
L 1159 2956 
Q 1356 3278 1631 3431 
Q 1906 3584 2284 3584 
Q 2666 3584 2933 3390 
Q 3200 3197 3328 2828 
z
" transform="scale(0.015625)"/>
       <path id="DejaVuSans-65" d="M 3597 1894 
L 3597 1613 
L 953 1613 
Q 991 1019 1311 708 
Q 1631 397 2203 397 
Q 2534 397 2845 478 
Q 3156 559 3463 722 
L 3463 178 
Q 3153 47 2828 -22 
Q 2503 -91 2169 -91 
Q 1331 -91 842 396 
Q 353 884 353 1716 
Q 353 2575 817 3079 
Q 1281 3584 2069 3584 
Q 2775 3584 3186 3129 
Q 3597 2675 3597 1894 
z
M 3022 2063 
Q 3016 2534 2758 2815 
Q 2500 3097 2075 3097 
Q 1594 3097 1305 2825 
Q 1016 2553 972 2059 
L 3022 2063 
z
" transform="scale(0.015625)"/>
       <path id="DejaVuSans-72" d="M 2631 2963 
Q 2534 3019 2420 3045 
Q 2306 3072 2169 3072 
Q 1681 3072 1420 2755 
Q 1159 2438 1159 1844 
L 1159 0 
L 581 0 
L 581 3500 
L 1159 3500 
L 1159 2956 
Q 1341 3275 1631 3429 
Q 1922 3584 2338 3584 
Q 2397 3584 2469 3576 
Q 2541 3569 2628 3553 
L 2631 2963 
z
" transform="scale(0.015625)"/>
      </defs>
      <use xlink:href="#DejaVuSans-62"/>
      <use xlink:href="#DejaVuSans-69" x="63.476562"/>
      <use xlink:href="#DejaVuSans-6e" x="91.259766"/>
      <use xlink:href="#DejaVuSans-20" x="154.638672"/>
      <use xlink:href="#DejaVuSans-6e" x="186.425781"/>
      <use xlink:href="#DejaVuSans-75" x="249.804688"/>
      <use xlink:href="#DejaVuSans-6d" x="313.183594"/>
      <use xlink:href="#DejaVuSans-62" x="410.595703"/>
      <use xlink:href="#DejaVuSans-65" x="474.072266"/>
      <use xlink:href="#DejaVuSans-72" x="535.595703"/>
     </g>
    </g>
   </g>
   <g id="matplotlib.axis_2">
    <g id="ytick_1">
     <g id="line2d_7">
      <path d="M 50.87 135.812 
L 158.275032 135.812 
" clip-path="url(#pd48ad2237b)" style="fill: none; stroke: #b0b0b0; stroke-opacity: 0.5; stroke-width: 0.8; stroke-linecap: square"/>
     </g>
     <g id="line2d_8">
      <defs>
       <path id="ma3eab62c23" d="M 0 0 
L -3.5 0 
" style="stroke: #000000; stroke-width: 0.8"/>
      </defs>
      <g>
       <use xlink:href="#ma3eab62c23" x="50.87" y="135.812" style="stroke: #000000; stroke-width: 0.8"/>
      </g>
     </g>
     <g id="text_5">
      <!-- 0 -->
      <g transform="translate(37.5075 139.611219) scale(0.1 -0.1)">
       <use xlink:href="#DejaVuSans-30"/>
      </g>
     </g>
    </g>
    <g id="ytick_2">
     <g id="line2d_9">
      <path d="M 50.87 110.955 
L 158.275032 110.955 
" clip-path="url(#pd48ad2237b)" style="fill: none; stroke: #b0b0b0; stroke-opacity: 0.5; stroke-width: 0.8; stroke-linecap: square"/>
     </g>
     <g id="line2d_10">
      <g>
       <use xlink:href="#ma3eab62c23" x="50.87" y="110.955" style="stroke: #000000; stroke-width: 0.8"/>
      </g>
     </g>
     <g id="text_6">
      <!-- 25 -->
      <g transform="translate(31.145 114.754219) scale(0.1 -0.1)">
       <defs>
        <path id="DejaVuSans-32" d="M 1228 531 
L 3431 531 
L 3431 0 
L 469 0 
L 469 531 
Q 828 903 1448 1529 
Q 2069 2156 2228 2338 
Q 2531 2678 2651 2914 
Q 2772 3150 2772 3378 
Q 2772 3750 2511 3984 
Q 2250 4219 1831 4219 
Q 1534 4219 1204 4116 
Q 875 4013 500 3803 
L 500 4441 
Q 881 4594 1212 4672 
Q 1544 4750 1819 4750 
Q 2544 4750 2975 4387 
Q 3406 4025 3406 3419 
Q 3406 3131 3298 2873 
Q 3191 2616 2906 2266 
Q 2828 2175 2409 1742 
Q 1991 1309 1228 531 
z
" transform="scale(0.015625)"/>
       </defs>
       <use xlink:href="#DejaVuSans-32"/>
       <use xlink:href="#DejaVuSans-35" x="63.623047"/>
      </g>
     </g>
    </g>
    <g id="ytick_3">
     <g id="line2d_11">
      <path d="M 50.87 86.098 
L 158.275032 86.098 
" clip-path="url(#pd48ad2237b)" style="fill: none; stroke: #b0b0b0; stroke-opacity: 0.5; stroke-width: 0.8; stroke-linecap: square"/>
     </g>
     <g id="line2d_12">
      <g>
       <use xlink:href="#ma3eab62c23" x="50.87" y="86.098" style="stroke: #000000; stroke-width: 0.8"/>
      </g>
     </g>
     <g id="text_7">
      <!-- 50 -->
      <g transform="translate(31.145 89.897219) scale(0.1 -0.1)">
       <use xlink:href="#DejaVuSans-35"/>
       <use xlink:href="#DejaVuSans-30" x="63.623047"/>
      </g>
     </g>
    </g>
    <g id="ytick_4">
     <g id="line2d_13">
      <path d="M 50.87 61.241 
L 158.275032 61.241 
" clip-path="url(#pd48ad2237b)" style="fill: none; stroke: #b0b0b0; stroke-opacity: 0.5; stroke-width: 0.8; stroke-linecap: square"/>
     </g>
     <g id="line2d_14">
      <g>
       <use xlink:href="#ma3eab62c23" x="50.87" y="61.241" style="stroke: #000000; stroke-width: 0.8"/>
      </g>
     </g>
     <g id="text_8">
      <!-- 75 -->
      <g transform="translate(31.145 65.040219) scale(0.1 -0.1)">
       <defs>
        <path id="DejaVuSans-37" d="M 525 4666 
L 3525 4666 
L 3525 4397 
L 1831 0 
L 1172 0 
L 2766 4134 
L 525 4134 
L 525 4666 
z
" transform="scale(0.015625)"/>
       </defs>
       <use xlink:href="#DejaVuSans-37"/>
       <use xlink:href="#DejaVuSans-35" x="63.623047"/>
      </g>
     </g>
    </g>
    <g id="ytick_5">
     <g id="line2d_15">
      <path d="M 50.87 36.384 
L 158.275032 36.384 
" clip-path="url(#pd48ad2237b)" style="fill: none; stroke: #b0b0b0; stroke-opacity: 0.5; stroke-width: 0.8; stroke-linecap: square"/>
     </g>
     <g id="line2d_16">
      <g>
       <use xlink:href="#ma3eab62c23" x="50.87" y="36.384" style="stroke: #000000; stroke-width: 0.8"/>
      </g>
     </g>
     <g id="text_9">
      <!-- 100 -->
      <g transform="translate(24.7825 40.183219) scale(0.1 -0.1)">
       <use xlink:href="#DejaVuSans-31"/>
       <use xlink:href="#DejaVuSans-30" x="63.623047"/>
       <use xlink:href="#DejaVuSans-30" x="127.246094"/>
      </g>
     </g>
    </g>
    <g id="text_10">
     <!-- sum of each bin [-] -->
     <g transform="translate(18.702812 133.413625) rotate(-90) scale(0.1 -0.1)">
      <defs>
       <path id="DejaVuSans-73" d="M 2834 3397 
L 2834 2853 
Q 2591 2978 2328 3040 
Q 2066 3103 1784 3103 
Q 1356 3103 1142 2972 
Q 928 2841 928 2578 
Q 928 2378 1081 2264 
Q 1234 2150 1697 2047 
L 1894 2003 
Q 2506 1872 2764 1633 
Q 3022 1394 3022 966 
Q 3022 478 2636 193 
Q 2250 -91 1575 -91 
Q 1294 -91 989 -36 
Q 684 19 347 128 
L 347 722 
Q 666 556 975 473 
Q 1284 391 1588 391 
Q 1994 391 2212 530 
Q 2431 669 2431 922 
Q 2431 1156 2273 1281 
Q 2116 1406 1581 1522 
L 1381 1569 
Q 847 1681 609 1914 
Q 372 2147 372 2553 
Q 372 3047 722 3315 
Q 1072 3584 1716 3584 
Q 2034 3584 2315 3537 
Q 2597 3491 2834 3397 
z
" transform="scale(0.015625)"/>
       <path id="DejaVuSans-6f" d="M 1959 3097 
Q 1497 3097 1228 2736 
Q 959 2375 959 1747 
Q 959 1119 1226 758 
Q 1494 397 1959 397 
Q 2419 397 2687 759 
Q 2956 1122 2956 1747 
Q 2956 2369 2687 2733 
Q 2419 3097 1959 3097 
z
M 1959 3584 
Q 2709 3584 3137 3096 
Q 3566 2609 3566 1747 
Q 3566 888 3137 398 
Q 2709 -91 1959 -91 
Q 1206 -91 779 398 
Q 353 888 353 1747 
Q 353 2609 779 3096 
Q 1206 3584 1959 3584 
z
" transform="scale(0.015625)"/>
       <path id="DejaVuSans-66" d="M 2375 4863 
L 2375 4384 
L 1825 4384 
Q 1516 4384 1395 4259 
Q 1275 4134 1275 3809 
L 1275 3500 
L 2222 3500 
L 2222 3053 
L 1275 3053 
L 1275 0 
L 697 0 
L 697 3053 
L 147 3053 
L 147 3500 
L 697 3500 
L 697 3744 
Q 697 4328 969 4595 
Q 1241 4863 1831 4863 
L 2375 4863 
z
" transform="scale(0.015625)"/>
       <path id="DejaVuSans-61" d="M 2194 1759 
Q 1497 1759 1228 1600 
Q 959 1441 959 1056 
Q 959 750 1161 570 
Q 1363 391 1709 391 
Q 2188 391 2477 730 
Q 2766 1069 2766 1631 
L 2766 1759 
L 2194 1759 
z
M 3341 1997 
L 3341 0 
L 2766 0 
L 2766 531 
Q 2569 213 2275 61 
Q 1981 -91 1556 -91 
Q 1019 -91 701 211 
Q 384 513 384 1019 
Q 384 1609 779 1909 
Q 1175 2209 1959 2209 
L 2766 2209 
L 2766 2266 
Q 2766 2663 2505 2880 
Q 2244 3097 1772 3097 
Q 1472 3097 1187 3025 
Q 903 2953 641 2809 
L 641 3341 
Q 956 3463 1253 3523 
Q 1550 3584 1831 3584 
Q 2591 3584 2966 3190 
Q 3341 2797 3341 1997 
z
" transform="scale(0.015625)"/>
       <path id="DejaVuSans-63" d="M 3122 3366 
L 3122 2828 
Q 2878 2963 2633 3030 
Q 2388 3097 2138 3097 
Q 1578 3097 1268 2742 
Q 959 2388 959 1747 
Q 959 1106 1268 751 
Q 1578 397 2138 397 
Q 2388 397 2633 464 
Q 2878 531 3122 666 
L 3122 134 
Q 2881 22 2623 -34 
Q 2366 -91 2075 -91 
Q 1284 -91 818 406 
Q 353 903 353 1747 
Q 353 2603 823 3093 
Q 1294 3584 2113 3584 
Q 2378 3584 2631 3529 
Q 2884 3475 3122 3366 
z
" transform="scale(0.015625)"/>
       <path id="DejaVuSans-68" d="M 3513 2113 
L 3513 0 
L 2938 0 
L 2938 2094 
Q 2938 2591 2744 2837 
Q 2550 3084 2163 3084 
Q 1697 3084 1428 2787 
Q 1159 2491 1159 1978 
L 1159 0 
L 581 0 
L 581 4863 
L 1159 4863 
L 1159 2956 
Q 1366 3272 1645 3428 
Q 1925 3584 2291 3584 
Q 2894 3584 3203 3211 
Q 3513 2838 3513 2113 
z
" transform="scale(0.015625)"/>
       <path id="DejaVuSans-5b" d="M 550 4863 
L 1875 4863 
L 1875 4416 
L 1125 4416 
L 1125 -397 
L 1875 -397 
L 1875 -844 
L 550 -844 
L 550 4863 
z
" transform="scale(0.015625)"/>
       <path id="DejaVuSans-2d" d="M 313 2009 
L 1997 2009 
L 1997 1497 
L 313 1497 
L 313 2009 
z
" transform="scale(0.015625)"/>
       <path id="DejaVuSans-5d" d="M 1947 4863 
L 1947 -844 
L 622 -844 
L 622 -397 
L 1369 -397 
L 1369 4416 
L 622 4416 
L 622 4863 
L 1947 4863 
z
" transform="scale(0.015625)"/>
      </defs>
      <use xlink:href="#DejaVuSans-73"/>
      <use xlink:href="#DejaVuSans-75" x="52.099609"/>
      <use xlink:href="#DejaVuSans-6d" x="115.478516"/>
      <use xlink:href="#DejaVuSans-20" x="212.890625"/>
      <use xlink:href="#DejaVuSans-6f" x="244.677734"/>
      <use xlink:href="#DejaVuSans-66" x="305.859375"/>
      <use xlink:href="#DejaVuSans-20" x="341.064453"/>
      <use xlink:href="#DejaVuSans-65" x="372.851562"/>
      <use xlink:href="#DejaVuSans-61" x="434.375"/>
      <use xlink:href="#DejaVuSans-63" x="495.654297"/>
      <use xlink:href="#DejaVuSans-68" x="550.634766"/>
      <use xlink:href="#DejaVuSans-20" x="614.013672"/>
      <use xlink:href="#DejaVuSans-62" x="645.800781"/>
      <use xlink:href="#DejaVuSans-69" x="709.277344"/>
      <use xlink:href="#DejaVuSans-6e" x="737.060547"/>
      <use xlink:href="#DejaVuSans-20" x="800.439453"/>
      <use xlink:href="#DejaVuSans-5b" x="832.226562"/>
      <use xlink:href="#DejaVuSans-2d" x="871.240234"/>
      <use xlink:href="#DejaVuSans-5d" x="907.324219"/>
     </g>
    </g>
   </g>
   <g id="line2d_17">
    <path d="M 55.752047 135.812 
L 56.738319 135.812 
L 57.724591 135.812 
L 58.710863 135.812 
L 59.697135 135.812 
L 60.683407 135.812 
L 61.66968 135.812 
L 62.655952 135.812 
L 63.642224 135.812 
L 64.628496 135.812 
L 65.614768 135.812 
L 66.60104 135.812 
L 67.587312 135.812 
L 68.573584 135.812 
L 69.559856 135.812 
L 70.546128 135.812 
L 71.532401 135.812 
L 72.518673 135.812 
L 73.504945 135.812 
L 74.491217 135.812 
L 75.477489 135.812 
L 76.463761 135.812 
L 77.450033 135.812 
L 78.436305 135.812 
L 79.422577 135.812 
L 80.408849 135.812 
L 81.395122 135.812 
L 82.381394 135.812 
L 83.367666 135.812 
L 84.353938 135.812 
L 85.34021 135.812 
L 86.326482 135.812 
L 87.312754 135.812 
L 88.299026 135.812 
L 89.285298 135.812 
L 90.27157 135.812 
L 91.257843 135.812 
L 92.244115 135.812 
L 93.230387 135.812 
L 94.216659 135.812 
L 95.202931 135.812 
L 96.189203 135.812 
L 97.175475 135.812 
L 98.161747 135.812 
L 99.148019 135.812 
L 100.134291 135.812 
L 101.120564 135.812 
L 102.106836 135.812 
L 103.093108 135.812 
L 104.07938 135.812 
L 105.065652 135.812 
L 106.051924 135.812 
L 107.038196 135.812 
L 108.024468 135.812 
L 109.01074 135.812 
L 109.997012 135.812 
L 110.983285 135.812 
L 111.969557 135.812 
L 112.955829 135.812 
L 113.942101 135.812 
L 114.928373 135.812 
L 115.914645 135.812 
L 116.900917 132.142139 
L 117.887189 132.142139 
L 118.873461 128.472279 
L 119.859733 128.472279 
L 120.846006 128.472279 
L 121.832278 124.802418 
L 122.81855 124.802418 
L 123.804822 102.783254 
L 124.791094 99.113394 
L 125.777366 95.912026 
L 126.763638 88.572304 
L 127.74991 85.370937 
L 128.736182 67.021633 
L 129.722454 71.62848 
L 130.708727 68.427112 
L 131.694999 61.087391 
L 132.681271 50.077809 
L 133.667543 64.366841 
L 134.653815 46.954523 
L 135.640087 55.699723 
L 136.626359 65.850401 
L 137.612631 70.92574 
L 138.598903 76.00108 
L 139.585176 80.607926 
L 140.571448 81.076419 
L 141.55772 106.843526 
L 142.543992 115.120233 
L 143.530264 119.258586 
L 144.516536 119.258586 
L 145.502808 127.535293 
L 146.48908 131.673647 
L 147.475352 131.673647 
L 148.461624 131.673647 
L 149.447897 135.812 
L 150.434169 135.812 
L 151.420441 135.812 
L 152.406713 135.812 
L 153.392985 135.812 
" clip-path="url(#pd48ad2237b)" style="fill: none; stroke: #000000; stroke-width: 1.5; stroke-linecap: square"/>
   </g>
   <g id="patch_3">
    <path d="M 50.87 135.812 
L 50.87 36.384 
" style="fill: none; stroke: #000000; stroke-width: 0.8; stroke-linejoin: miter; stroke-linecap: square"/>
   </g>
   <g id="patch_4">
    <path d="M 158.275032 135.812 
L 158.275032 36.384 
" style="fill: none; stroke: #000000; stroke-width: 0.8; stroke-linejoin: miter; stroke-linecap: square"/>
   </g>
   <g id="patch_5">
    <path d="M 50.87 135.812 
L 158.275032 135.812 
" style="fill: none; stroke: #000000; stroke-width: 0.8; stroke-linejoin: miter; stroke-linecap: square"/>
   </g>
   <g id="patch_6">
    <path d="M 50.87 36.384 
L 158.275032 36.384 
" style="fill: none; stroke: #000000; stroke-width: 0.8; stroke-linejoin: miter; stroke-linecap: square"/>
   </g>
   <g id="text_11">
    <!-- voxel 1002 -->
    <g transform="translate(77.127203 19.186188) scale(0.1 -0.1)">
     <defs>
      <path id="DejaVuSans-76" d="M 191 3500 
L 800 3500 
L 1894 563 
L 2988 3500 
L 3597 3500 
L 2284 0 
L 1503 0 
L 191 3500 
z
" transform="scale(0.015625)"/>
      <path id="DejaVuSans-78" d="M 3513 3500 
L 2247 1797 
L 3578 0 
L 2900 0 
L 1881 1375 
L 863 0 
L 184 0 
L 1544 1831 
L 300 3500 
L 978 3500 
L 1906 2253 
L 2834 3500 
L 3513 3500 
z
" transform="scale(0.015625)"/>
      <path id="DejaVuSans-6c" d="M 603 4863 
L 1178 4863 
L 1178 0 
L 603 0 
L 603 4863 
z
" transform="scale(0.015625)"/>
     </defs>
     <use xlink:href="#DejaVuSans-76"/>
     <use xlink:href="#DejaVuSans-6f" x="59.179688"/>
     <use xlink:href="#DejaVuSans-78" x="117.236328"/>
     <use xlink:href="#DejaVuSans-65" x="173.291016"/>
     <use xlink:href="#DejaVuSans-6c" x="234.814453"/>
     <use xlink:href="#DejaVuSans-20" x="262.597656"/>
     <use xlink:href="#DejaVuSans-31" x="294.384766"/>
     <use xlink:href="#DejaVuSans-30" x="358.007812"/>
     <use xlink:href="#DejaVuSans-30" x="421.630859"/>
     <use xlink:href="#DejaVuSans-32" x="485.253906"/>
    </g>
    <!--   cumsum = 1275.27 -->
    <g transform="translate(51.917828 30.384) scale(0.1 -0.1)">
     <defs>
      <path id="DejaVuSans-3d" d="M 678 2906 
L 4684 2906 
L 4684 2381 
L 678 2381 
L 678 2906 
z
M 678 1631 
L 4684 1631 
L 4684 1100 
L 678 1100 
L 678 1631 
z
" transform="scale(0.015625)"/>
      <path id="DejaVuSans-2e" d="M 684 794 
L 1344 794 
L 1344 0 
L 684 0 
L 684 794 
z
" transform="scale(0.015625)"/>
     </defs>
     <use xlink:href="#DejaVuSans-20"/>
     <use xlink:href="#DejaVuSans-20" x="31.787109"/>
     <use xlink:href="#DejaVuSans-63" x="63.574219"/>
     <use xlink:href="#DejaVuSans-75" x="118.554688"/>
     <use xlink:href="#DejaVuSans-6d" x="181.933594"/>
     <use xlink:href="#DejaVuSans-73" x="279.345703"/>
     <use xlink:href="#DejaVuSans-75" x="331.445312"/>
     <use xlink:href="#DejaVuSans-6d" x="394.824219"/>
     <use xlink:href="#DejaVuSans-20" x="492.236328"/>
     <use xlink:href="#DejaVuSans-3d" x="524.023438"/>
     <use xlink:href="#DejaVuSans-20" x="607.8125"/>
     <use xlink:href="#DejaVuSans-31" x="639.599609"/>
     <use xlink:href="#DejaVuSans-32" x="703.222656"/>
     <use xlink:href="#DejaVuSans-37" x="766.845703"/>
     <use xlink:href="#DejaVuSans-35" x="830.46875"/>
     <use xlink:href="#DejaVuSans-2e" x="894.091797"/>
     <use xlink:href="#DejaVuSans-32" x="925.878906"/>
     <use xlink:href="#DejaVuSans-37" x="989.501953"/>
    </g>
   </g>
  </g>
  <g id="axes_2">
   <g id="patch_7">
    <path d="M 214.690828 135.812 
L 322.09586 135.812 
L 322.09586 36.384 
L 214.690828 36.384 
z
" style="fill: #ffffff"/>
   </g>
   <g id="matplotlib.axis_3">
    <g id="xtick_4">
     <g id="line2d_18">
      <path d="M 219.572875 135.812 
L 219.572875 36.384 
" clip-path="url(#p68ae15ef62)" style="fill: none; stroke: #b0b0b0; stroke-opacity: 0.5; stroke-width: 0.8; stroke-linecap: square"/>
     </g>
     <g id="line2d_19">
      <g>
       <use xlink:href="#m662bc0dc96" x="219.572875" y="135.812" style="stroke: #000000; stroke-width: 0.8"/>
      </g>
     </g>
     <g id="text_12">
      <!-- 0 -->
      <g transform="translate(216.391625 150.410438) scale(0.1 -0.1)">
       <use xlink:href="#DejaVuSans-30"/>
      </g>
     </g>
    </g>
    <g id="xtick_5">
     <g id="line2d_20">
      <path d="M 268.88648 135.812 
L 268.88648 36.384 
" clip-path="url(#p68ae15ef62)" style="fill: none; stroke: #b0b0b0; stroke-opacity: 0.5; stroke-width: 0.8; stroke-linecap: square"/>
     </g>
     <g id="line2d_21">
      <g>
       <use xlink:href="#m662bc0dc96" x="268.88648" y="135.812" style="stroke: #000000; stroke-width: 0.8"/>
      </g>
     </g>
     <g id="text_13">
      <!-- 50 -->
      <g transform="translate(262.52398 150.410438) scale(0.1 -0.1)">
       <use xlink:href="#DejaVuSans-35"/>
       <use xlink:href="#DejaVuSans-30" x="63.623047"/>
      </g>
     </g>
    </g>
    <g id="xtick_6">
     <g id="line2d_22">
      <path d="M 318.200085 135.812 
L 318.200085 36.384 
" clip-path="url(#p68ae15ef62)" style="fill: none; stroke: #b0b0b0; stroke-opacity: 0.5; stroke-width: 0.8; stroke-linecap: square"/>
     </g>
     <g id="line2d_23">
      <g>
       <use xlink:href="#m662bc0dc96" x="318.200085" y="135.812" style="stroke: #000000; stroke-width: 0.8"/>
      </g>
     </g>
     <g id="text_14">
      <!-- 100 -->
      <g transform="translate(308.656335 150.410438) scale(0.1 -0.1)">
       <use xlink:href="#DejaVuSans-31"/>
       <use xlink:href="#DejaVuSans-30" x="63.623047"/>
       <use xlink:href="#DejaVuSans-30" x="127.246094"/>
      </g>
     </g>
    </g>
    <g id="text_15">
     <!-- bin number -->
     <g transform="translate(239.558188 164.088563) scale(0.1 -0.1)">
      <use xlink:href="#DejaVuSans-62"/>
      <use xlink:href="#DejaVuSans-69" x="63.476562"/>
      <use xlink:href="#DejaVuSans-6e" x="91.259766"/>
      <use xlink:href="#DejaVuSans-20" x="154.638672"/>
      <use xlink:href="#DejaVuSans-6e" x="186.425781"/>
      <use xlink:href="#DejaVuSans-75" x="249.804688"/>
      <use xlink:href="#DejaVuSans-6d" x="313.183594"/>
      <use xlink:href="#DejaVuSans-62" x="410.595703"/>
      <use xlink:href="#DejaVuSans-65" x="474.072266"/>
      <use xlink:href="#DejaVuSans-72" x="535.595703"/>
     </g>
    </g>
   </g>
   <g id="matplotlib.axis_4">
    <g id="ytick_6">
     <g id="line2d_24">
      <path d="M 214.690828 135.812 
L 322.09586 135.812 
" clip-path="url(#p68ae15ef62)" style="fill: none; stroke: #b0b0b0; stroke-opacity: 0.5; stroke-width: 0.8; stroke-linecap: square"/>
     </g>
     <g id="line2d_25">
      <g>
       <use xlink:href="#ma3eab62c23" x="214.690828" y="135.812" style="stroke: #000000; stroke-width: 0.8"/>
      </g>
     </g>
     <g id="text_16">
      <!-- 0 -->
      <g transform="translate(201.328328 139.611219) scale(0.1 -0.1)">
       <use xlink:href="#DejaVuSans-30"/>
      </g>
     </g>
    </g>
    <g id="ytick_7">
     <g id="line2d_26">
      <path d="M 214.690828 110.955 
L 322.09586 110.955 
" clip-path="url(#p68ae15ef62)" style="fill: none; stroke: #b0b0b0; stroke-opacity: 0.5; stroke-width: 0.8; stroke-linecap: square"/>
     </g>
     <g id="line2d_27">
      <g>
       <use xlink:href="#ma3eab62c23" x="214.690828" y="110.955" style="stroke: #000000; stroke-width: 0.8"/>
      </g>
     </g>
     <g id="text_17">
      <!-- 25 -->
      <g transform="translate(194.965828 114.754219) scale(0.1 -0.1)">
       <use xlink:href="#DejaVuSans-32"/>
       <use xlink:href="#DejaVuSans-35" x="63.623047"/>
      </g>
     </g>
    </g>
    <g id="ytick_8">
     <g id="line2d_28">
      <path d="M 214.690828 86.098 
L 322.09586 86.098 
" clip-path="url(#p68ae15ef62)" style="fill: none; stroke: #b0b0b0; stroke-opacity: 0.5; stroke-width: 0.8; stroke-linecap: square"/>
     </g>
     <g id="line2d_29">
      <g>
       <use xlink:href="#ma3eab62c23" x="214.690828" y="86.098" style="stroke: #000000; stroke-width: 0.8"/>
      </g>
     </g>
     <g id="text_18">
      <!-- 50 -->
      <g transform="translate(194.965828 89.897219) scale(0.1 -0.1)">
       <use xlink:href="#DejaVuSans-35"/>
       <use xlink:href="#DejaVuSans-30" x="63.623047"/>
      </g>
     </g>
    </g>
    <g id="ytick_9">
     <g id="line2d_30">
      <path d="M 214.690828 61.241 
L 322.09586 61.241 
" clip-path="url(#p68ae15ef62)" style="fill: none; stroke: #b0b0b0; stroke-opacity: 0.5; stroke-width: 0.8; stroke-linecap: square"/>
     </g>
     <g id="line2d_31">
      <g>
       <use xlink:href="#ma3eab62c23" x="214.690828" y="61.241" style="stroke: #000000; stroke-width: 0.8"/>
      </g>
     </g>
     <g id="text_19">
      <!-- 75 -->
      <g transform="translate(194.965828 65.040219) scale(0.1 -0.1)">
       <use xlink:href="#DejaVuSans-37"/>
       <use xlink:href="#DejaVuSans-35" x="63.623047"/>
      </g>
     </g>
    </g>
    <g id="ytick_10">
     <g id="line2d_32">
      <path d="M 214.690828 36.384 
L 322.09586 36.384 
" clip-path="url(#p68ae15ef62)" style="fill: none; stroke: #b0b0b0; stroke-opacity: 0.5; stroke-width: 0.8; stroke-linecap: square"/>
     </g>
     <g id="line2d_33">
      <g>
       <use xlink:href="#ma3eab62c23" x="214.690828" y="36.384" style="stroke: #000000; stroke-width: 0.8"/>
      </g>
     </g>
     <g id="text_20">
      <!-- 100 -->
      <g transform="translate(188.603328 40.183219) scale(0.1 -0.1)">
       <use xlink:href="#DejaVuSans-31"/>
       <use xlink:href="#DejaVuSans-30" x="63.623047"/>
       <use xlink:href="#DejaVuSans-30" x="127.246094"/>
      </g>
     </g>
    </g>
    <g id="text_21">
     <!-- sum of each bin [-] -->
     <g transform="translate(182.523641 133.413625) rotate(-90) scale(0.1 -0.1)">
      <use xlink:href="#DejaVuSans-73"/>
      <use xlink:href="#DejaVuSans-75" x="52.099609"/>
      <use xlink:href="#DejaVuSans-6d" x="115.478516"/>
      <use xlink:href="#DejaVuSans-20" x="212.890625"/>
      <use xlink:href="#DejaVuSans-6f" x="244.677734"/>
      <use xlink:href="#DejaVuSans-66" x="305.859375"/>
      <use xlink:href="#DejaVuSans-20" x="341.064453"/>
      <use xlink:href="#DejaVuSans-65" x="372.851562"/>
      <use xlink:href="#DejaVuSans-61" x="434.375"/>
      <use xlink:href="#DejaVuSans-63" x="495.654297"/>
      <use xlink:href="#DejaVuSans-68" x="550.634766"/>
      <use xlink:href="#DejaVuSans-20" x="614.013672"/>
      <use xlink:href="#DejaVuSans-62" x="645.800781"/>
      <use xlink:href="#DejaVuSans-69" x="709.277344"/>
      <use xlink:href="#DejaVuSans-6e" x="737.060547"/>
      <use xlink:href="#DejaVuSans-20" x="800.439453"/>
      <use xlink:href="#DejaVuSans-5b" x="832.226562"/>
      <use xlink:href="#DejaVuSans-2d" x="871.240234"/>
      <use xlink:href="#DejaVuSans-5d" x="907.324219"/>
     </g>
    </g>
   </g>
   <g id="line2d_34">
    <path d="M 219.572875 135.812 
L 220.559147 135.812 
L 221.545419 135.812 
L 222.531691 135.812 
L 223.517963 135.812 
L 224.504235 135.812 
L 225.490508 135.812 
L 226.47678 135.812 
L 227.463052 135.812 
L 228.449324 135.812 
L 229.435596 135.812 
L 230.421868 135.812 
L 231.40814 135.812 
L 232.394412 135.812 
L 233.380684 135.812 
L 234.366956 135.812 
L 235.353229 135.812 
L 236.339501 135.812 
L 237.325773 135.812 
L 238.312045 135.812 
L 239.298317 135.812 
L 240.284589 135.812 
L 241.270861 135.812 
L 242.257133 135.812 
L 243.243405 135.812 
L 244.229677 135.812 
L 245.21595 135.812 
L 246.202222 135.812 
L 247.188494 135.812 
L 248.174766 135.812 
L 249.161038 135.812 
L 250.14731 135.812 
L 251.133582 135.812 
L 252.119854 135.812 
L 253.106126 135.812 
L 254.092398 135.812 
L 255.078671 135.812 
L 256.064943 135.812 
L 257.051215 135.812 
L 258.037487 135.812 
L 259.023759 135.812 
L 260.010031 135.812 
L 260.996303 135.812 
L 261.982575 135.812 
L 262.968847 135.812 
L 263.955119 135.812 
L 264.941392 135.812 
L 265.927664 135.812 
L 266.913936 135.812 
L 267.900208 135.812 
L 268.88648 135.812 
L 269.872752 135.812 
L 270.859024 135.812 
L 271.845296 135.812 
L 272.831568 135.812 
L 273.81784 135.812 
L 274.804113 135.812 
L 275.790385 135.812 
L 276.776657 135.812 
L 277.762929 135.812 
L 278.749201 135.812 
L 279.735473 135.812 
L 280.721745 135.812 
L 281.708017 135.812 
L 282.694289 132.142139 
L 283.680562 132.142139 
L 284.666834 132.142139 
L 285.653106 135.343507 
L 286.639378 128.940772 
L 287.62565 129.409264 
L 288.611922 129.409264 
L 289.598194 125.739404 
L 290.584466 107.858593 
L 291.570738 85.839429 
L 292.55701 82.638062 
L 293.543283 75.766833 
L 294.529555 61.555883 
L 295.515827 46.876441 
L 296.502099 44.143566 
L 297.488371 41.410691 
L 298.474643 51.092877 
L 299.460915 56.636709 
L 300.447187 61.243555 
L 301.433459 74.595601 
L 302.419731 87.947647 
L 303.406004 81.076419 
L 304.392276 89.353126 
L 305.378548 93.959972 
L 306.36482 102.236679 
L 307.351092 106.843526 
L 308.337364 115.120233 
L 309.323636 123.39694 
L 310.309908 123.39694 
L 311.29618 127.535293 
L 312.282452 135.812 
L 313.268725 135.812 
L 314.254997 135.812 
L 315.241269 135.812 
L 316.227541 135.812 
L 317.213813 135.812 
" clip-path="url(#p68ae15ef62)" style="fill: none; stroke: #000000; stroke-width: 1.5; stroke-linecap: square"/>
   </g>
   <g id="patch_8">
    <path d="M 214.690828 135.812 
L 214.690828 36.384 
" style="fill: none; stroke: #000000; stroke-width: 0.8; stroke-linejoin: miter; stroke-linecap: square"/>
   </g>
   <g id="patch_9">
    <path d="M 322.09586 135.812 
L 322.09586 36.384 
" style="fill: none; stroke: #000000; stroke-width: 0.8; stroke-linejoin: miter; stroke-linecap: square"/>
   </g>
   <g id="patch_10">
    <path d="M 214.690828 135.812 
L 322.09586 135.812 
" style="fill: none; stroke: #000000; stroke-width: 0.8; stroke-linejoin: miter; stroke-linecap: square"/>
   </g>
   <g id="patch_11">
    <path d="M 214.690828 36.384 
L 322.09586 36.384 
" style="fill: none; stroke: #000000; stroke-width: 0.8; stroke-linejoin: miter; stroke-linecap: square"/>
   </g>
   <g id="text_22">
    <!-- voxel 501 -->
    <g transform="translate(244.129281 19.186188) scale(0.1 -0.1)">
     <use xlink:href="#DejaVuSans-76"/>
     <use xlink:href="#DejaVuSans-6f" x="59.179688"/>
     <use xlink:href="#DejaVuSans-78" x="117.236328"/>
     <use xlink:href="#DejaVuSans-65" x="173.291016"/>
     <use xlink:href="#DejaVuSans-6c" x="234.814453"/>
     <use xlink:href="#DejaVuSans-20" x="262.597656"/>
     <use xlink:href="#DejaVuSans-35" x="294.384766"/>
     <use xlink:href="#DejaVuSans-30" x="358.007812"/>
     <use xlink:href="#DejaVuSans-31" x="421.630859"/>
    </g>
    <!--   cumsum = 1195.40 -->
    <g transform="translate(215.738656 30.384) scale(0.1 -0.1)">
     <defs>
      <path id="DejaVuSans-39" d="M 703 97 
L 703 672 
Q 941 559 1184 500 
Q 1428 441 1663 441 
Q 2288 441 2617 861 
Q 2947 1281 2994 2138 
Q 2813 1869 2534 1725 
Q 2256 1581 1919 1581 
Q 1219 1581 811 2004 
Q 403 2428 403 3163 
Q 403 3881 828 4315 
Q 1253 4750 1959 4750 
Q 2769 4750 3195 4129 
Q 3622 3509 3622 2328 
Q 3622 1225 3098 567 
Q 2575 -91 1691 -91 
Q 1453 -91 1209 -44 
Q 966 3 703 97 
z
M 1959 2075 
Q 2384 2075 2632 2365 
Q 2881 2656 2881 3163 
Q 2881 3666 2632 3958 
Q 2384 4250 1959 4250 
Q 1534 4250 1286 3958 
Q 1038 3666 1038 3163 
Q 1038 2656 1286 2365 
Q 1534 2075 1959 2075 
z
" transform="scale(0.015625)"/>
      <path id="DejaVuSans-34" d="M 2419 4116 
L 825 1625 
L 2419 1625 
L 2419 4116 
z
M 2253 4666 
L 3047 4666 
L 3047 1625 
L 3713 1625 
L 3713 1100 
L 3047 1100 
L 3047 0 
L 2419 0 
L 2419 1100 
L 313 1100 
L 313 1709 
L 2253 4666 
z
" transform="scale(0.015625)"/>
     </defs>
     <use xlink:href="#DejaVuSans-20"/>
     <use xlink:href="#DejaVuSans-20" x="31.787109"/>
     <use xlink:href="#DejaVuSans-63" x="63.574219"/>
     <use xlink:href="#DejaVuSans-75" x="118.554688"/>
     <use xlink:href="#DejaVuSans-6d" x="181.933594"/>
     <use xlink:href="#DejaVuSans-73" x="279.345703"/>
     <use xlink:href="#DejaVuSans-75" x="331.445312"/>
     <use xlink:href="#DejaVuSans-6d" x="394.824219"/>
     <use xlink:href="#DejaVuSans-20" x="492.236328"/>
     <use xlink:href="#DejaVuSans-3d" x="524.023438"/>
     <use xlink:href="#DejaVuSans-20" x="607.8125"/>
     <use xlink:href="#DejaVuSans-31" x="639.599609"/>
     <use xlink:href="#DejaVuSans-31" x="703.222656"/>
     <use xlink:href="#DejaVuSans-39" x="766.845703"/>
     <use xlink:href="#DejaVuSans-35" x="830.46875"/>
     <use xlink:href="#DejaVuSans-2e" x="894.091797"/>
     <use xlink:href="#DejaVuSans-34" x="925.878906"/>
     <use xlink:href="#DejaVuSans-30" x="989.501953"/>
    </g>
   </g>
  </g>
  <g id="axes_3">
   <g id="patch_12">
    <path d="M 378.511656 135.812 
L 485.916688 135.812 
L 485.916688 36.384 
L 378.511656 36.384 
z
" style="fill: #ffffff"/>
   </g>
   <g id="matplotlib.axis_5">
    <g id="xtick_7">
     <g id="line2d_35">
      <path d="M 383.393703 135.812 
L 383.393703 36.384 
" clip-path="url(#p19a7dde950)" style="fill: none; stroke: #b0b0b0; stroke-opacity: 0.5; stroke-width: 0.8; stroke-linecap: square"/>
     </g>
     <g id="line2d_36">
      <g>
       <use xlink:href="#m662bc0dc96" x="383.393703" y="135.812" style="stroke: #000000; stroke-width: 0.8"/>
      </g>
     </g>
     <g id="text_23">
      <!-- 0 -->
      <g transform="translate(380.212453 150.410438) scale(0.1 -0.1)">
       <use xlink:href="#DejaVuSans-30"/>
      </g>
     </g>
    </g>
    <g id="xtick_8">
     <g id="line2d_37">
      <path d="M 432.707308 135.812 
L 432.707308 36.384 
" clip-path="url(#p19a7dde950)" style="fill: none; stroke: #b0b0b0; stroke-opacity: 0.5; stroke-width: 0.8; stroke-linecap: square"/>
     </g>
     <g id="line2d_38">
      <g>
       <use xlink:href="#m662bc0dc96" x="432.707308" y="135.812" style="stroke: #000000; stroke-width: 0.8"/>
      </g>
     </g>
     <g id="text_24">
      <!-- 50 -->
      <g transform="translate(426.344808 150.410438) scale(0.1 -0.1)">
       <use xlink:href="#DejaVuSans-35"/>
       <use xlink:href="#DejaVuSans-30" x="63.623047"/>
      </g>
     </g>
    </g>
    <g id="xtick_9">
     <g id="line2d_39">
      <path d="M 482.020913 135.812 
L 482.020913 36.384 
" clip-path="url(#p19a7dde950)" style="fill: none; stroke: #b0b0b0; stroke-opacity: 0.5; stroke-width: 0.8; stroke-linecap: square"/>
     </g>
     <g id="line2d_40">
      <g>
       <use xlink:href="#m662bc0dc96" x="482.020913" y="135.812" style="stroke: #000000; stroke-width: 0.8"/>
      </g>
     </g>
     <g id="text_25">
      <!-- 100 -->
      <g transform="translate(472.477163 150.410438) scale(0.1 -0.1)">
       <use xlink:href="#DejaVuSans-31"/>
       <use xlink:href="#DejaVuSans-30" x="63.623047"/>
       <use xlink:href="#DejaVuSans-30" x="127.246094"/>
      </g>
     </g>
    </g>
    <g id="text_26">
     <!-- bin number -->
     <g transform="translate(403.379016 164.088563) scale(0.1 -0.1)">
      <use xlink:href="#DejaVuSans-62"/>
      <use xlink:href="#DejaVuSans-69" x="63.476562"/>
      <use xlink:href="#DejaVuSans-6e" x="91.259766"/>
      <use xlink:href="#DejaVuSans-20" x="154.638672"/>
      <use xlink:href="#DejaVuSans-6e" x="186.425781"/>
      <use xlink:href="#DejaVuSans-75" x="249.804688"/>
      <use xlink:href="#DejaVuSans-6d" x="313.183594"/>
      <use xlink:href="#DejaVuSans-62" x="410.595703"/>
      <use xlink:href="#DejaVuSans-65" x="474.072266"/>
      <use xlink:href="#DejaVuSans-72" x="535.595703"/>
     </g>
    </g>
   </g>
   <g id="matplotlib.axis_6">
    <g id="ytick_11">
     <g id="line2d_41">
      <path d="M 378.511656 135.812 
L 485.916688 135.812 
" clip-path="url(#p19a7dde950)" style="fill: none; stroke: #b0b0b0; stroke-opacity: 0.5; stroke-width: 0.8; stroke-linecap: square"/>
     </g>
     <g id="line2d_42">
      <g>
       <use xlink:href="#ma3eab62c23" x="378.511656" y="135.812" style="stroke: #000000; stroke-width: 0.8"/>
      </g>
     </g>
     <g id="text_27">
      <!-- 0 -->
      <g transform="translate(365.149156 139.611219) scale(0.1 -0.1)">
       <use xlink:href="#DejaVuSans-30"/>
      </g>
     </g>
    </g>
    <g id="ytick_12">
     <g id="line2d_43">
      <path d="M 378.511656 110.955 
L 485.916688 110.955 
" clip-path="url(#p19a7dde950)" style="fill: none; stroke: #b0b0b0; stroke-opacity: 0.5; stroke-width: 0.8; stroke-linecap: square"/>
     </g>
     <g id="line2d_44">
      <g>
       <use xlink:href="#ma3eab62c23" x="378.511656" y="110.955" style="stroke: #000000; stroke-width: 0.8"/>
      </g>
     </g>
     <g id="text_28">
      <!-- 25 -->
      <g transform="translate(358.786656 114.754219) scale(0.1 -0.1)">
       <use xlink:href="#DejaVuSans-32"/>
       <use xlink:href="#DejaVuSans-35" x="63.623047"/>
      </g>
     </g>
    </g>
    <g id="ytick_13">
     <g id="line2d_45">
      <path d="M 378.511656 86.098 
L 485.916688 86.098 
" clip-path="url(#p19a7dde950)" style="fill: none; stroke: #b0b0b0; stroke-opacity: 0.5; stroke-width: 0.8; stroke-linecap: square"/>
     </g>
     <g id="line2d_46">
      <g>
       <use xlink:href="#ma3eab62c23" x="378.511656" y="86.098" style="stroke: #000000; stroke-width: 0.8"/>
      </g>
     </g>
     <g id="text_29">
      <!-- 50 -->
      <g transform="translate(358.786656 89.897219) scale(0.1 -0.1)">
       <use xlink:href="#DejaVuSans-35"/>
       <use xlink:href="#DejaVuSans-30" x="63.623047"/>
      </g>
     </g>
    </g>
    <g id="ytick_14">
     <g id="line2d_47">
      <path d="M 378.511656 61.241 
L 485.916688 61.241 
" clip-path="url(#p19a7dde950)" style="fill: none; stroke: #b0b0b0; stroke-opacity: 0.5; stroke-width: 0.8; stroke-linecap: square"/>
     </g>
     <g id="line2d_48">
      <g>
       <use xlink:href="#ma3eab62c23" x="378.511656" y="61.241" style="stroke: #000000; stroke-width: 0.8"/>
      </g>
     </g>
     <g id="text_30">
      <!-- 75 -->
      <g transform="translate(358.786656 65.040219) scale(0.1 -0.1)">
       <use xlink:href="#DejaVuSans-37"/>
       <use xlink:href="#DejaVuSans-35" x="63.623047"/>
      </g>
     </g>
    </g>
    <g id="ytick_15">
     <g id="line2d_49">
      <path d="M 378.511656 36.384 
L 485.916688 36.384 
" clip-path="url(#p19a7dde950)" style="fill: none; stroke: #b0b0b0; stroke-opacity: 0.5; stroke-width: 0.8; stroke-linecap: square"/>
     </g>
     <g id="line2d_50">
      <g>
       <use xlink:href="#ma3eab62c23" x="378.511656" y="36.384" style="stroke: #000000; stroke-width: 0.8"/>
      </g>
     </g>
     <g id="text_31">
      <!-- 100 -->
      <g transform="translate(352.424156 40.183219) scale(0.1 -0.1)">
       <use xlink:href="#DejaVuSans-31"/>
       <use xlink:href="#DejaVuSans-30" x="63.623047"/>
       <use xlink:href="#DejaVuSans-30" x="127.246094"/>
      </g>
     </g>
    </g>
    <g id="text_32">
     <!-- sum of each bin [-] -->
     <g transform="translate(346.344469 133.413625) rotate(-90) scale(0.1 -0.1)">
      <use xlink:href="#DejaVuSans-73"/>
      <use xlink:href="#DejaVuSans-75" x="52.099609"/>
      <use xlink:href="#DejaVuSans-6d" x="115.478516"/>
      <use xlink:href="#DejaVuSans-20" x="212.890625"/>
      <use xlink:href="#DejaVuSans-6f" x="244.677734"/>
      <use xlink:href="#DejaVuSans-66" x="305.859375"/>
      <use xlink:href="#DejaVuSans-20" x="341.064453"/>
      <use xlink:href="#DejaVuSans-65" x="372.851562"/>
      <use xlink:href="#DejaVuSans-61" x="434.375"/>
      <use xlink:href="#DejaVuSans-63" x="495.654297"/>
      <use xlink:href="#DejaVuSans-68" x="550.634766"/>
      <use xlink:href="#DejaVuSans-20" x="614.013672"/>
      <use xlink:href="#DejaVuSans-62" x="645.800781"/>
      <use xlink:href="#DejaVuSans-69" x="709.277344"/>
      <use xlink:href="#DejaVuSans-6e" x="737.060547"/>
      <use xlink:href="#DejaVuSans-20" x="800.439453"/>
      <use xlink:href="#DejaVuSans-5b" x="832.226562"/>
      <use xlink:href="#DejaVuSans-2d" x="871.240234"/>
      <use xlink:href="#DejaVuSans-5d" x="907.324219"/>
     </g>
    </g>
   </g>
   <g id="line2d_51">
    <path d="M 383.393703 135.812 
L 384.379975 135.812 
L 385.366247 135.812 
L 386.352519 135.812 
L 387.338791 135.812 
L 388.325063 135.812 
L 389.311336 135.812 
L 390.297608 135.812 
L 391.28388 135.812 
L 392.270152 135.812 
L 393.256424 135.812 
L 394.242696 135.812 
L 395.228968 135.812 
L 396.21524 135.812 
L 397.201512 135.812 
L 398.187784 135.812 
L 399.174057 135.812 
L 400.160329 135.812 
L 401.146601 135.812 
L 402.132873 135.812 
L 403.119145 135.812 
L 404.105417 135.812 
L 405.091689 135.812 
L 406.077961 135.812 
L 407.064233 135.812 
L 408.050505 135.812 
L 409.036778 135.812 
L 410.02305 135.812 
L 411.009322 135.812 
L 411.995594 135.812 
L 412.981866 135.812 
L 413.968138 135.812 
L 414.95441 135.812 
L 415.940682 135.812 
L 416.926954 135.812 
L 417.913227 135.812 
L 418.899499 135.812 
L 419.885771 135.812 
L 420.872043 135.812 
L 421.858315 135.812 
L 422.844587 135.812 
L 423.830859 135.812 
L 424.817131 135.812 
L 425.803403 135.812 
L 426.789675 135.812 
L 427.775948 135.812 
L 428.76222 135.812 
L 429.748492 135.812 
L 430.734764 135.812 
L 431.721036 135.812 
L 432.707308 135.812 
L 433.69358 135.812 
L 434.679852 135.812 
L 435.666124 135.812 
L 436.652396 135.812 
L 437.638669 135.812 
L 438.624941 135.812 
L 439.611213 135.812 
L 440.597485 135.812 
L 441.583757 131.673647 
L 442.570029 131.673647 
L 443.556301 131.673647 
L 444.542573 131.673647 
L 445.528845 131.673647 
L 446.515117 127.535293 
L 447.50139 131.205154 
L 448.487662 131.205154 
L 449.473934 131.205154 
L 450.460206 134.875014 
L 451.446478 125.739404 
L 452.43275 122.538036 
L 453.419022 115.666808 
L 454.405294 104.657226 
L 455.391566 90.914769 
L 456.377838 80.37368 
L 457.364111 82.247651 
L 458.350383 76.313408 
L 459.336655 63.039444 
L 460.322927 71.784644 
L 461.309199 69.520262 
L 462.295471 87.010662 
L 463.281743 108.639415 
L 464.268015 104.969554 
L 465.254287 105.438047 
L 466.240559 105.90654 
L 467.226832 114.65174 
L 468.213104 127.0668 
L 469.199376 127.535293 
L 470.185648 131.673647 
L 471.17192 135.812 
L 472.158192 135.812 
L 473.144464 135.812 
L 474.130736 135.812 
L 475.117008 135.812 
L 476.10328 135.812 
L 477.089553 135.812 
L 478.075825 135.812 
L 479.062097 135.812 
L 480.048369 135.812 
L 481.034641 135.812 
" clip-path="url(#p19a7dde950)" style="fill: none; stroke: #000000; stroke-width: 1.5; stroke-linecap: square"/>
   </g>
   <g id="patch_13">
    <path d="M 378.511656 135.812 
L 378.511656 36.384 
" style="fill: none; stroke: #000000; stroke-width: 0.8; stroke-linejoin: miter; stroke-linecap: square"/>
   </g>
   <g id="patch_14">
    <path d="M 485.916688 135.812 
L 485.916688 36.384 
" style="fill: none; stroke: #000000; stroke-width: 0.8; stroke-linejoin: miter; stroke-linecap: square"/>
   </g>
   <g id="patch_15">
    <path d="M 378.511656 135.812 
L 485.916688 135.812 
" style="fill: none; stroke: #000000; stroke-width: 0.8; stroke-linejoin: miter; stroke-linecap: square"/>
   </g>
   <g id="patch_16">
    <path d="M 378.511656 36.384 
L 485.916688 36.384 
" style="fill: none; stroke: #000000; stroke-width: 0.8; stroke-linejoin: miter; stroke-linecap: square"/>
   </g>
   <g id="text_33">
    <!-- voxel 2103 -->
    <g transform="translate(404.768859 19.186188) scale(0.1 -0.1)">
     <defs>
      <path id="DejaVuSans-33" d="M 2597 2516 
Q 3050 2419 3304 2112 
Q 3559 1806 3559 1356 
Q 3559 666 3084 287 
Q 2609 -91 1734 -91 
Q 1441 -91 1130 -33 
Q 819 25 488 141 
L 488 750 
Q 750 597 1062 519 
Q 1375 441 1716 441 
Q 2309 441 2620 675 
Q 2931 909 2931 1356 
Q 2931 1769 2642 2001 
Q 2353 2234 1838 2234 
L 1294 2234 
L 1294 2753 
L 1863 2753 
Q 2328 2753 2575 2939 
Q 2822 3125 2822 3475 
Q 2822 3834 2567 4026 
Q 2313 4219 1838 4219 
Q 1578 4219 1281 4162 
Q 984 4106 628 3988 
L 628 4550 
Q 988 4650 1302 4700 
Q 1616 4750 1894 4750 
Q 2613 4750 3031 4423 
Q 3450 4097 3450 3541 
Q 3450 3153 3228 2886 
Q 3006 2619 2597 2516 
z
" transform="scale(0.015625)"/>
     </defs>
     <use xlink:href="#DejaVuSans-76"/>
     <use xlink:href="#DejaVuSans-6f" x="59.179688"/>
     <use xlink:href="#DejaVuSans-78" x="117.236328"/>
     <use xlink:href="#DejaVuSans-65" x="173.291016"/>
     <use xlink:href="#DejaVuSans-6c" x="234.814453"/>
     <use xlink:href="#DejaVuSans-20" x="262.597656"/>
     <use xlink:href="#DejaVuSans-32" x="294.384766"/>
     <use xlink:href="#DejaVuSans-31" x="358.007812"/>
     <use xlink:href="#DejaVuSans-30" x="421.630859"/>
     <use xlink:href="#DejaVuSans-33" x="485.253906"/>
    </g>
    <!--   cumsum = 748.56 -->
    <g transform="translate(382.740734 30.384) scale(0.1 -0.1)">
     <defs>
      <path id="DejaVuSans-38" d="M 2034 2216 
Q 1584 2216 1326 1975 
Q 1069 1734 1069 1313 
Q 1069 891 1326 650 
Q 1584 409 2034 409 
Q 2484 409 2743 651 
Q 3003 894 3003 1313 
Q 3003 1734 2745 1975 
Q 2488 2216 2034 2216 
z
M 1403 2484 
Q 997 2584 770 2862 
Q 544 3141 544 3541 
Q 544 4100 942 4425 
Q 1341 4750 2034 4750 
Q 2731 4750 3128 4425 
Q 3525 4100 3525 3541 
Q 3525 3141 3298 2862 
Q 3072 2584 2669 2484 
Q 3125 2378 3379 2068 
Q 3634 1759 3634 1313 
Q 3634 634 3220 271 
Q 2806 -91 2034 -91 
Q 1263 -91 848 271 
Q 434 634 434 1313 
Q 434 1759 690 2068 
Q 947 2378 1403 2484 
z
M 1172 3481 
Q 1172 3119 1398 2916 
Q 1625 2713 2034 2713 
Q 2441 2713 2670 2916 
Q 2900 3119 2900 3481 
Q 2900 3844 2670 4047 
Q 2441 4250 2034 4250 
Q 1625 4250 1398 4047 
Q 1172 3844 1172 3481 
z
" transform="scale(0.015625)"/>
      <path id="DejaVuSans-36" d="M 2113 2584 
Q 1688 2584 1439 2293 
Q 1191 2003 1191 1497 
Q 1191 994 1439 701 
Q 1688 409 2113 409 
Q 2538 409 2786 701 
Q 3034 994 3034 1497 
Q 3034 2003 2786 2293 
Q 2538 2584 2113 2584 
z
M 3366 4563 
L 3366 3988 
Q 3128 4100 2886 4159 
Q 2644 4219 2406 4219 
Q 1781 4219 1451 3797 
Q 1122 3375 1075 2522 
Q 1259 2794 1537 2939 
Q 1816 3084 2150 3084 
Q 2853 3084 3261 2657 
Q 3669 2231 3669 1497 
Q 3669 778 3244 343 
Q 2819 -91 2113 -91 
Q 1303 -91 875 529 
Q 447 1150 447 2328 
Q 447 3434 972 4092 
Q 1497 4750 2381 4750 
Q 2619 4750 2861 4703 
Q 3103 4656 3366 4563 
z
" transform="scale(0.015625)"/>
     </defs>
     <use xlink:href="#DejaVuSans-20"/>
     <use xlink:href="#DejaVuSans-20" x="31.787109"/>
     <use xlink:href="#DejaVuSans-63" x="63.574219"/>
     <use xlink:href="#DejaVuSans-75" x="118.554688"/>
     <use xlink:href="#DejaVuSans-6d" x="181.933594"/>
     <use xlink:href="#DejaVuSans-73" x="279.345703"/>
     <use xlink:href="#DejaVuSans-75" x="331.445312"/>
     <use xlink:href="#DejaVuSans-6d" x="394.824219"/>
     <use xlink:href="#DejaVuSans-20" x="492.236328"/>
     <use xlink:href="#DejaVuSans-3d" x="524.023438"/>
     <use xlink:href="#DejaVuSans-20" x="607.8125"/>
     <use xlink:href="#DejaVuSans-37" x="639.599609"/>
     <use xlink:href="#DejaVuSans-34" x="703.222656"/>
     <use xlink:href="#DejaVuSans-38" x="766.845703"/>
     <use xlink:href="#DejaVuSans-2e" x="830.46875"/>
     <use xlink:href="#DejaVuSans-35" x="862.255859"/>
     <use xlink:href="#DejaVuSans-36" x="925.878906"/>
    </g>
   </g>
  </g>
  <g id="axes_4">
   <g id="patch_17">
    <path d="M 542.332484 135.812 
L 649.737516 135.812 
L 649.737516 36.384 
L 542.332484 36.384 
z
" style="fill: #ffffff"/>
   </g>
   <g id="matplotlib.axis_7">
    <g id="xtick_10">
     <g id="line2d_52">
      <path d="M 547.214531 135.812 
L 547.214531 36.384 
" clip-path="url(#pa721d48ac5)" style="fill: none; stroke: #b0b0b0; stroke-opacity: 0.5; stroke-width: 0.8; stroke-linecap: square"/>
     </g>
     <g id="line2d_53">
      <g>
       <use xlink:href="#m662bc0dc96" x="547.214531" y="135.812" style="stroke: #000000; stroke-width: 0.8"/>
      </g>
     </g>
     <g id="text_34">
      <!-- 0 -->
      <g transform="translate(544.033281 150.410438) scale(0.1 -0.1)">
       <use xlink:href="#DejaVuSans-30"/>
      </g>
     </g>
    </g>
    <g id="xtick_11">
     <g id="line2d_54">
      <path d="M 596.528136 135.812 
L 596.528136 36.384 
" clip-path="url(#pa721d48ac5)" style="fill: none; stroke: #b0b0b0; stroke-opacity: 0.5; stroke-width: 0.8; stroke-linecap: square"/>
     </g>
     <g id="line2d_55">
      <g>
       <use xlink:href="#m662bc0dc96" x="596.528136" y="135.812" style="stroke: #000000; stroke-width: 0.8"/>
      </g>
     </g>
     <g id="text_35">
      <!-- 50 -->
      <g transform="translate(590.165636 150.410438) scale(0.1 -0.1)">
       <use xlink:href="#DejaVuSans-35"/>
       <use xlink:href="#DejaVuSans-30" x="63.623047"/>
      </g>
     </g>
    </g>
    <g id="xtick_12">
     <g id="line2d_56">
      <path d="M 645.841741 135.812 
L 645.841741 36.384 
" clip-path="url(#pa721d48ac5)" style="fill: none; stroke: #b0b0b0; stroke-opacity: 0.5; stroke-width: 0.8; stroke-linecap: square"/>
     </g>
     <g id="line2d_57">
      <g>
       <use xlink:href="#m662bc0dc96" x="645.841741" y="135.812" style="stroke: #000000; stroke-width: 0.8"/>
      </g>
     </g>
     <g id="text_36">
      <!-- 100 -->
      <g transform="translate(636.297991 150.410438) scale(0.1 -0.1)">
       <use xlink:href="#DejaVuSans-31"/>
       <use xlink:href="#DejaVuSans-30" x="63.623047"/>
       <use xlink:href="#DejaVuSans-30" x="127.246094"/>
      </g>
     </g>
    </g>
    <g id="text_37">
     <!-- bin number -->
     <g transform="translate(567.199844 164.088563) scale(0.1 -0.1)">
      <use xlink:href="#DejaVuSans-62"/>
      <use xlink:href="#DejaVuSans-69" x="63.476562"/>
      <use xlink:href="#DejaVuSans-6e" x="91.259766"/>
      <use xlink:href="#DejaVuSans-20" x="154.638672"/>
      <use xlink:href="#DejaVuSans-6e" x="186.425781"/>
      <use xlink:href="#DejaVuSans-75" x="249.804688"/>
      <use xlink:href="#DejaVuSans-6d" x="313.183594"/>
      <use xlink:href="#DejaVuSans-62" x="410.595703"/>
      <use xlink:href="#DejaVuSans-65" x="474.072266"/>
      <use xlink:href="#DejaVuSans-72" x="535.595703"/>
     </g>
    </g>
   </g>
   <g id="matplotlib.axis_8">
    <g id="ytick_16">
     <g id="line2d_58">
      <path d="M 542.332484 135.812 
L 649.737516 135.812 
" clip-path="url(#pa721d48ac5)" style="fill: none; stroke: #b0b0b0; stroke-opacity: 0.5; stroke-width: 0.8; stroke-linecap: square"/>
     </g>
     <g id="line2d_59">
      <g>
       <use xlink:href="#ma3eab62c23" x="542.332484" y="135.812" style="stroke: #000000; stroke-width: 0.8"/>
      </g>
     </g>
     <g id="text_38">
      <!-- 0 -->
      <g transform="translate(528.969984 139.611219) scale(0.1 -0.1)">
       <use xlink:href="#DejaVuSans-30"/>
      </g>
     </g>
    </g>
    <g id="ytick_17">
     <g id="line2d_60">
      <path d="M 542.332484 110.955 
L 649.737516 110.955 
" clip-path="url(#pa721d48ac5)" style="fill: none; stroke: #b0b0b0; stroke-opacity: 0.5; stroke-width: 0.8; stroke-linecap: square"/>
     </g>
     <g id="line2d_61">
      <g>
       <use xlink:href="#ma3eab62c23" x="542.332484" y="110.955" style="stroke: #000000; stroke-width: 0.8"/>
      </g>
     </g>
     <g id="text_39">
      <!-- 25 -->
      <g transform="translate(522.607484 114.754219) scale(0.1 -0.1)">
       <use xlink:href="#DejaVuSans-32"/>
       <use xlink:href="#DejaVuSans-35" x="63.623047"/>
      </g>
     </g>
    </g>
    <g id="ytick_18">
     <g id="line2d_62">
      <path d="M 542.332484 86.098 
L 649.737516 86.098 
" clip-path="url(#pa721d48ac5)" style="fill: none; stroke: #b0b0b0; stroke-opacity: 0.5; stroke-width: 0.8; stroke-linecap: square"/>
     </g>
     <g id="line2d_63">
      <g>
       <use xlink:href="#ma3eab62c23" x="542.332484" y="86.098" style="stroke: #000000; stroke-width: 0.8"/>
      </g>
     </g>
     <g id="text_40">
      <!-- 50 -->
      <g transform="translate(522.607484 89.897219) scale(0.1 -0.1)">
       <use xlink:href="#DejaVuSans-35"/>
       <use xlink:href="#DejaVuSans-30" x="63.623047"/>
      </g>
     </g>
    </g>
    <g id="ytick_19">
     <g id="line2d_64">
      <path d="M 542.332484 61.241 
L 649.737516 61.241 
" clip-path="url(#pa721d48ac5)" style="fill: none; stroke: #b0b0b0; stroke-opacity: 0.5; stroke-width: 0.8; stroke-linecap: square"/>
     </g>
     <g id="line2d_65">
      <g>
       <use xlink:href="#ma3eab62c23" x="542.332484" y="61.241" style="stroke: #000000; stroke-width: 0.8"/>
      </g>
     </g>
     <g id="text_41">
      <!-- 75 -->
      <g transform="translate(522.607484 65.040219) scale(0.1 -0.1)">
       <use xlink:href="#DejaVuSans-37"/>
       <use xlink:href="#DejaVuSans-35" x="63.623047"/>
      </g>
     </g>
    </g>
    <g id="ytick_20">
     <g id="line2d_66">
      <path d="M 542.332484 36.384 
L 649.737516 36.384 
" clip-path="url(#pa721d48ac5)" style="fill: none; stroke: #b0b0b0; stroke-opacity: 0.5; stroke-width: 0.8; stroke-linecap: square"/>
     </g>
     <g id="line2d_67">
      <g>
       <use xlink:href="#ma3eab62c23" x="542.332484" y="36.384" style="stroke: #000000; stroke-width: 0.8"/>
      </g>
     </g>
     <g id="text_42">
      <!-- 100 -->
      <g transform="translate(516.244984 40.183219) scale(0.1 -0.1)">
       <use xlink:href="#DejaVuSans-31"/>
       <use xlink:href="#DejaVuSans-30" x="63.623047"/>
       <use xlink:href="#DejaVuSans-30" x="127.246094"/>
      </g>
     </g>
    </g>
    <g id="text_43">
     <!-- sum of each bin [-] -->
     <g transform="translate(510.165297 133.413625) rotate(-90) scale(0.1 -0.1)">
      <use xlink:href="#DejaVuSans-73"/>
      <use xlink:href="#DejaVuSans-75" x="52.099609"/>
      <use xlink:href="#DejaVuSans-6d" x="115.478516"/>
      <use xlink:href="#DejaVuSans-20" x="212.890625"/>
      <use xlink:href="#DejaVuSans-6f" x="244.677734"/>
      <use xlink:href="#DejaVuSans-66" x="305.859375"/>
      <use xlink:href="#DejaVuSans-20" x="341.064453"/>
      <use xlink:href="#DejaVuSans-65" x="372.851562"/>
      <use xlink:href="#DejaVuSans-61" x="434.375"/>
      <use xlink:href="#DejaVuSans-63" x="495.654297"/>
      <use xlink:href="#DejaVuSans-68" x="550.634766"/>
      <use xlink:href="#DejaVuSans-20" x="614.013672"/>
      <use xlink:href="#DejaVuSans-62" x="645.800781"/>
      <use xlink:href="#DejaVuSans-69" x="709.277344"/>
      <use xlink:href="#DejaVuSans-6e" x="737.060547"/>
      <use xlink:href="#DejaVuSans-20" x="800.439453"/>
      <use xlink:href="#DejaVuSans-5b" x="832.226562"/>
      <use xlink:href="#DejaVuSans-2d" x="871.240234"/>
      <use xlink:href="#DejaVuSans-5d" x="907.324219"/>
     </g>
    </g>
   </g>
   <g id="line2d_68">
    <path d="M 547.214531 135.812 
L 548.200803 135.812 
L 549.187075 135.812 
L 550.173347 135.812 
L 551.159619 135.812 
L 552.145891 135.812 
L 553.132164 135.812 
L 554.118436 135.812 
L 555.104708 135.812 
L 556.09098 135.812 
L 557.077252 135.812 
L 558.063524 135.812 
L 559.049796 135.812 
L 560.036068 135.812 
L 561.02234 135.812 
L 562.008613 135.812 
L 562.994885 135.812 
L 563.981157 135.812 
L 564.967429 135.812 
L 565.953701 135.812 
L 566.939973 135.812 
L 567.926245 135.812 
L 568.912517 135.812 
L 569.898789 135.812 
L 570.885061 135.812 
L 571.871334 135.812 
L 572.857606 135.812 
L 573.843878 135.812 
L 574.83015 135.812 
L 575.816422 135.812 
L 576.802694 135.812 
L 577.788966 135.812 
L 578.775238 135.812 
L 579.76151 135.812 
L 580.747782 135.812 
L 581.734055 135.812 
L 582.720327 135.812 
L 583.706599 135.812 
L 584.692871 135.812 
L 585.679143 135.812 
L 586.665415 135.812 
L 587.651687 135.812 
L 588.637959 135.812 
L 589.624231 135.812 
L 590.610503 135.812 
L 591.596776 135.812 
L 592.583048 135.812 
L 593.56932 135.812 
L 594.555592 135.812 
L 595.541864 135.812 
L 596.528136 135.812 
L 597.514408 135.812 
L 598.50068 135.812 
L 599.486952 135.812 
L 600.473224 135.812 
L 601.459497 135.812 
L 602.445769 135.812 
L 603.432041 135.812 
L 604.418313 135.812 
L 605.404585 132.142139 
L 606.390857 132.142139 
L 607.377129 132.142139 
L 608.363401 128.472279 
L 609.349673 124.802418 
L 610.335945 124.802418 
L 611.322218 124.802418 
L 612.30849 121.132557 
L 613.294762 113.792836 
L 614.281034 118.868175 
L 615.267306 118.868175 
L 616.253578 107.858593 
L 617.23985 104.657226 
L 618.226122 109.732565 
L 619.212394 92.320247 
L 620.198666 75.844915 
L 621.184939 68.973687 
L 622.171211 78.18738 
L 623.157483 91.539426 
L 624.143755 92.944904 
L 625.130027 85.605183 
L 626.116299 103.095583 
L 627.102571 108.170922 
L 628.088843 108.639415 
L 629.075115 121.991461 
L 630.061387 118.790093 
L 631.04766 127.0668 
L 632.033932 135.343507 
L 633.020204 135.343507 
L 634.006476 131.673647 
L 634.992748 135.812 
L 635.97902 135.812 
L 636.965292 135.812 
L 637.951564 135.812 
L 638.937836 135.812 
L 639.924109 135.812 
L 640.910381 135.812 
L 641.896653 135.812 
L 642.882925 135.812 
L 643.869197 135.812 
L 644.855469 135.812 
" clip-path="url(#pa721d48ac5)" style="fill: none; stroke: #000000; stroke-width: 1.5; stroke-linecap: square"/>
   </g>
   <g id="patch_18">
    <path d="M 542.332484 135.812 
L 542.332484 36.384 
" style="fill: none; stroke: #000000; stroke-width: 0.8; stroke-linejoin: miter; stroke-linecap: square"/>
   </g>
   <g id="patch_19">
    <path d="M 649.737516 135.812 
L 649.737516 36.384 
" style="fill: none; stroke: #000000; stroke-width: 0.8; stroke-linejoin: miter; stroke-linecap: square"/>
   </g>
   <g id="patch_20">
    <path d="M 542.332484 135.812 
L 649.737516 135.812 
" style="fill: none; stroke: #000000; stroke-width: 0.8; stroke-linejoin: miter; stroke-linecap: square"/>
   </g>
   <g id="patch_21">
    <path d="M 542.332484 36.384 
L 649.737516 36.384 
" style="fill: none; stroke: #000000; stroke-width: 0.8; stroke-linejoin: miter; stroke-linecap: square"/>
   </g>
   <g id="text_44">
    <!-- voxel 3035 -->
    <g transform="translate(568.589688 19.186188) scale(0.1 -0.1)">
     <use xlink:href="#DejaVuSans-76"/>
     <use xlink:href="#DejaVuSans-6f" x="59.179688"/>
     <use xlink:href="#DejaVuSans-78" x="117.236328"/>
     <use xlink:href="#DejaVuSans-65" x="173.291016"/>
     <use xlink:href="#DejaVuSans-6c" x="234.814453"/>
     <use xlink:href="#DejaVuSans-20" x="262.597656"/>
     <use xlink:href="#DejaVuSans-33" x="294.384766"/>
     <use xlink:href="#DejaVuSans-30" x="358.007812"/>
     <use xlink:href="#DejaVuSans-33" x="421.630859"/>
     <use xlink:href="#DejaVuSans-35" x="485.253906"/>
    </g>
    <!--   cumsum = 708.67 -->
    <g transform="translate(546.561563 30.384) scale(0.1 -0.1)">
     <use xlink:href="#DejaVuSans-20"/>
     <use xlink:href="#DejaVuSans-20" x="31.787109"/>
     <use xlink:href="#DejaVuSans-63" x="63.574219"/>
     <use xlink:href="#DejaVuSans-75" x="118.554688"/>
     <use xlink:href="#DejaVuSans-6d" x="181.933594"/>
     <use xlink:href="#DejaVuSans-73" x="279.345703"/>
     <use xlink:href="#DejaVuSans-75" x="331.445312"/>
     <use xlink:href="#DejaVuSans-6d" x="394.824219"/>
     <use xlink:href="#DejaVuSans-20" x="492.236328"/>
     <use xlink:href="#DejaVuSans-3d" x="524.023438"/>
     <use xlink:href="#DejaVuSans-20" x="607.8125"/>
     <use xlink:href="#DejaVuSans-37" x="639.599609"/>
     <use xlink:href="#DejaVuSans-30" x="703.222656"/>
     <use xlink:href="#DejaVuSans-38" x="766.845703"/>
     <use xlink:href="#DejaVuSans-2e" x="830.46875"/>
     <use xlink:href="#DejaVuSans-36" x="862.255859"/>
     <use xlink:href="#DejaVuSans-37" x="925.878906"/>
    </g>
   </g>
  </g>
  <g id="axes_5">
   <g id="patch_22">
    <path d="M 706.153312 135.812 
L 813.558344 135.812 
L 813.558344 36.384 
L 706.153312 36.384 
z
" style="fill: #ffffff"/>
   </g>
   <g id="matplotlib.axis_9">
    <g id="xtick_13">
     <g id="line2d_69">
      <path d="M 711.035359 135.812 
L 711.035359 36.384 
" clip-path="url(#p9cb537e0d2)" style="fill: none; stroke: #b0b0b0; stroke-opacity: 0.5; stroke-width: 0.8; stroke-linecap: square"/>
     </g>
     <g id="line2d_70">
      <g>
       <use xlink:href="#m662bc0dc96" x="711.035359" y="135.812" style="stroke: #000000; stroke-width: 0.8"/>
      </g>
     </g>
     <g id="text_45">
      <!-- 0 -->
      <g transform="translate(707.854109 150.410438) scale(0.1 -0.1)">
       <use xlink:href="#DejaVuSans-30"/>
      </g>
     </g>
    </g>
    <g id="xtick_14">
     <g id="line2d_71">
      <path d="M 760.348964 135.812 
L 760.348964 36.384 
" clip-path="url(#p9cb537e0d2)" style="fill: none; stroke: #b0b0b0; stroke-opacity: 0.5; stroke-width: 0.8; stroke-linecap: square"/>
     </g>
     <g id="line2d_72">
      <g>
       <use xlink:href="#m662bc0dc96" x="760.348964" y="135.812" style="stroke: #000000; stroke-width: 0.8"/>
      </g>
     </g>
     <g id="text_46">
      <!-- 50 -->
      <g transform="translate(753.986464 150.410438) scale(0.1 -0.1)">
       <use xlink:href="#DejaVuSans-35"/>
       <use xlink:href="#DejaVuSans-30" x="63.623047"/>
      </g>
     </g>
    </g>
    <g id="xtick_15">
     <g id="line2d_73">
      <path d="M 809.662569 135.812 
L 809.662569 36.384 
" clip-path="url(#p9cb537e0d2)" style="fill: none; stroke: #b0b0b0; stroke-opacity: 0.5; stroke-width: 0.8; stroke-linecap: square"/>
     </g>
     <g id="line2d_74">
      <g>
       <use xlink:href="#m662bc0dc96" x="809.662569" y="135.812" style="stroke: #000000; stroke-width: 0.8"/>
      </g>
     </g>
     <g id="text_47">
      <!-- 100 -->
      <g transform="translate(800.118819 150.410438) scale(0.1 -0.1)">
       <use xlink:href="#DejaVuSans-31"/>
       <use xlink:href="#DejaVuSans-30" x="63.623047"/>
       <use xlink:href="#DejaVuSans-30" x="127.246094"/>
      </g>
     </g>
    </g>
    <g id="text_48">
     <!-- bin number -->
     <g transform="translate(731.020672 164.088563) scale(0.1 -0.1)">
      <use xlink:href="#DejaVuSans-62"/>
      <use xlink:href="#DejaVuSans-69" x="63.476562"/>
      <use xlink:href="#DejaVuSans-6e" x="91.259766"/>
      <use xlink:href="#DejaVuSans-20" x="154.638672"/>
      <use xlink:href="#DejaVuSans-6e" x="186.425781"/>
      <use xlink:href="#DejaVuSans-75" x="249.804688"/>
      <use xlink:href="#DejaVuSans-6d" x="313.183594"/>
      <use xlink:href="#DejaVuSans-62" x="410.595703"/>
      <use xlink:href="#DejaVuSans-65" x="474.072266"/>
      <use xlink:href="#DejaVuSans-72" x="535.595703"/>
     </g>
    </g>
   </g>
   <g id="matplotlib.axis_10">
    <g id="ytick_21">
     <g id="line2d_75">
      <path d="M 706.153312 135.812 
L 813.558344 135.812 
" clip-path="url(#p9cb537e0d2)" style="fill: none; stroke: #b0b0b0; stroke-opacity: 0.5; stroke-width: 0.8; stroke-linecap: square"/>
     </g>
     <g id="line2d_76">
      <g>
       <use xlink:href="#ma3eab62c23" x="706.153312" y="135.812" style="stroke: #000000; stroke-width: 0.8"/>
      </g>
     </g>
     <g id="text_49">
      <!-- 0 -->
      <g transform="translate(692.790812 139.611219) scale(0.1 -0.1)">
       <use xlink:href="#DejaVuSans-30"/>
      </g>
     </g>
    </g>
    <g id="ytick_22">
     <g id="line2d_77">
      <path d="M 706.153312 110.955 
L 813.558344 110.955 
" clip-path="url(#p9cb537e0d2)" style="fill: none; stroke: #b0b0b0; stroke-opacity: 0.5; stroke-width: 0.8; stroke-linecap: square"/>
     </g>
     <g id="line2d_78">
      <g>
       <use xlink:href="#ma3eab62c23" x="706.153312" y="110.955" style="stroke: #000000; stroke-width: 0.8"/>
      </g>
     </g>
     <g id="text_50">
      <!-- 25 -->
      <g transform="translate(686.428312 114.754219) scale(0.1 -0.1)">
       <use xlink:href="#DejaVuSans-32"/>
       <use xlink:href="#DejaVuSans-35" x="63.623047"/>
      </g>
     </g>
    </g>
    <g id="ytick_23">
     <g id="line2d_79">
      <path d="M 706.153312 86.098 
L 813.558344 86.098 
" clip-path="url(#p9cb537e0d2)" style="fill: none; stroke: #b0b0b0; stroke-opacity: 0.5; stroke-width: 0.8; stroke-linecap: square"/>
     </g>
     <g id="line2d_80">
      <g>
       <use xlink:href="#ma3eab62c23" x="706.153312" y="86.098" style="stroke: #000000; stroke-width: 0.8"/>
      </g>
     </g>
     <g id="text_51">
      <!-- 50 -->
      <g transform="translate(686.428312 89.897219) scale(0.1 -0.1)">
       <use xlink:href="#DejaVuSans-35"/>
       <use xlink:href="#DejaVuSans-30" x="63.623047"/>
      </g>
     </g>
    </g>
    <g id="ytick_24">
     <g id="line2d_81">
      <path d="M 706.153312 61.241 
L 813.558344 61.241 
" clip-path="url(#p9cb537e0d2)" style="fill: none; stroke: #b0b0b0; stroke-opacity: 0.5; stroke-width: 0.8; stroke-linecap: square"/>
     </g>
     <g id="line2d_82">
      <g>
       <use xlink:href="#ma3eab62c23" x="706.153312" y="61.241" style="stroke: #000000; stroke-width: 0.8"/>
      </g>
     </g>
     <g id="text_52">
      <!-- 75 -->
      <g transform="translate(686.428312 65.040219) scale(0.1 -0.1)">
       <use xlink:href="#DejaVuSans-37"/>
       <use xlink:href="#DejaVuSans-35" x="63.623047"/>
      </g>
     </g>
    </g>
    <g id="ytick_25">
     <g id="line2d_83">
      <path d="M 706.153312 36.384 
L 813.558344 36.384 
" clip-path="url(#p9cb537e0d2)" style="fill: none; stroke: #b0b0b0; stroke-opacity: 0.5; stroke-width: 0.8; stroke-linecap: square"/>
     </g>
     <g id="line2d_84">
      <g>
       <use xlink:href="#ma3eab62c23" x="706.153312" y="36.384" style="stroke: #000000; stroke-width: 0.8"/>
      </g>
     </g>
     <g id="text_53">
      <!-- 100 -->
      <g transform="translate(680.065812 40.183219) scale(0.1 -0.1)">
       <use xlink:href="#DejaVuSans-31"/>
       <use xlink:href="#DejaVuSans-30" x="63.623047"/>
       <use xlink:href="#DejaVuSans-30" x="127.246094"/>
      </g>
     </g>
    </g>
    <g id="text_54">
     <!-- sum of each bin [-] -->
     <g transform="translate(673.986125 133.413625) rotate(-90) scale(0.1 -0.1)">
      <use xlink:href="#DejaVuSans-73"/>
      <use xlink:href="#DejaVuSans-75" x="52.099609"/>
      <use xlink:href="#DejaVuSans-6d" x="115.478516"/>
      <use xlink:href="#DejaVuSans-20" x="212.890625"/>
      <use xlink:href="#DejaVuSans-6f" x="244.677734"/>
      <use xlink:href="#DejaVuSans-66" x="305.859375"/>
      <use xlink:href="#DejaVuSans-20" x="341.064453"/>
      <use xlink:href="#DejaVuSans-65" x="372.851562"/>
      <use xlink:href="#DejaVuSans-61" x="434.375"/>
      <use xlink:href="#DejaVuSans-63" x="495.654297"/>
      <use xlink:href="#DejaVuSans-68" x="550.634766"/>
      <use xlink:href="#DejaVuSans-20" x="614.013672"/>
      <use xlink:href="#DejaVuSans-62" x="645.800781"/>
      <use xlink:href="#DejaVuSans-69" x="709.277344"/>
      <use xlink:href="#DejaVuSans-6e" x="737.060547"/>
      <use xlink:href="#DejaVuSans-20" x="800.439453"/>
      <use xlink:href="#DejaVuSans-5b" x="832.226562"/>
      <use xlink:href="#DejaVuSans-2d" x="871.240234"/>
      <use xlink:href="#DejaVuSans-5d" x="907.324219"/>
     </g>
    </g>
   </g>
   <g id="line2d_85">
    <path d="M 711.035359 135.812 
L 712.021631 135.812 
L 713.007903 135.812 
L 713.994175 135.812 
L 714.980447 135.812 
L 715.96672 135.812 
L 716.952992 135.812 
L 717.939264 135.812 
L 718.925536 135.812 
L 719.911808 135.812 
L 720.89808 135.812 
L 721.884352 135.812 
L 722.870624 135.812 
L 723.856896 135.812 
L 724.843168 135.812 
L 725.829441 135.812 
L 726.815713 135.812 
L 727.801985 135.812 
L 728.788257 135.812 
L 729.774529 135.812 
L 730.760801 135.812 
L 731.747073 135.812 
L 732.733345 135.812 
L 733.719617 135.812 
L 734.705889 135.812 
L 735.692162 135.812 
L 736.678434 135.812 
L 737.664706 135.812 
L 738.650978 135.812 
L 739.63725 135.812 
L 740.623522 135.812 
L 741.609794 135.812 
L 742.596066 135.812 
L 743.582338 135.812 
L 744.56861 135.812 
L 745.554883 135.812 
L 746.541155 135.812 
L 747.527427 135.812 
L 748.513699 135.812 
L 749.499971 135.812 
L 750.486243 135.812 
L 751.472515 135.812 
L 752.458787 135.812 
L 753.445059 135.812 
L 754.431331 135.812 
L 755.417604 135.812 
L 756.403876 135.812 
L 757.390148 135.812 
L 758.37642 135.812 
L 759.362692 135.812 
L 760.348964 135.812 
L 761.335236 135.812 
L 762.321508 135.812 
L 763.30778 135.812 
L 764.294052 135.812 
L 765.280325 135.812 
L 766.266597 135.812 
L 767.252869 135.812 
L 768.239141 135.812 
L 769.225413 135.812 
L 770.211685 131.673647 
L 771.197957 131.673647 
L 772.184229 131.673647 
L 773.170501 131.673647 
L 774.156773 127.535293 
L 775.143046 131.205154 
L 776.129318 134.875014 
L 777.11559 134.875014 
L 778.101862 130.268168 
L 779.088134 130.268168 
L 780.074406 121.522968 
L 781.060678 104.501061 
L 782.04695 99.425722 
L 783.033222 94.350383 
L 784.019495 89.743537 
L 785.005767 76.859983 
L 785.992039 71.316151 
L 786.978311 72.643548 
L 787.964583 94.194219 
L 788.950855 101.065447 
L 789.937127 99.659969 
L 790.923399 94.116136 
L 791.909671 100.987365 
L 792.895943 111.528454 
L 793.882216 122.538036 
L 794.868488 133.547618 
L 795.85476 133.547618 
L 796.841032 129.409264 
L 797.827304 125.270911 
L 798.813576 125.270911 
L 799.799848 128.940772 
L 800.78612 135.812 
L 801.772392 135.812 
L 802.758664 135.812 
L 803.744937 135.812 
L 804.731209 135.812 
L 805.717481 135.812 
L 806.703753 135.812 
L 807.690025 135.812 
L 808.676297 135.812 
" clip-path="url(#p9cb537e0d2)" style="fill: none; stroke: #000000; stroke-width: 1.5; stroke-linecap: square"/>
   </g>
   <g id="patch_23">
    <path d="M 706.153312 135.812 
L 706.153312 36.384 
" style="fill: none; stroke: #000000; stroke-width: 0.8; stroke-linejoin: miter; stroke-linecap: square"/>
   </g>
   <g id="patch_24">
    <path d="M 813.558344 135.812 
L 813.558344 36.384 
" style="fill: none; stroke: #000000; stroke-width: 0.8; stroke-linejoin: miter; stroke-linecap: square"/>
   </g>
   <g id="patch_25">
    <path d="M 706.153312 135.812 
L 813.558344 135.812 
" style="fill: none; stroke: #000000; stroke-width: 0.8; stroke-linejoin: miter; stroke-linecap: square"/>
   </g>
   <g id="patch_26">
    <path d="M 706.153312 36.384 
L 813.558344 36.384 
" style="fill: none; stroke: #000000; stroke-width: 0.8; stroke-linejoin: miter; stroke-linecap: square"/>
   </g>
   <g id="text_55">
    <!-- voxel 1716 -->
    <g transform="translate(732.410516 19.186188) scale(0.1 -0.1)">
     <use xlink:href="#DejaVuSans-76"/>
     <use xlink:href="#DejaVuSans-6f" x="59.179688"/>
     <use xlink:href="#DejaVuSans-78" x="117.236328"/>
     <use xlink:href="#DejaVuSans-65" x="173.291016"/>
     <use xlink:href="#DejaVuSans-6c" x="234.814453"/>
     <use xlink:href="#DejaVuSans-20" x="262.597656"/>
     <use xlink:href="#DejaVuSans-31" x="294.384766"/>
     <use xlink:href="#DejaVuSans-37" x="358.007812"/>
     <use xlink:href="#DejaVuSans-31" x="421.630859"/>
     <use xlink:href="#DejaVuSans-36" x="485.253906"/>
    </g>
    <!--   cumsum = 667.83 -->
    <g transform="translate(710.382391 30.384) scale(0.1 -0.1)">
     <use xlink:href="#DejaVuSans-20"/>
     <use xlink:href="#DejaVuSans-20" x="31.787109"/>
     <use xlink:href="#DejaVuSans-63" x="63.574219"/>
     <use xlink:href="#DejaVuSans-75" x="118.554688"/>
     <use xlink:href="#DejaVuSans-6d" x="181.933594"/>
     <use xlink:href="#DejaVuSans-73" x="279.345703"/>
     <use xlink:href="#DejaVuSans-75" x="331.445312"/>
     <use xlink:href="#DejaVuSans-6d" x="394.824219"/>
     <use xlink:href="#DejaVuSans-20" x="492.236328"/>
     <use xlink:href="#DejaVuSans-3d" x="524.023438"/>
     <use xlink:href="#DejaVuSans-20" x="607.8125"/>
     <use xlink:href="#DejaVuSans-36" x="639.599609"/>
     <use xlink:href="#DejaVuSans-36" x="703.222656"/>
     <use xlink:href="#DejaVuSans-37" x="766.845703"/>
     <use xlink:href="#DejaVuSans-2e" x="830.46875"/>
     <use xlink:href="#DejaVuSans-38" x="862.255859"/>
     <use xlink:href="#DejaVuSans-33" x="925.878906"/>
    </g>
   </g>
  </g>
 </g>
 <defs>
  <clipPath id="pd48ad2237b">
   <rect x="50.87" y="36.384" width="107.405032" height="99.428"/>
  </clipPath>
  <clipPath id="p68ae15ef62">
   <rect x="214.690828" y="36.384" width="107.405032" height="99.428"/>
  </clipPath>
  <clipPath id="p19a7dde950">
   <rect x="378.511656" y="36.384" width="107.405032" height="99.428"/>
  </clipPath>
  <clipPath id="pa721d48ac5">
   <rect x="542.332484" y="36.384" width="107.405032" height="99.428"/>
  </clipPath>
  <clipPath id="p9cb537e0d2">
   <rect x="706.153312" y="36.384" width="107.405032" height="99.428"/>
  </clipPath>
 </defs>
</svg>
