<?xml version="1.0" encoding="utf-8" standalone="no"?>
<!DOCTYPE svg PUBLIC "-//W3C//DTD SVG 1.1//EN"
  "http://www.w3.org/Graphics/SVG/1.1/DTD/svg11.dtd">
<svg xmlns:xlink="http://www.w3.org/1999/xlink" width="815.301944pt" height="161.7805pt" viewBox="0 0 815.301944 161.7805" xmlns="http://www.w3.org/2000/svg" version="1.1">
 <metadata>
  <rdf:RDF xmlns:dc="http://purl.org/dc/elements/1.1/" xmlns:cc="http://creativecommons.org/ns#" xmlns:rdf="http://www.w3.org/1999/02/22-rdf-syntax-ns#">
   <cc:Work>
    <dc:type rdf:resource="http://purl.org/dc/dcmitype/StillImage"/>
    <dc:date>2023-05-17T15:08:31.673678</dc:date>
    <dc:format>image/svg+xml</dc:format>
    <dc:creator>
     <cc:Agent>
      <dc:title>Matplotlib v3.7.0, https://matplotlib.org/</dc:title>
     </cc:Agent>
    </dc:creator>
   </cc:Work>
  </rdf:RDF>
 </metadata>
 <defs>
  <style type="text/css">*{stroke-linejoin: round; stroke-linecap: butt}</style>
 </defs>
 <g id="figure_1">
  <g id="patch_1">
   <path d="M 0 161.7805 
L 815.301944 161.7805 
L 815.301944 0 
L 0 0 
z
" style="fill: #ffffff"/>
  </g>
  <g id="axes_1">
   <g id="patch_2">
    <path d="M 43.365625 127.82425 
L 150.770657 127.82425 
L 150.770657 28.39625 
L 43.365625 28.39625 
z
" style="fill: #ffffff"/>
   </g>
   <g id="matplotlib.axis_1">
    <g id="xtick_1">
     <g id="line2d_1">
      <path d="M 48.247672 127.82425 
L 48.247672 28.39625 
" clip-path="url(#p4692c5f0cd)" style="fill: none; stroke: #b0b0b0; stroke-opacity: 0.5; stroke-width: 0.8; stroke-linecap: square"/>
     </g>
     <g id="line2d_2">
      <defs>
       <path id="m8d5912f6f0" d="M 0 0 
L 0 3.5 
" style="stroke: #000000; stroke-width: 0.8"/>
      </defs>
      <g>
       <use xlink:href="#m8d5912f6f0" x="48.247672" y="127.82425" style="stroke: #000000; stroke-width: 0.8"/>
      </g>
     </g>
     <g id="text_1">
      <!-- 0 -->
      <g transform="translate(45.066422 142.422687) scale(0.1 -0.1)">
       <defs>
        <path id="DejaVuSans-30" d="M 2034 4250 
Q 1547 4250 1301 3770 
Q 1056 3291 1056 2328 
Q 1056 1369 1301 889 
Q 1547 409 2034 409 
Q 2525 409 2770 889 
Q 3016 1369 3016 2328 
Q 3016 3291 2770 3770 
Q 2525 4250 2034 4250 
z
M 2034 4750 
Q 2819 4750 3233 4129 
Q 3647 3509 3647 2328 
Q 3647 1150 3233 529 
Q 2819 -91 2034 -91 
Q 1250 -91 836 529 
Q 422 1150 422 2328 
Q 422 3509 836 4129 
Q 1250 4750 2034 4750 
z
" transform="scale(0.015625)"/>
       </defs>
       <use xlink:href="#DejaVuSans-30"/>
      </g>
     </g>
    </g>
    <g id="xtick_2">
     <g id="line2d_3">
      <path d="M 97.561277 127.82425 
L 97.561277 28.39625 
" clip-path="url(#p4692c5f0cd)" style="fill: none; stroke: #b0b0b0; stroke-opacity: 0.5; stroke-width: 0.8; stroke-linecap: square"/>
     </g>
     <g id="line2d_4">
      <g>
       <use xlink:href="#m8d5912f6f0" x="97.561277" y="127.82425" style="stroke: #000000; stroke-width: 0.8"/>
      </g>
     </g>
     <g id="text_2">
      <!-- 50 -->
      <g transform="translate(91.198777 142.422687) scale(0.1 -0.1)">
       <defs>
        <path id="DejaVuSans-35" d="M 691 4666 
L 3169 4666 
L 3169 4134 
L 1269 4134 
L 1269 2991 
Q 1406 3038 1543 3061 
Q 1681 3084 1819 3084 
Q 2600 3084 3056 2656 
Q 3513 2228 3513 1497 
Q 3513 744 3044 326 
Q 2575 -91 1722 -91 
Q 1428 -91 1123 -41 
Q 819 9 494 109 
L 494 744 
Q 775 591 1075 516 
Q 1375 441 1709 441 
Q 2250 441 2565 725 
Q 2881 1009 2881 1497 
Q 2881 1984 2565 2268 
Q 2250 2553 1709 2553 
Q 1456 2553 1204 2497 
Q 953 2441 691 2322 
L 691 4666 
z
" transform="scale(0.015625)"/>
       </defs>
       <use xlink:href="#DejaVuSans-35"/>
       <use xlink:href="#DejaVuSans-30" x="63.623047"/>
      </g>
     </g>
    </g>
    <g id="xtick_3">
     <g id="line2d_5">
      <path d="M 146.874882 127.82425 
L 146.874882 28.39625 
" clip-path="url(#p4692c5f0cd)" style="fill: none; stroke: #b0b0b0; stroke-opacity: 0.5; stroke-width: 0.8; stroke-linecap: square"/>
     </g>
     <g id="line2d_6">
      <g>
       <use xlink:href="#m8d5912f6f0" x="146.874882" y="127.82425" style="stroke: #000000; stroke-width: 0.8"/>
      </g>
     </g>
     <g id="text_3">
      <!-- 100 -->
      <g transform="translate(137.331132 142.422687) scale(0.1 -0.1)">
       <defs>
        <path id="DejaVuSans-31" d="M 794 531 
L 1825 531 
L 1825 4091 
L 703 3866 
L 703 4441 
L 1819 4666 
L 2450 4666 
L 2450 531 
L 3481 531 
L 3481 0 
L 794 0 
L 794 531 
z
" transform="scale(0.015625)"/>
       </defs>
       <use xlink:href="#DejaVuSans-31"/>
       <use xlink:href="#DejaVuSans-30" x="63.623047"/>
       <use xlink:href="#DejaVuSans-30" x="127.246094"/>
      </g>
     </g>
    </g>
    <g id="text_4">
     <!-- bin number -->
     <g transform="translate(68.232985 156.100812) scale(0.1 -0.1)">
      <defs>
       <path id="DejaVuSans-62" d="M 3116 1747 
Q 3116 2381 2855 2742 
Q 2594 3103 2138 3103 
Q 1681 3103 1420 2742 
Q 1159 2381 1159 1747 
Q 1159 1113 1420 752 
Q 1681 391 2138 391 
Q 2594 391 2855 752 
Q 3116 1113 3116 1747 
z
M 1159 2969 
Q 1341 3281 1617 3432 
Q 1894 3584 2278 3584 
Q 2916 3584 3314 3078 
Q 3713 2572 3713 1747 
Q 3713 922 3314 415 
Q 2916 -91 2278 -91 
Q 1894 -91 1617 61 
Q 1341 213 1159 525 
L 1159 0 
L 581 0 
L 581 4863 
L 1159 4863 
L 1159 2969 
z
" transform="scale(0.015625)"/>
       <path id="DejaVuSans-69" d="M 603 3500 
L 1178 3500 
L 1178 0 
L 603 0 
L 603 3500 
z
M 603 4863 
L 1178 4863 
L 1178 4134 
L 603 4134 
L 603 4863 
z
" transform="scale(0.015625)"/>
       <path id="DejaVuSans-6e" d="M 3513 2113 
L 3513 0 
L 2938 0 
L 2938 2094 
Q 2938 2591 2744 2837 
Q 2550 3084 2163 3084 
Q 1697 3084 1428 2787 
Q 1159 2491 1159 1978 
L 1159 0 
L 581 0 
L 581 3500 
L 1159 3500 
L 1159 2956 
Q 1366 3272 1645 3428 
Q 1925 3584 2291 3584 
Q 2894 3584 3203 3211 
Q 3513 2838 3513 2113 
z
" transform="scale(0.015625)"/>
       <path id="DejaVuSans-20" transform="scale(0.015625)"/>
       <path id="DejaVuSans-75" d="M 544 1381 
L 544 3500 
L 1119 3500 
L 1119 1403 
Q 1119 906 1312 657 
Q 1506 409 1894 409 
Q 2359 409 2629 706 
Q 2900 1003 2900 1516 
L 2900 3500 
L 3475 3500 
L 3475 0 
L 2900 0 
L 2900 538 
Q 2691 219 2414 64 
Q 2138 -91 1772 -91 
Q 1169 -91 856 284 
Q 544 659 544 1381 
z
M 1991 3584 
L 1991 3584 
z
" transform="scale(0.015625)"/>
       <path id="DejaVuSans-6d" d="M 3328 2828 
Q 3544 3216 3844 3400 
Q 4144 3584 4550 3584 
Q 5097 3584 5394 3201 
Q 5691 2819 5691 2113 
L 5691 0 
L 5113 0 
L 5113 2094 
Q 5113 2597 4934 2840 
Q 4756 3084 4391 3084 
Q 3944 3084 3684 2787 
Q 3425 2491 3425 1978 
L 3425 0 
L 2847 0 
L 2847 2094 
Q 2847 2600 2669 2842 
Q 2491 3084 2119 3084 
Q 1678 3084 1418 2786 
Q 1159 2488 1159 1978 
L 1159 0 
L 581 0 
L 581 3500 
L 1159 3500 
L 1159 2956 
Q 1356 3278 1631 3431 
Q 1906 3584 2284 3584 
Q 2666 3584 2933 3390 
Q 3200 3197 3328 2828 
z
" transform="scale(0.015625)"/>
       <path id="DejaVuSans-65" d="M 3597 1894 
L 3597 1613 
L 953 1613 
Q 991 1019 1311 708 
Q 1631 397 2203 397 
Q 2534 397 2845 478 
Q 3156 559 3463 722 
L 3463 178 
Q 3153 47 2828 -22 
Q 2503 -91 2169 -91 
Q 1331 -91 842 396 
Q 353 884 353 1716 
Q 353 2575 817 3079 
Q 1281 3584 2069 3584 
Q 2775 3584 3186 3129 
Q 3597 2675 3597 1894 
z
M 3022 2063 
Q 3016 2534 2758 2815 
Q 2500 3097 2075 3097 
Q 1594 3097 1305 2825 
Q 1016 2553 972 2059 
L 3022 2063 
z
" transform="scale(0.015625)"/>
       <path id="DejaVuSans-72" d="M 2631 2963 
Q 2534 3019 2420 3045 
Q 2306 3072 2169 3072 
Q 1681 3072 1420 2755 
Q 1159 2438 1159 1844 
L 1159 0 
L 581 0 
L 581 3500 
L 1159 3500 
L 1159 2956 
Q 1341 3275 1631 3429 
Q 1922 3584 2338 3584 
Q 2397 3584 2469 3576 
Q 2541 3569 2628 3553 
L 2631 2963 
z
" transform="scale(0.015625)"/>
      </defs>
      <use xlink:href="#DejaVuSans-62"/>
      <use xlink:href="#DejaVuSans-69" x="63.476562"/>
      <use xlink:href="#DejaVuSans-6e" x="91.259766"/>
      <use xlink:href="#DejaVuSans-20" x="154.638672"/>
      <use xlink:href="#DejaVuSans-6e" x="186.425781"/>
      <use xlink:href="#DejaVuSans-75" x="249.804688"/>
      <use xlink:href="#DejaVuSans-6d" x="313.183594"/>
      <use xlink:href="#DejaVuSans-62" x="410.595703"/>
      <use xlink:href="#DejaVuSans-65" x="474.072266"/>
      <use xlink:href="#DejaVuSans-72" x="535.595703"/>
     </g>
    </g>
   </g>
   <g id="matplotlib.axis_2">
    <g id="ytick_1">
     <g id="line2d_7">
      <path d="M 43.365625 127.82425 
L 150.770657 127.82425 
" clip-path="url(#p4692c5f0cd)" style="fill: none; stroke: #b0b0b0; stroke-opacity: 0.5; stroke-width: 0.8; stroke-linecap: square"/>
     </g>
     <g id="line2d_8">
      <defs>
       <path id="m2c769adcfc" d="M 0 0 
L -3.5 0 
" style="stroke: #000000; stroke-width: 0.8"/>
      </defs>
      <g>
       <use xlink:href="#m2c769adcfc" x="43.365625" y="127.82425" style="stroke: #000000; stroke-width: 0.8"/>
      </g>
     </g>
     <g id="text_5">
      <!-- 0 -->
      <g transform="translate(30.003125 131.623469) scale(0.1 -0.1)">
       <use xlink:href="#DejaVuSans-30"/>
      </g>
     </g>
    </g>
    <g id="ytick_2">
     <g id="line2d_9">
      <path d="M 43.365625 102.96725 
L 150.770657 102.96725 
" clip-path="url(#p4692c5f0cd)" style="fill: none; stroke: #b0b0b0; stroke-opacity: 0.5; stroke-width: 0.8; stroke-linecap: square"/>
     </g>
     <g id="line2d_10">
      <g>
       <use xlink:href="#m2c769adcfc" x="43.365625" y="102.96725" style="stroke: #000000; stroke-width: 0.8"/>
      </g>
     </g>
     <g id="text_6">
      <!-- 25 -->
      <g transform="translate(23.640625 106.766469) scale(0.1 -0.1)">
       <defs>
        <path id="DejaVuSans-32" d="M 1228 531 
L 3431 531 
L 3431 0 
L 469 0 
L 469 531 
Q 828 903 1448 1529 
Q 2069 2156 2228 2338 
Q 2531 2678 2651 2914 
Q 2772 3150 2772 3378 
Q 2772 3750 2511 3984 
Q 2250 4219 1831 4219 
Q 1534 4219 1204 4116 
Q 875 4013 500 3803 
L 500 4441 
Q 881 4594 1212 4672 
Q 1544 4750 1819 4750 
Q 2544 4750 2975 4387 
Q 3406 4025 3406 3419 
Q 3406 3131 3298 2873 
Q 3191 2616 2906 2266 
Q 2828 2175 2409 1742 
Q 1991 1309 1228 531 
z
" transform="scale(0.015625)"/>
       </defs>
       <use xlink:href="#DejaVuSans-32"/>
       <use xlink:href="#DejaVuSans-35" x="63.623047"/>
      </g>
     </g>
    </g>
    <g id="ytick_3">
     <g id="line2d_11">
      <path d="M 43.365625 78.11025 
L 150.770657 78.11025 
" clip-path="url(#p4692c5f0cd)" style="fill: none; stroke: #b0b0b0; stroke-opacity: 0.5; stroke-width: 0.8; stroke-linecap: square"/>
     </g>
     <g id="line2d_12">
      <g>
       <use xlink:href="#m2c769adcfc" x="43.365625" y="78.11025" style="stroke: #000000; stroke-width: 0.8"/>
      </g>
     </g>
     <g id="text_7">
      <!-- 50 -->
      <g transform="translate(23.640625 81.909469) scale(0.1 -0.1)">
       <use xlink:href="#DejaVuSans-35"/>
       <use xlink:href="#DejaVuSans-30" x="63.623047"/>
      </g>
     </g>
    </g>
    <g id="ytick_4">
     <g id="line2d_13">
      <path d="M 43.365625 53.25325 
L 150.770657 53.25325 
" clip-path="url(#p4692c5f0cd)" style="fill: none; stroke: #b0b0b0; stroke-opacity: 0.5; stroke-width: 0.8; stroke-linecap: square"/>
     </g>
     <g id="line2d_14">
      <g>
       <use xlink:href="#m2c769adcfc" x="43.365625" y="53.25325" style="stroke: #000000; stroke-width: 0.8"/>
      </g>
     </g>
     <g id="text_8">
      <!-- 75 -->
      <g transform="translate(23.640625 57.052469) scale(0.1 -0.1)">
       <defs>
        <path id="DejaVuSans-37" d="M 525 4666 
L 3525 4666 
L 3525 4397 
L 1831 0 
L 1172 0 
L 2766 4134 
L 525 4134 
L 525 4666 
z
" transform="scale(0.015625)"/>
       </defs>
       <use xlink:href="#DejaVuSans-37"/>
       <use xlink:href="#DejaVuSans-35" x="63.623047"/>
      </g>
     </g>
    </g>
    <g id="ytick_5">
     <g id="line2d_15">
      <path d="M 43.365625 28.39625 
L 150.770657 28.39625 
" clip-path="url(#p4692c5f0cd)" style="fill: none; stroke: #b0b0b0; stroke-opacity: 0.5; stroke-width: 0.8; stroke-linecap: square"/>
     </g>
     <g id="line2d_16">
      <g>
       <use xlink:href="#m2c769adcfc" x="43.365625" y="28.39625" style="stroke: #000000; stroke-width: 0.8"/>
      </g>
     </g>
     <g id="text_9">
      <!-- 100 -->
      <g transform="translate(17.278125 32.195469) scale(0.1 -0.1)">
       <use xlink:href="#DejaVuSans-31"/>
       <use xlink:href="#DejaVuSans-30" x="63.623047"/>
       <use xlink:href="#DejaVuSans-30" x="127.246094"/>
      </g>
     </g>
    </g>
    <g id="text_10">
     <!-- sum of each bin [-] -->
     <g transform="translate(11.198438 125.425875) rotate(-90) scale(0.1 -0.1)">
      <defs>
       <path id="DejaVuSans-73" d="M 2834 3397 
L 2834 2853 
Q 2591 2978 2328 3040 
Q 2066 3103 1784 3103 
Q 1356 3103 1142 2972 
Q 928 2841 928 2578 
Q 928 2378 1081 2264 
Q 1234 2150 1697 2047 
L 1894 2003 
Q 2506 1872 2764 1633 
Q 3022 1394 3022 966 
Q 3022 478 2636 193 
Q 2250 -91 1575 -91 
Q 1294 -91 989 -36 
Q 684 19 347 128 
L 347 722 
Q 666 556 975 473 
Q 1284 391 1588 391 
Q 1994 391 2212 530 
Q 2431 669 2431 922 
Q 2431 1156 2273 1281 
Q 2116 1406 1581 1522 
L 1381 1569 
Q 847 1681 609 1914 
Q 372 2147 372 2553 
Q 372 3047 722 3315 
Q 1072 3584 1716 3584 
Q 2034 3584 2315 3537 
Q 2597 3491 2834 3397 
z
" transform="scale(0.015625)"/>
       <path id="DejaVuSans-6f" d="M 1959 3097 
Q 1497 3097 1228 2736 
Q 959 2375 959 1747 
Q 959 1119 1226 758 
Q 1494 397 1959 397 
Q 2419 397 2687 759 
Q 2956 1122 2956 1747 
Q 2956 2369 2687 2733 
Q 2419 3097 1959 3097 
z
M 1959 3584 
Q 2709 3584 3137 3096 
Q 3566 2609 3566 1747 
Q 3566 888 3137 398 
Q 2709 -91 1959 -91 
Q 1206 -91 779 398 
Q 353 888 353 1747 
Q 353 2609 779 3096 
Q 1206 3584 1959 3584 
z
" transform="scale(0.015625)"/>
       <path id="DejaVuSans-66" d="M 2375 4863 
L 2375 4384 
L 1825 4384 
Q 1516 4384 1395 4259 
Q 1275 4134 1275 3809 
L 1275 3500 
L 2222 3500 
L 2222 3053 
L 1275 3053 
L 1275 0 
L 697 0 
L 697 3053 
L 147 3053 
L 147 3500 
L 697 3500 
L 697 3744 
Q 697 4328 969 4595 
Q 1241 4863 1831 4863 
L 2375 4863 
z
" transform="scale(0.015625)"/>
       <path id="DejaVuSans-61" d="M 2194 1759 
Q 1497 1759 1228 1600 
Q 959 1441 959 1056 
Q 959 750 1161 570 
Q 1363 391 1709 391 
Q 2188 391 2477 730 
Q 2766 1069 2766 1631 
L 2766 1759 
L 2194 1759 
z
M 3341 1997 
L 3341 0 
L 2766 0 
L 2766 531 
Q 2569 213 2275 61 
Q 1981 -91 1556 -91 
Q 1019 -91 701 211 
Q 384 513 384 1019 
Q 384 1609 779 1909 
Q 1175 2209 1959 2209 
L 2766 2209 
L 2766 2266 
Q 2766 2663 2505 2880 
Q 2244 3097 1772 3097 
Q 1472 3097 1187 3025 
Q 903 2953 641 2809 
L 641 3341 
Q 956 3463 1253 3523 
Q 1550 3584 1831 3584 
Q 2591 3584 2966 3190 
Q 3341 2797 3341 1997 
z
" transform="scale(0.015625)"/>
       <path id="DejaVuSans-63" d="M 3122 3366 
L 3122 2828 
Q 2878 2963 2633 3030 
Q 2388 3097 2138 3097 
Q 1578 3097 1268 2742 
Q 959 2388 959 1747 
Q 959 1106 1268 751 
Q 1578 397 2138 397 
Q 2388 397 2633 464 
Q 2878 531 3122 666 
L 3122 134 
Q 2881 22 2623 -34 
Q 2366 -91 2075 -91 
Q 1284 -91 818 406 
Q 353 903 353 1747 
Q 353 2603 823 3093 
Q 1294 3584 2113 3584 
Q 2378 3584 2631 3529 
Q 2884 3475 3122 3366 
z
" transform="scale(0.015625)"/>
       <path id="DejaVuSans-68" d="M 3513 2113 
L 3513 0 
L 2938 0 
L 2938 2094 
Q 2938 2591 2744 2837 
Q 2550 3084 2163 3084 
Q 1697 3084 1428 2787 
Q 1159 2491 1159 1978 
L 1159 0 
L 581 0 
L 581 4863 
L 1159 4863 
L 1159 2956 
Q 1366 3272 1645 3428 
Q 1925 3584 2291 3584 
Q 2894 3584 3203 3211 
Q 3513 2838 3513 2113 
z
" transform="scale(0.015625)"/>
       <path id="DejaVuSans-5b" d="M 550 4863 
L 1875 4863 
L 1875 4416 
L 1125 4416 
L 1125 -397 
L 1875 -397 
L 1875 -844 
L 550 -844 
L 550 4863 
z
" transform="scale(0.015625)"/>
       <path id="DejaVuSans-2d" d="M 313 2009 
L 1997 2009 
L 1997 1497 
L 313 1497 
L 313 2009 
z
" transform="scale(0.015625)"/>
       <path id="DejaVuSans-5d" d="M 1947 4863 
L 1947 -844 
L 622 -844 
L 622 -397 
L 1369 -397 
L 1369 4416 
L 622 4416 
L 622 4863 
L 1947 4863 
z
" transform="scale(0.015625)"/>
      </defs>
      <use xlink:href="#DejaVuSans-73"/>
      <use xlink:href="#DejaVuSans-75" x="52.099609"/>
      <use xlink:href="#DejaVuSans-6d" x="115.478516"/>
      <use xlink:href="#DejaVuSans-20" x="212.890625"/>
      <use xlink:href="#DejaVuSans-6f" x="244.677734"/>
      <use xlink:href="#DejaVuSans-66" x="305.859375"/>
      <use xlink:href="#DejaVuSans-20" x="341.064453"/>
      <use xlink:href="#DejaVuSans-65" x="372.851562"/>
      <use xlink:href="#DejaVuSans-61" x="434.375"/>
      <use xlink:href="#DejaVuSans-63" x="495.654297"/>
      <use xlink:href="#DejaVuSans-68" x="550.634766"/>
      <use xlink:href="#DejaVuSans-20" x="614.013672"/>
      <use xlink:href="#DejaVuSans-62" x="645.800781"/>
      <use xlink:href="#DejaVuSans-69" x="709.277344"/>
      <use xlink:href="#DejaVuSans-6e" x="737.060547"/>
      <use xlink:href="#DejaVuSans-20" x="800.439453"/>
      <use xlink:href="#DejaVuSans-5b" x="832.226562"/>
      <use xlink:href="#DejaVuSans-2d" x="871.240234"/>
      <use xlink:href="#DejaVuSans-5d" x="907.324219"/>
     </g>
    </g>
   </g>
   <g id="line2d_17">
    <path d="M 48.247672 127.82425 
L 49.233944 127.82425 
L 50.220216 127.82425 
L 51.206488 127.82425 
L 52.19276 127.82425 
L 53.179032 127.82425 
L 54.165305 127.82425 
L 55.151577 127.82425 
L 56.137849 127.82425 
L 57.124121 127.82425 
L 58.110393 127.82425 
L 59.096665 127.82425 
L 60.082937 127.82425 
L 61.069209 127.82425 
L 62.055481 127.82425 
L 63.041753 127.82425 
L 64.028026 127.82425 
L 65.014298 127.82425 
L 66.00057 127.82425 
L 66.986842 127.82425 
L 67.973114 127.82425 
L 68.959386 127.82425 
L 69.945658 127.82425 
L 70.93193 127.82425 
L 71.918202 127.82425 
L 72.904474 127.82425 
L 73.890747 127.82425 
L 74.877019 127.82425 
L 75.863291 127.82425 
L 76.849563 127.82425 
L 77.835835 127.82425 
L 78.822107 127.82425 
L 79.808379 127.82425 
L 80.794651 127.82425 
L 81.780923 127.82425 
L 82.767195 127.82425 
L 83.753468 127.82425 
L 84.73974 127.82425 
L 85.726012 127.82425 
L 86.712284 127.82425 
L 87.698556 127.82425 
L 88.684828 127.82425 
L 89.6711 127.82425 
L 90.657372 127.82425 
L 91.643644 127.82425 
L 92.629916 127.82425 
L 93.616189 127.82425 
L 94.602461 127.82425 
L 95.588733 127.82425 
L 96.575005 127.82425 
L 97.561277 127.82425 
L 98.547549 127.82425 
L 99.533821 127.82425 
L 100.520093 127.82425 
L 101.506365 127.82425 
L 102.492637 127.82425 
L 103.47891 127.82425 
L 104.465182 127.82425 
L 105.451454 127.82425 
L 106.437726 127.82425 
L 107.423998 127.82425 
L 108.41027 127.82425 
L 109.396542 124.154389 
L 110.382814 124.154389 
L 111.369086 120.484529 
L 112.355358 120.484529 
L 113.341631 120.484529 
L 114.327903 116.814668 
L 115.314175 116.814668 
L 116.300447 94.795504 
L 117.286719 91.125644 
L 118.272991 87.924276 
L 119.259263 80.584554 
L 120.245535 77.383187 
L 121.231807 59.033883 
L 122.218079 63.64073 
L 123.204352 60.439362 
L 124.190624 53.099641 
L 125.176896 42.090059 
L 126.163168 56.379091 
L 127.14944 38.966773 
L 128.135712 47.711973 
L 129.121984 57.862651 
L 130.108256 62.93799 
L 131.094528 68.01333 
L 132.080801 72.620176 
L 133.067073 73.088669 
L 134.053345 98.855776 
L 135.039617 107.132483 
L 136.025889 111.270836 
L 137.012161 111.270836 
L 137.998433 119.547543 
L 138.984705 123.685897 
L 139.970977 123.685897 
L 140.957249 123.685897 
L 141.943522 127.82425 
L 142.929794 127.82425 
L 143.916066 127.82425 
L 144.902338 127.82425 
L 145.88861 127.82425 
" clip-path="url(#p4692c5f0cd)" style="fill: none; stroke: #000000; stroke-width: 1.5; stroke-linecap: square"/>
   </g>
   <g id="patch_3">
    <path d="M 43.365625 127.82425 
L 43.365625 28.39625 
" style="fill: none; stroke: #000000; stroke-width: 0.8; stroke-linejoin: miter; stroke-linecap: square"/>
   </g>
   <g id="patch_4">
    <path d="M 150.770657 127.82425 
L 150.770657 28.39625 
" style="fill: none; stroke: #000000; stroke-width: 0.8; stroke-linejoin: miter; stroke-linecap: square"/>
   </g>
   <g id="patch_5">
    <path d="M 43.365625 127.82425 
L 150.770657 127.82425 
" style="fill: none; stroke: #000000; stroke-width: 0.8; stroke-linejoin: miter; stroke-linecap: square"/>
   </g>
   <g id="patch_6">
    <path d="M 43.365625 28.39625 
L 150.770657 28.39625 
" style="fill: none; stroke: #000000; stroke-width: 0.8; stroke-linejoin: miter; stroke-linecap: square"/>
   </g>
   <g id="text_11">
    <!-- voxel 1002 -->
    <g transform="translate(69.622828 11.198437) scale(0.1 -0.1)">
     <defs>
      <path id="DejaVuSans-76" d="M 191 3500 
L 800 3500 
L 1894 563 
L 2988 3500 
L 3597 3500 
L 2284 0 
L 1503 0 
L 191 3500 
z
" transform="scale(0.015625)"/>
      <path id="DejaVuSans-78" d="M 3513 3500 
L 2247 1797 
L 3578 0 
L 2900 0 
L 1881 1375 
L 863 0 
L 184 0 
L 1544 1831 
L 300 3500 
L 978 3500 
L 1906 2253 
L 2834 3500 
L 3513 3500 
z
" transform="scale(0.015625)"/>
      <path id="DejaVuSans-6c" d="M 603 4863 
L 1178 4863 
L 1178 0 
L 603 0 
L 603 4863 
z
" transform="scale(0.015625)"/>
     </defs>
     <use xlink:href="#DejaVuSans-76"/>
     <use xlink:href="#DejaVuSans-6f" x="59.179688"/>
     <use xlink:href="#DejaVuSans-78" x="117.236328"/>
     <use xlink:href="#DejaVuSans-65" x="173.291016"/>
     <use xlink:href="#DejaVuSans-6c" x="234.814453"/>
     <use xlink:href="#DejaVuSans-20" x="262.597656"/>
     <use xlink:href="#DejaVuSans-31" x="294.384766"/>
     <use xlink:href="#DejaVuSans-30" x="358.007812"/>
     <use xlink:href="#DejaVuSans-30" x="421.630859"/>
     <use xlink:href="#DejaVuSans-32" x="485.253906"/>
    </g>
    <!--   cumsum = 1275.27 -->
    <g transform="translate(44.413453 22.39625) scale(0.1 -0.1)">
     <defs>
      <path id="DejaVuSans-3d" d="M 678 2906 
L 4684 2906 
L 4684 2381 
L 678 2381 
L 678 2906 
z
M 678 1631 
L 4684 1631 
L 4684 1100 
L 678 1100 
L 678 1631 
z
" transform="scale(0.015625)"/>
      <path id="DejaVuSans-2e" d="M 684 794 
L 1344 794 
L 1344 0 
L 684 0 
L 684 794 
z
" transform="scale(0.015625)"/>
     </defs>
     <use xlink:href="#DejaVuSans-20"/>
     <use xlink:href="#DejaVuSans-20" x="31.787109"/>
     <use xlink:href="#DejaVuSans-63" x="63.574219"/>
     <use xlink:href="#DejaVuSans-75" x="118.554688"/>
     <use xlink:href="#DejaVuSans-6d" x="181.933594"/>
     <use xlink:href="#DejaVuSans-73" x="279.345703"/>
     <use xlink:href="#DejaVuSans-75" x="331.445312"/>
     <use xlink:href="#DejaVuSans-6d" x="394.824219"/>
     <use xlink:href="#DejaVuSans-20" x="492.236328"/>
     <use xlink:href="#DejaVuSans-3d" x="524.023438"/>
     <use xlink:href="#DejaVuSans-20" x="607.8125"/>
     <use xlink:href="#DejaVuSans-31" x="639.599609"/>
     <use xlink:href="#DejaVuSans-32" x="703.222656"/>
     <use xlink:href="#DejaVuSans-37" x="766.845703"/>
     <use xlink:href="#DejaVuSans-35" x="830.46875"/>
     <use xlink:href="#DejaVuSans-2e" x="894.091797"/>
     <use xlink:href="#DejaVuSans-32" x="925.878906"/>
     <use xlink:href="#DejaVuSans-37" x="989.501953"/>
    </g>
   </g>
  </g>
  <g id="axes_2">
   <g id="patch_7">
    <path d="M 207.186453 127.82425 
L 314.591485 127.82425 
L 314.591485 28.39625 
L 207.186453 28.39625 
z
" style="fill: #ffffff"/>
   </g>
   <g id="matplotlib.axis_3">
    <g id="xtick_4">
     <g id="line2d_18">
      <path d="M 212.0685 127.82425 
L 212.0685 28.39625 
" clip-path="url(#p5ad6df5dfa)" style="fill: none; stroke: #b0b0b0; stroke-opacity: 0.5; stroke-width: 0.8; stroke-linecap: square"/>
     </g>
     <g id="line2d_19">
      <g>
       <use xlink:href="#m8d5912f6f0" x="212.0685" y="127.82425" style="stroke: #000000; stroke-width: 0.8"/>
      </g>
     </g>
     <g id="text_12">
      <!-- 0 -->
      <g transform="translate(208.88725 142.422687) scale(0.1 -0.1)">
       <use xlink:href="#DejaVuSans-30"/>
      </g>
     </g>
    </g>
    <g id="xtick_5">
     <g id="line2d_20">
      <path d="M 261.382105 127.82425 
L 261.382105 28.39625 
" clip-path="url(#p5ad6df5dfa)" style="fill: none; stroke: #b0b0b0; stroke-opacity: 0.5; stroke-width: 0.8; stroke-linecap: square"/>
     </g>
     <g id="line2d_21">
      <g>
       <use xlink:href="#m8d5912f6f0" x="261.382105" y="127.82425" style="stroke: #000000; stroke-width: 0.8"/>
      </g>
     </g>
     <g id="text_13">
      <!-- 50 -->
      <g transform="translate(255.019605 142.422687) scale(0.1 -0.1)">
       <use xlink:href="#DejaVuSans-35"/>
       <use xlink:href="#DejaVuSans-30" x="63.623047"/>
      </g>
     </g>
    </g>
    <g id="xtick_6">
     <g id="line2d_22">
      <path d="M 310.69571 127.82425 
L 310.69571 28.39625 
" clip-path="url(#p5ad6df5dfa)" style="fill: none; stroke: #b0b0b0; stroke-opacity: 0.5; stroke-width: 0.8; stroke-linecap: square"/>
     </g>
     <g id="line2d_23">
      <g>
       <use xlink:href="#m8d5912f6f0" x="310.69571" y="127.82425" style="stroke: #000000; stroke-width: 0.8"/>
      </g>
     </g>
     <g id="text_14">
      <!-- 100 -->
      <g transform="translate(301.15196 142.422687) scale(0.1 -0.1)">
       <use xlink:href="#DejaVuSans-31"/>
       <use xlink:href="#DejaVuSans-30" x="63.623047"/>
       <use xlink:href="#DejaVuSans-30" x="127.246094"/>
      </g>
     </g>
    </g>
    <g id="text_15">
     <!-- bin number -->
     <g transform="translate(232.053813 156.100812) scale(0.1 -0.1)">
      <use xlink:href="#DejaVuSans-62"/>
      <use xlink:href="#DejaVuSans-69" x="63.476562"/>
      <use xlink:href="#DejaVuSans-6e" x="91.259766"/>
      <use xlink:href="#DejaVuSans-20" x="154.638672"/>
      <use xlink:href="#DejaVuSans-6e" x="186.425781"/>
      <use xlink:href="#DejaVuSans-75" x="249.804688"/>
      <use xlink:href="#DejaVuSans-6d" x="313.183594"/>
      <use xlink:href="#DejaVuSans-62" x="410.595703"/>
      <use xlink:href="#DejaVuSans-65" x="474.072266"/>
      <use xlink:href="#DejaVuSans-72" x="535.595703"/>
     </g>
    </g>
   </g>
   <g id="matplotlib.axis_4">
    <g id="ytick_6">
     <g id="line2d_24">
      <path d="M 207.186453 127.82425 
L 314.591485 127.82425 
" clip-path="url(#p5ad6df5dfa)" style="fill: none; stroke: #b0b0b0; stroke-opacity: 0.5; stroke-width: 0.8; stroke-linecap: square"/>
     </g>
     <g id="line2d_25">
      <g>
       <use xlink:href="#m2c769adcfc" x="207.186453" y="127.82425" style="stroke: #000000; stroke-width: 0.8"/>
      </g>
     </g>
     <g id="text_16">
      <!-- 0 -->
      <g transform="translate(193.823953 131.623469) scale(0.1 -0.1)">
       <use xlink:href="#DejaVuSans-30"/>
      </g>
     </g>
    </g>
    <g id="ytick_7">
     <g id="line2d_26">
      <path d="M 207.186453 102.96725 
L 314.591485 102.96725 
" clip-path="url(#p5ad6df5dfa)" style="fill: none; stroke: #b0b0b0; stroke-opacity: 0.5; stroke-width: 0.8; stroke-linecap: square"/>
     </g>
     <g id="line2d_27">
      <g>
       <use xlink:href="#m2c769adcfc" x="207.186453" y="102.96725" style="stroke: #000000; stroke-width: 0.8"/>
      </g>
     </g>
     <g id="text_17">
      <!-- 25 -->
      <g transform="translate(187.461453 106.766469) scale(0.1 -0.1)">
       <use xlink:href="#DejaVuSans-32"/>
       <use xlink:href="#DejaVuSans-35" x="63.623047"/>
      </g>
     </g>
    </g>
    <g id="ytick_8">
     <g id="line2d_28">
      <path d="M 207.186453 78.11025 
L 314.591485 78.11025 
" clip-path="url(#p5ad6df5dfa)" style="fill: none; stroke: #b0b0b0; stroke-opacity: 0.5; stroke-width: 0.8; stroke-linecap: square"/>
     </g>
     <g id="line2d_29">
      <g>
       <use xlink:href="#m2c769adcfc" x="207.186453" y="78.11025" style="stroke: #000000; stroke-width: 0.8"/>
      </g>
     </g>
     <g id="text_18">
      <!-- 50 -->
      <g transform="translate(187.461453 81.909469) scale(0.1 -0.1)">
       <use xlink:href="#DejaVuSans-35"/>
       <use xlink:href="#DejaVuSans-30" x="63.623047"/>
      </g>
     </g>
    </g>
    <g id="ytick_9">
     <g id="line2d_30">
      <path d="M 207.186453 53.25325 
L 314.591485 53.25325 
" clip-path="url(#p5ad6df5dfa)" style="fill: none; stroke: #b0b0b0; stroke-opacity: 0.5; stroke-width: 0.8; stroke-linecap: square"/>
     </g>
     <g id="line2d_31">
      <g>
       <use xlink:href="#m2c769adcfc" x="207.186453" y="53.25325" style="stroke: #000000; stroke-width: 0.8"/>
      </g>
     </g>
     <g id="text_19">
      <!-- 75 -->
      <g transform="translate(187.461453 57.052469) scale(0.1 -0.1)">
       <use xlink:href="#DejaVuSans-37"/>
       <use xlink:href="#DejaVuSans-35" x="63.623047"/>
      </g>
     </g>
    </g>
    <g id="ytick_10">
     <g id="line2d_32">
      <path d="M 207.186453 28.39625 
L 314.591485 28.39625 
" clip-path="url(#p5ad6df5dfa)" style="fill: none; stroke: #b0b0b0; stroke-opacity: 0.5; stroke-width: 0.8; stroke-linecap: square"/>
     </g>
     <g id="line2d_33">
      <g>
       <use xlink:href="#m2c769adcfc" x="207.186453" y="28.39625" style="stroke: #000000; stroke-width: 0.8"/>
      </g>
     </g>
     <g id="text_20">
      <!-- 100 -->
      <g transform="translate(181.098953 32.195469) scale(0.1 -0.1)">
       <use xlink:href="#DejaVuSans-31"/>
       <use xlink:href="#DejaVuSans-30" x="63.623047"/>
       <use xlink:href="#DejaVuSans-30" x="127.246094"/>
      </g>
     </g>
    </g>
    <g id="text_21">
     <!-- sum of each bin [-] -->
     <g transform="translate(175.019266 125.425875) rotate(-90) scale(0.1 -0.1)">
      <use xlink:href="#DejaVuSans-73"/>
      <use xlink:href="#DejaVuSans-75" x="52.099609"/>
      <use xlink:href="#DejaVuSans-6d" x="115.478516"/>
      <use xlink:href="#DejaVuSans-20" x="212.890625"/>
      <use xlink:href="#DejaVuSans-6f" x="244.677734"/>
      <use xlink:href="#DejaVuSans-66" x="305.859375"/>
      <use xlink:href="#DejaVuSans-20" x="341.064453"/>
      <use xlink:href="#DejaVuSans-65" x="372.851562"/>
      <use xlink:href="#DejaVuSans-61" x="434.375"/>
      <use xlink:href="#DejaVuSans-63" x="495.654297"/>
      <use xlink:href="#DejaVuSans-68" x="550.634766"/>
      <use xlink:href="#DejaVuSans-20" x="614.013672"/>
      <use xlink:href="#DejaVuSans-62" x="645.800781"/>
      <use xlink:href="#DejaVuSans-69" x="709.277344"/>
      <use xlink:href="#DejaVuSans-6e" x="737.060547"/>
      <use xlink:href="#DejaVuSans-20" x="800.439453"/>
      <use xlink:href="#DejaVuSans-5b" x="832.226562"/>
      <use xlink:href="#DejaVuSans-2d" x="871.240234"/>
      <use xlink:href="#DejaVuSans-5d" x="907.324219"/>
     </g>
    </g>
   </g>
   <g id="line2d_34">
    <path d="M 212.0685 127.82425 
L 213.054772 127.82425 
L 214.041044 127.82425 
L 215.027316 127.82425 
L 216.013588 127.82425 
L 216.99986 127.82425 
L 217.986133 127.82425 
L 218.972405 127.82425 
L 219.958677 127.82425 
L 220.944949 127.82425 
L 221.931221 127.82425 
L 222.917493 127.82425 
L 223.903765 127.82425 
L 224.890037 127.82425 
L 225.876309 127.82425 
L 226.862581 127.82425 
L 227.848854 127.82425 
L 228.835126 127.82425 
L 229.821398 127.82425 
L 230.80767 127.82425 
L 231.793942 127.82425 
L 232.780214 127.82425 
L 233.766486 127.82425 
L 234.752758 127.82425 
L 235.73903 127.82425 
L 236.725302 127.82425 
L 237.711575 127.82425 
L 238.697847 127.82425 
L 239.684119 127.82425 
L 240.670391 127.82425 
L 241.656663 127.82425 
L 242.642935 127.82425 
L 243.629207 127.82425 
L 244.615479 127.82425 
L 245.601751 127.82425 
L 246.588023 127.82425 
L 247.574296 127.82425 
L 248.560568 127.82425 
L 249.54684 127.82425 
L 250.533112 127.82425 
L 251.519384 127.82425 
L 252.505656 127.82425 
L 253.491928 127.82425 
L 254.4782 127.82425 
L 255.464472 127.82425 
L 256.450744 127.82425 
L 257.437017 127.82425 
L 258.423289 127.82425 
L 259.409561 127.82425 
L 260.395833 127.82425 
L 261.382105 127.82425 
L 262.368377 127.82425 
L 263.354649 127.82425 
L 264.340921 127.82425 
L 265.327193 127.82425 
L 266.313465 127.82425 
L 267.299738 127.82425 
L 268.28601 127.82425 
L 269.272282 127.82425 
L 270.258554 127.82425 
L 271.244826 127.82425 
L 272.231098 127.82425 
L 273.21737 127.82425 
L 274.203642 127.82425 
L 275.189914 124.154389 
L 276.176187 124.154389 
L 277.162459 124.154389 
L 278.148731 127.355757 
L 279.135003 120.953022 
L 280.121275 121.421514 
L 281.107547 121.421514 
L 282.093819 117.751654 
L 283.080091 99.870843 
L 284.066363 77.851679 
L 285.052635 74.650312 
L 286.038908 67.779083 
L 287.02518 53.568133 
L 288.011452 38.888691 
L 288.997724 36.155816 
L 289.983996 33.422941 
L 290.970268 43.105127 
L 291.95654 48.648959 
L 292.942812 53.255805 
L 293.929084 66.607851 
L 294.915356 79.959897 
L 295.901629 73.088669 
L 296.887901 81.365376 
L 297.874173 85.972222 
L 298.860445 94.248929 
L 299.846717 98.855776 
L 300.832989 107.132483 
L 301.819261 115.40919 
L 302.805533 115.40919 
L 303.791805 119.547543 
L 304.778077 127.82425 
L 305.76435 127.82425 
L 306.750622 127.82425 
L 307.736894 127.82425 
L 308.723166 127.82425 
L 309.709438 127.82425 
" clip-path="url(#p5ad6df5dfa)" style="fill: none; stroke: #000000; stroke-width: 1.5; stroke-linecap: square"/>
   </g>
   <g id="patch_8">
    <path d="M 207.186453 127.82425 
L 207.186453 28.39625 
" style="fill: none; stroke: #000000; stroke-width: 0.8; stroke-linejoin: miter; stroke-linecap: square"/>
   </g>
   <g id="patch_9">
    <path d="M 314.591485 127.82425 
L 314.591485 28.39625 
" style="fill: none; stroke: #000000; stroke-width: 0.8; stroke-linejoin: miter; stroke-linecap: square"/>
   </g>
   <g id="patch_10">
    <path d="M 207.186453 127.82425 
L 314.591485 127.82425 
" style="fill: none; stroke: #000000; stroke-width: 0.8; stroke-linejoin: miter; stroke-linecap: square"/>
   </g>
   <g id="patch_11">
    <path d="M 207.186453 28.39625 
L 314.591485 28.39625 
" style="fill: none; stroke: #000000; stroke-width: 0.8; stroke-linejoin: miter; stroke-linecap: square"/>
   </g>
   <g id="text_22">
    <!-- voxel 501 -->
    <g transform="translate(236.624906 11.198437) scale(0.1 -0.1)">
     <use xlink:href="#DejaVuSans-76"/>
     <use xlink:href="#DejaVuSans-6f" x="59.179688"/>
     <use xlink:href="#DejaVuSans-78" x="117.236328"/>
     <use xlink:href="#DejaVuSans-65" x="173.291016"/>
     <use xlink:href="#DejaVuSans-6c" x="234.814453"/>
     <use xlink:href="#DejaVuSans-20" x="262.597656"/>
     <use xlink:href="#DejaVuSans-35" x="294.384766"/>
     <use xlink:href="#DejaVuSans-30" x="358.007812"/>
     <use xlink:href="#DejaVuSans-31" x="421.630859"/>
    </g>
    <!--   cumsum = 1195.40 -->
    <g transform="translate(208.234281 22.39625) scale(0.1 -0.1)">
     <defs>
      <path id="DejaVuSans-39" d="M 703 97 
L 703 672 
Q 941 559 1184 500 
Q 1428 441 1663 441 
Q 2288 441 2617 861 
Q 2947 1281 2994 2138 
Q 2813 1869 2534 1725 
Q 2256 1581 1919 1581 
Q 1219 1581 811 2004 
Q 403 2428 403 3163 
Q 403 3881 828 4315 
Q 1253 4750 1959 4750 
Q 2769 4750 3195 4129 
Q 3622 3509 3622 2328 
Q 3622 1225 3098 567 
Q 2575 -91 1691 -91 
Q 1453 -91 1209 -44 
Q 966 3 703 97 
z
M 1959 2075 
Q 2384 2075 2632 2365 
Q 2881 2656 2881 3163 
Q 2881 3666 2632 3958 
Q 2384 4250 1959 4250 
Q 1534 4250 1286 3958 
Q 1038 3666 1038 3163 
Q 1038 2656 1286 2365 
Q 1534 2075 1959 2075 
z
" transform="scale(0.015625)"/>
      <path id="DejaVuSans-34" d="M 2419 4116 
L 825 1625 
L 2419 1625 
L 2419 4116 
z
M 2253 4666 
L 3047 4666 
L 3047 1625 
L 3713 1625 
L 3713 1100 
L 3047 1100 
L 3047 0 
L 2419 0 
L 2419 1100 
L 313 1100 
L 313 1709 
L 2253 4666 
z
" transform="scale(0.015625)"/>
     </defs>
     <use xlink:href="#DejaVuSans-20"/>
     <use xlink:href="#DejaVuSans-20" x="31.787109"/>
     <use xlink:href="#DejaVuSans-63" x="63.574219"/>
     <use xlink:href="#DejaVuSans-75" x="118.554688"/>
     <use xlink:href="#DejaVuSans-6d" x="181.933594"/>
     <use xlink:href="#DejaVuSans-73" x="279.345703"/>
     <use xlink:href="#DejaVuSans-75" x="331.445312"/>
     <use xlink:href="#DejaVuSans-6d" x="394.824219"/>
     <use xlink:href="#DejaVuSans-20" x="492.236328"/>
     <use xlink:href="#DejaVuSans-3d" x="524.023438"/>
     <use xlink:href="#DejaVuSans-20" x="607.8125"/>
     <use xlink:href="#DejaVuSans-31" x="639.599609"/>
     <use xlink:href="#DejaVuSans-31" x="703.222656"/>
     <use xlink:href="#DejaVuSans-39" x="766.845703"/>
     <use xlink:href="#DejaVuSans-35" x="830.46875"/>
     <use xlink:href="#DejaVuSans-2e" x="894.091797"/>
     <use xlink:href="#DejaVuSans-34" x="925.878906"/>
     <use xlink:href="#DejaVuSans-30" x="989.501953"/>
    </g>
   </g>
  </g>
  <g id="axes_3">
   <g id="patch_12">
    <path d="M 371.007281 127.82425 
L 478.412313 127.82425 
L 478.412313 28.39625 
L 371.007281 28.39625 
z
" style="fill: #ffffff"/>
   </g>
   <g id="matplotlib.axis_5">
    <g id="xtick_7">
     <g id="line2d_35">
      <path d="M 375.889328 127.82425 
L 375.889328 28.39625 
" clip-path="url(#p939da501a2)" style="fill: none; stroke: #b0b0b0; stroke-opacity: 0.5; stroke-width: 0.8; stroke-linecap: square"/>
     </g>
     <g id="line2d_36">
      <g>
       <use xlink:href="#m8d5912f6f0" x="375.889328" y="127.82425" style="stroke: #000000; stroke-width: 0.8"/>
      </g>
     </g>
     <g id="text_23">
      <!-- 0 -->
      <g transform="translate(372.708078 142.422687) scale(0.1 -0.1)">
       <use xlink:href="#DejaVuSans-30"/>
      </g>
     </g>
    </g>
    <g id="xtick_8">
     <g id="line2d_37">
      <path d="M 425.202933 127.82425 
L 425.202933 28.39625 
" clip-path="url(#p939da501a2)" style="fill: none; stroke: #b0b0b0; stroke-opacity: 0.5; stroke-width: 0.8; stroke-linecap: square"/>
     </g>
     <g id="line2d_38">
      <g>
       <use xlink:href="#m8d5912f6f0" x="425.202933" y="127.82425" style="stroke: #000000; stroke-width: 0.8"/>
      </g>
     </g>
     <g id="text_24">
      <!-- 50 -->
      <g transform="translate(418.840433 142.422687) scale(0.1 -0.1)">
       <use xlink:href="#DejaVuSans-35"/>
       <use xlink:href="#DejaVuSans-30" x="63.623047"/>
      </g>
     </g>
    </g>
    <g id="xtick_9">
     <g id="line2d_39">
      <path d="M 474.516538 127.82425 
L 474.516538 28.39625 
" clip-path="url(#p939da501a2)" style="fill: none; stroke: #b0b0b0; stroke-opacity: 0.5; stroke-width: 0.8; stroke-linecap: square"/>
     </g>
     <g id="line2d_40">
      <g>
       <use xlink:href="#m8d5912f6f0" x="474.516538" y="127.82425" style="stroke: #000000; stroke-width: 0.8"/>
      </g>
     </g>
     <g id="text_25">
      <!-- 100 -->
      <g transform="translate(464.972788 142.422687) scale(0.1 -0.1)">
       <use xlink:href="#DejaVuSans-31"/>
       <use xlink:href="#DejaVuSans-30" x="63.623047"/>
       <use xlink:href="#DejaVuSans-30" x="127.246094"/>
      </g>
     </g>
    </g>
    <g id="text_26">
     <!-- bin number -->
     <g transform="translate(395.874641 156.100812) scale(0.1 -0.1)">
      <use xlink:href="#DejaVuSans-62"/>
      <use xlink:href="#DejaVuSans-69" x="63.476562"/>
      <use xlink:href="#DejaVuSans-6e" x="91.259766"/>
      <use xlink:href="#DejaVuSans-20" x="154.638672"/>
      <use xlink:href="#DejaVuSans-6e" x="186.425781"/>
      <use xlink:href="#DejaVuSans-75" x="249.804688"/>
      <use xlink:href="#DejaVuSans-6d" x="313.183594"/>
      <use xlink:href="#DejaVuSans-62" x="410.595703"/>
      <use xlink:href="#DejaVuSans-65" x="474.072266"/>
      <use xlink:href="#DejaVuSans-72" x="535.595703"/>
     </g>
    </g>
   </g>
   <g id="matplotlib.axis_6">
    <g id="ytick_11">
     <g id="line2d_41">
      <path d="M 371.007281 127.82425 
L 478.412313 127.82425 
" clip-path="url(#p939da501a2)" style="fill: none; stroke: #b0b0b0; stroke-opacity: 0.5; stroke-width: 0.8; stroke-linecap: square"/>
     </g>
     <g id="line2d_42">
      <g>
       <use xlink:href="#m2c769adcfc" x="371.007281" y="127.82425" style="stroke: #000000; stroke-width: 0.8"/>
      </g>
     </g>
     <g id="text_27">
      <!-- 0 -->
      <g transform="translate(357.644781 131.623469) scale(0.1 -0.1)">
       <use xlink:href="#DejaVuSans-30"/>
      </g>
     </g>
    </g>
    <g id="ytick_12">
     <g id="line2d_43">
      <path d="M 371.007281 102.96725 
L 478.412313 102.96725 
" clip-path="url(#p939da501a2)" style="fill: none; stroke: #b0b0b0; stroke-opacity: 0.5; stroke-width: 0.8; stroke-linecap: square"/>
     </g>
     <g id="line2d_44">
      <g>
       <use xlink:href="#m2c769adcfc" x="371.007281" y="102.96725" style="stroke: #000000; stroke-width: 0.8"/>
      </g>
     </g>
     <g id="text_28">
      <!-- 25 -->
      <g transform="translate(351.282281 106.766469) scale(0.1 -0.1)">
       <use xlink:href="#DejaVuSans-32"/>
       <use xlink:href="#DejaVuSans-35" x="63.623047"/>
      </g>
     </g>
    </g>
    <g id="ytick_13">
     <g id="line2d_45">
      <path d="M 371.007281 78.11025 
L 478.412313 78.11025 
" clip-path="url(#p939da501a2)" style="fill: none; stroke: #b0b0b0; stroke-opacity: 0.5; stroke-width: 0.8; stroke-linecap: square"/>
     </g>
     <g id="line2d_46">
      <g>
       <use xlink:href="#m2c769adcfc" x="371.007281" y="78.11025" style="stroke: #000000; stroke-width: 0.8"/>
      </g>
     </g>
     <g id="text_29">
      <!-- 50 -->
      <g transform="translate(351.282281 81.909469) scale(0.1 -0.1)">
       <use xlink:href="#DejaVuSans-35"/>
       <use xlink:href="#DejaVuSans-30" x="63.623047"/>
      </g>
     </g>
    </g>
    <g id="ytick_14">
     <g id="line2d_47">
      <path d="M 371.007281 53.25325 
L 478.412313 53.25325 
" clip-path="url(#p939da501a2)" style="fill: none; stroke: #b0b0b0; stroke-opacity: 0.5; stroke-width: 0.8; stroke-linecap: square"/>
     </g>
     <g id="line2d_48">
      <g>
       <use xlink:href="#m2c769adcfc" x="371.007281" y="53.25325" style="stroke: #000000; stroke-width: 0.8"/>
      </g>
     </g>
     <g id="text_30">
      <!-- 75 -->
      <g transform="translate(351.282281 57.052469) scale(0.1 -0.1)">
       <use xlink:href="#DejaVuSans-37"/>
       <use xlink:href="#DejaVuSans-35" x="63.623047"/>
      </g>
     </g>
    </g>
    <g id="ytick_15">
     <g id="line2d_49">
      <path d="M 371.007281 28.39625 
L 478.412313 28.39625 
" clip-path="url(#p939da501a2)" style="fill: none; stroke: #b0b0b0; stroke-opacity: 0.5; stroke-width: 0.8; stroke-linecap: square"/>
     </g>
     <g id="line2d_50">
      <g>
       <use xlink:href="#m2c769adcfc" x="371.007281" y="28.39625" style="stroke: #000000; stroke-width: 0.8"/>
      </g>
     </g>
     <g id="text_31">
      <!-- 100 -->
      <g transform="translate(344.919781 32.195469) scale(0.1 -0.1)">
       <use xlink:href="#DejaVuSans-31"/>
       <use xlink:href="#DejaVuSans-30" x="63.623047"/>
       <use xlink:href="#DejaVuSans-30" x="127.246094"/>
      </g>
     </g>
    </g>
    <g id="text_32">
     <!-- sum of each bin [-] -->
     <g transform="translate(338.840094 125.425875) rotate(-90) scale(0.1 -0.1)">
      <use xlink:href="#DejaVuSans-73"/>
      <use xlink:href="#DejaVuSans-75" x="52.099609"/>
      <use xlink:href="#DejaVuSans-6d" x="115.478516"/>
      <use xlink:href="#DejaVuSans-20" x="212.890625"/>
      <use xlink:href="#DejaVuSans-6f" x="244.677734"/>
      <use xlink:href="#DejaVuSans-66" x="305.859375"/>
      <use xlink:href="#DejaVuSans-20" x="341.064453"/>
      <use xlink:href="#DejaVuSans-65" x="372.851562"/>
      <use xlink:href="#DejaVuSans-61" x="434.375"/>
      <use xlink:href="#DejaVuSans-63" x="495.654297"/>
      <use xlink:href="#DejaVuSans-68" x="550.634766"/>
      <use xlink:href="#DejaVuSans-20" x="614.013672"/>
      <use xlink:href="#DejaVuSans-62" x="645.800781"/>
      <use xlink:href="#DejaVuSans-69" x="709.277344"/>
      <use xlink:href="#DejaVuSans-6e" x="737.060547"/>
      <use xlink:href="#DejaVuSans-20" x="800.439453"/>
      <use xlink:href="#DejaVuSans-5b" x="832.226562"/>
      <use xlink:href="#DejaVuSans-2d" x="871.240234"/>
      <use xlink:href="#DejaVuSans-5d" x="907.324219"/>
     </g>
    </g>
   </g>
   <g id="line2d_51">
    <path d="M 375.889328 127.82425 
L 376.8756 127.82425 
L 377.861872 127.82425 
L 378.848144 127.82425 
L 379.834416 127.82425 
L 380.820688 127.82425 
L 381.806961 127.82425 
L 382.793233 127.82425 
L 383.779505 127.82425 
L 384.765777 127.82425 
L 385.752049 127.82425 
L 386.738321 127.82425 
L 387.724593 127.82425 
L 388.710865 127.82425 
L 389.697137 127.82425 
L 390.683409 127.82425 
L 391.669682 127.82425 
L 392.655954 127.82425 
L 393.642226 127.82425 
L 394.628498 127.82425 
L 395.61477 127.82425 
L 396.601042 127.82425 
L 397.587314 127.82425 
L 398.573586 127.82425 
L 399.559858 127.82425 
L 400.54613 127.82425 
L 401.532403 127.82425 
L 402.518675 127.82425 
L 403.504947 127.82425 
L 404.491219 127.82425 
L 405.477491 127.82425 
L 406.463763 127.82425 
L 407.450035 127.82425 
L 408.436307 127.82425 
L 409.422579 127.82425 
L 410.408852 127.82425 
L 411.395124 127.82425 
L 412.381396 127.82425 
L 413.367668 127.82425 
L 414.35394 127.82425 
L 415.340212 127.82425 
L 416.326484 127.82425 
L 417.312756 127.82425 
L 418.299028 127.82425 
L 419.2853 127.82425 
L 420.271573 127.82425 
L 421.257845 127.82425 
L 422.244117 127.82425 
L 423.230389 127.82425 
L 424.216661 127.82425 
L 425.202933 127.82425 
L 426.189205 127.82425 
L 427.175477 127.82425 
L 428.161749 127.82425 
L 429.148021 127.82425 
L 430.134294 127.82425 
L 431.120566 127.82425 
L 432.106838 127.82425 
L 433.09311 127.82425 
L 434.079382 123.685897 
L 435.065654 123.685897 
L 436.051926 123.685897 
L 437.038198 123.685897 
L 438.02447 123.685897 
L 439.010742 119.547543 
L 439.997015 123.217404 
L 440.983287 123.217404 
L 441.969559 123.217404 
L 442.955831 126.887264 
L 443.942103 117.751654 
L 444.928375 114.550286 
L 445.914647 107.679058 
L 446.900919 96.669476 
L 447.887191 82.927019 
L 448.873463 72.38593 
L 449.859736 74.259901 
L 450.846008 68.325658 
L 451.83228 55.051694 
L 452.818552 63.796894 
L 453.804824 61.532512 
L 454.791096 79.022912 
L 455.777368 100.651665 
L 456.76364 96.981804 
L 457.749912 97.450297 
L 458.736184 97.91879 
L 459.722457 106.66399 
L 460.708729 119.07905 
L 461.695001 119.547543 
L 462.681273 123.685897 
L 463.667545 127.82425 
L 464.653817 127.82425 
L 465.640089 127.82425 
L 466.626361 127.82425 
L 467.612633 127.82425 
L 468.598905 127.82425 
L 469.585178 127.82425 
L 470.57145 127.82425 
L 471.557722 127.82425 
L 472.543994 127.82425 
L 473.530266 127.82425 
" clip-path="url(#p939da501a2)" style="fill: none; stroke: #000000; stroke-width: 1.5; stroke-linecap: square"/>
   </g>
   <g id="patch_13">
    <path d="M 371.007281 127.82425 
L 371.007281 28.39625 
" style="fill: none; stroke: #000000; stroke-width: 0.8; stroke-linejoin: miter; stroke-linecap: square"/>
   </g>
   <g id="patch_14">
    <path d="M 478.412313 127.82425 
L 478.412313 28.39625 
" style="fill: none; stroke: #000000; stroke-width: 0.8; stroke-linejoin: miter; stroke-linecap: square"/>
   </g>
   <g id="patch_15">
    <path d="M 371.007281 127.82425 
L 478.412313 127.82425 
" style="fill: none; stroke: #000000; stroke-width: 0.8; stroke-linejoin: miter; stroke-linecap: square"/>
   </g>
   <g id="patch_16">
    <path d="M 371.007281 28.39625 
L 478.412313 28.39625 
" style="fill: none; stroke: #000000; stroke-width: 0.8; stroke-linejoin: miter; stroke-linecap: square"/>
   </g>
   <g id="text_33">
    <!-- voxel 2103 -->
    <g transform="translate(397.264484 11.198437) scale(0.1 -0.1)">
     <defs>
      <path id="DejaVuSans-33" d="M 2597 2516 
Q 3050 2419 3304 2112 
Q 3559 1806 3559 1356 
Q 3559 666 3084 287 
Q 2609 -91 1734 -91 
Q 1441 -91 1130 -33 
Q 819 25 488 141 
L 488 750 
Q 750 597 1062 519 
Q 1375 441 1716 441 
Q 2309 441 2620 675 
Q 2931 909 2931 1356 
Q 2931 1769 2642 2001 
Q 2353 2234 1838 2234 
L 1294 2234 
L 1294 2753 
L 1863 2753 
Q 2328 2753 2575 2939 
Q 2822 3125 2822 3475 
Q 2822 3834 2567 4026 
Q 2313 4219 1838 4219 
Q 1578 4219 1281 4162 
Q 984 4106 628 3988 
L 628 4550 
Q 988 4650 1302 4700 
Q 1616 4750 1894 4750 
Q 2613 4750 3031 4423 
Q 3450 4097 3450 3541 
Q 3450 3153 3228 2886 
Q 3006 2619 2597 2516 
z
" transform="scale(0.015625)"/>
     </defs>
     <use xlink:href="#DejaVuSans-76"/>
     <use xlink:href="#DejaVuSans-6f" x="59.179688"/>
     <use xlink:href="#DejaVuSans-78" x="117.236328"/>
     <use xlink:href="#DejaVuSans-65" x="173.291016"/>
     <use xlink:href="#DejaVuSans-6c" x="234.814453"/>
     <use xlink:href="#DejaVuSans-20" x="262.597656"/>
     <use xlink:href="#DejaVuSans-32" x="294.384766"/>
     <use xlink:href="#DejaVuSans-31" x="358.007812"/>
     <use xlink:href="#DejaVuSans-30" x="421.630859"/>
     <use xlink:href="#DejaVuSans-33" x="485.253906"/>
    </g>
    <!--   cumsum = 748.56 -->
    <g transform="translate(375.236359 22.39625) scale(0.1 -0.1)">
     <defs>
      <path id="DejaVuSans-38" d="M 2034 2216 
Q 1584 2216 1326 1975 
Q 1069 1734 1069 1313 
Q 1069 891 1326 650 
Q 1584 409 2034 409 
Q 2484 409 2743 651 
Q 3003 894 3003 1313 
Q 3003 1734 2745 1975 
Q 2488 2216 2034 2216 
z
M 1403 2484 
Q 997 2584 770 2862 
Q 544 3141 544 3541 
Q 544 4100 942 4425 
Q 1341 4750 2034 4750 
Q 2731 4750 3128 4425 
Q 3525 4100 3525 3541 
Q 3525 3141 3298 2862 
Q 3072 2584 2669 2484 
Q 3125 2378 3379 2068 
Q 3634 1759 3634 1313 
Q 3634 634 3220 271 
Q 2806 -91 2034 -91 
Q 1263 -91 848 271 
Q 434 634 434 1313 
Q 434 1759 690 2068 
Q 947 2378 1403 2484 
z
M 1172 3481 
Q 1172 3119 1398 2916 
Q 1625 2713 2034 2713 
Q 2441 2713 2670 2916 
Q 2900 3119 2900 3481 
Q 2900 3844 2670 4047 
Q 2441 4250 2034 4250 
Q 1625 4250 1398 4047 
Q 1172 3844 1172 3481 
z
" transform="scale(0.015625)"/>
      <path id="DejaVuSans-36" d="M 2113 2584 
Q 1688 2584 1439 2293 
Q 1191 2003 1191 1497 
Q 1191 994 1439 701 
Q 1688 409 2113 409 
Q 2538 409 2786 701 
Q 3034 994 3034 1497 
Q 3034 2003 2786 2293 
Q 2538 2584 2113 2584 
z
M 3366 4563 
L 3366 3988 
Q 3128 4100 2886 4159 
Q 2644 4219 2406 4219 
Q 1781 4219 1451 3797 
Q 1122 3375 1075 2522 
Q 1259 2794 1537 2939 
Q 1816 3084 2150 3084 
Q 2853 3084 3261 2657 
Q 3669 2231 3669 1497 
Q 3669 778 3244 343 
Q 2819 -91 2113 -91 
Q 1303 -91 875 529 
Q 447 1150 447 2328 
Q 447 3434 972 4092 
Q 1497 4750 2381 4750 
Q 2619 4750 2861 4703 
Q 3103 4656 3366 4563 
z
" transform="scale(0.015625)"/>
     </defs>
     <use xlink:href="#DejaVuSans-20"/>
     <use xlink:href="#DejaVuSans-20" x="31.787109"/>
     <use xlink:href="#DejaVuSans-63" x="63.574219"/>
     <use xlink:href="#DejaVuSans-75" x="118.554688"/>
     <use xlink:href="#DejaVuSans-6d" x="181.933594"/>
     <use xlink:href="#DejaVuSans-73" x="279.345703"/>
     <use xlink:href="#DejaVuSans-75" x="331.445312"/>
     <use xlink:href="#DejaVuSans-6d" x="394.824219"/>
     <use xlink:href="#DejaVuSans-20" x="492.236328"/>
     <use xlink:href="#DejaVuSans-3d" x="524.023438"/>
     <use xlink:href="#DejaVuSans-20" x="607.8125"/>
     <use xlink:href="#DejaVuSans-37" x="639.599609"/>
     <use xlink:href="#DejaVuSans-34" x="703.222656"/>
     <use xlink:href="#DejaVuSans-38" x="766.845703"/>
     <use xlink:href="#DejaVuSans-2e" x="830.46875"/>
     <use xlink:href="#DejaVuSans-35" x="862.255859"/>
     <use xlink:href="#DejaVuSans-36" x="925.878906"/>
    </g>
   </g>
  </g>
  <g id="axes_4">
   <g id="patch_17">
    <path d="M 534.828109 127.82425 
L 642.233141 127.82425 
L 642.233141 28.39625 
L 534.828109 28.39625 
z
" style="fill: #ffffff"/>
   </g>
   <g id="matplotlib.axis_7">
    <g id="xtick_10">
     <g id="line2d_52">
      <path d="M 539.710156 127.82425 
L 539.710156 28.39625 
" clip-path="url(#p5d3e33d14c)" style="fill: none; stroke: #b0b0b0; stroke-opacity: 0.5; stroke-width: 0.8; stroke-linecap: square"/>
     </g>
     <g id="line2d_53">
      <g>
       <use xlink:href="#m8d5912f6f0" x="539.710156" y="127.82425" style="stroke: #000000; stroke-width: 0.8"/>
      </g>
     </g>
     <g id="text_34">
      <!-- 0 -->
      <g transform="translate(536.528906 142.422687) scale(0.1 -0.1)">
       <use xlink:href="#DejaVuSans-30"/>
      </g>
     </g>
    </g>
    <g id="xtick_11">
     <g id="line2d_54">
      <path d="M 589.023761 127.82425 
L 589.023761 28.39625 
" clip-path="url(#p5d3e33d14c)" style="fill: none; stroke: #b0b0b0; stroke-opacity: 0.5; stroke-width: 0.8; stroke-linecap: square"/>
     </g>
     <g id="line2d_55">
      <g>
       <use xlink:href="#m8d5912f6f0" x="589.023761" y="127.82425" style="stroke: #000000; stroke-width: 0.8"/>
      </g>
     </g>
     <g id="text_35">
      <!-- 50 -->
      <g transform="translate(582.661261 142.422687) scale(0.1 -0.1)">
       <use xlink:href="#DejaVuSans-35"/>
       <use xlink:href="#DejaVuSans-30" x="63.623047"/>
      </g>
     </g>
    </g>
    <g id="xtick_12">
     <g id="line2d_56">
      <path d="M 638.337366 127.82425 
L 638.337366 28.39625 
" clip-path="url(#p5d3e33d14c)" style="fill: none; stroke: #b0b0b0; stroke-opacity: 0.5; stroke-width: 0.8; stroke-linecap: square"/>
     </g>
     <g id="line2d_57">
      <g>
       <use xlink:href="#m8d5912f6f0" x="638.337366" y="127.82425" style="stroke: #000000; stroke-width: 0.8"/>
      </g>
     </g>
     <g id="text_36">
      <!-- 100 -->
      <g transform="translate(628.793616 142.422687) scale(0.1 -0.1)">
       <use xlink:href="#DejaVuSans-31"/>
       <use xlink:href="#DejaVuSans-30" x="63.623047"/>
       <use xlink:href="#DejaVuSans-30" x="127.246094"/>
      </g>
     </g>
    </g>
    <g id="text_37">
     <!-- bin number -->
     <g transform="translate(559.695469 156.100812) scale(0.1 -0.1)">
      <use xlink:href="#DejaVuSans-62"/>
      <use xlink:href="#DejaVuSans-69" x="63.476562"/>
      <use xlink:href="#DejaVuSans-6e" x="91.259766"/>
      <use xlink:href="#DejaVuSans-20" x="154.638672"/>
      <use xlink:href="#DejaVuSans-6e" x="186.425781"/>
      <use xlink:href="#DejaVuSans-75" x="249.804688"/>
      <use xlink:href="#DejaVuSans-6d" x="313.183594"/>
      <use xlink:href="#DejaVuSans-62" x="410.595703"/>
      <use xlink:href="#DejaVuSans-65" x="474.072266"/>
      <use xlink:href="#DejaVuSans-72" x="535.595703"/>
     </g>
    </g>
   </g>
   <g id="matplotlib.axis_8">
    <g id="ytick_16">
     <g id="line2d_58">
      <path d="M 534.828109 127.82425 
L 642.233141 127.82425 
" clip-path="url(#p5d3e33d14c)" style="fill: none; stroke: #b0b0b0; stroke-opacity: 0.5; stroke-width: 0.8; stroke-linecap: square"/>
     </g>
     <g id="line2d_59">
      <g>
       <use xlink:href="#m2c769adcfc" x="534.828109" y="127.82425" style="stroke: #000000; stroke-width: 0.8"/>
      </g>
     </g>
     <g id="text_38">
      <!-- 0 -->
      <g transform="translate(521.465609 131.623469) scale(0.1 -0.1)">
       <use xlink:href="#DejaVuSans-30"/>
      </g>
     </g>
    </g>
    <g id="ytick_17">
     <g id="line2d_60">
      <path d="M 534.828109 102.96725 
L 642.233141 102.96725 
" clip-path="url(#p5d3e33d14c)" style="fill: none; stroke: #b0b0b0; stroke-opacity: 0.5; stroke-width: 0.8; stroke-linecap: square"/>
     </g>
     <g id="line2d_61">
      <g>
       <use xlink:href="#m2c769adcfc" x="534.828109" y="102.96725" style="stroke: #000000; stroke-width: 0.8"/>
      </g>
     </g>
     <g id="text_39">
      <!-- 25 -->
      <g transform="translate(515.103109 106.766469) scale(0.1 -0.1)">
       <use xlink:href="#DejaVuSans-32"/>
       <use xlink:href="#DejaVuSans-35" x="63.623047"/>
      </g>
     </g>
    </g>
    <g id="ytick_18">
     <g id="line2d_62">
      <path d="M 534.828109 78.11025 
L 642.233141 78.11025 
" clip-path="url(#p5d3e33d14c)" style="fill: none; stroke: #b0b0b0; stroke-opacity: 0.5; stroke-width: 0.8; stroke-linecap: square"/>
     </g>
     <g id="line2d_63">
      <g>
       <use xlink:href="#m2c769adcfc" x="534.828109" y="78.11025" style="stroke: #000000; stroke-width: 0.8"/>
      </g>
     </g>
     <g id="text_40">
      <!-- 50 -->
      <g transform="translate(515.103109 81.909469) scale(0.1 -0.1)">
       <use xlink:href="#DejaVuSans-35"/>
       <use xlink:href="#DejaVuSans-30" x="63.623047"/>
      </g>
     </g>
    </g>
    <g id="ytick_19">
     <g id="line2d_64">
      <path d="M 534.828109 53.25325 
L 642.233141 53.25325 
" clip-path="url(#p5d3e33d14c)" style="fill: none; stroke: #b0b0b0; stroke-opacity: 0.5; stroke-width: 0.8; stroke-linecap: square"/>
     </g>
     <g id="line2d_65">
      <g>
       <use xlink:href="#m2c769adcfc" x="534.828109" y="53.25325" style="stroke: #000000; stroke-width: 0.8"/>
      </g>
     </g>
     <g id="text_41">
      <!-- 75 -->
      <g transform="translate(515.103109 57.052469) scale(0.1 -0.1)">
       <use xlink:href="#DejaVuSans-37"/>
       <use xlink:href="#DejaVuSans-35" x="63.623047"/>
      </g>
     </g>
    </g>
    <g id="ytick_20">
     <g id="line2d_66">
      <path d="M 534.828109 28.39625 
L 642.233141 28.39625 
" clip-path="url(#p5d3e33d14c)" style="fill: none; stroke: #b0b0b0; stroke-opacity: 0.5; stroke-width: 0.8; stroke-linecap: square"/>
     </g>
     <g id="line2d_67">
      <g>
       <use xlink:href="#m2c769adcfc" x="534.828109" y="28.39625" style="stroke: #000000; stroke-width: 0.8"/>
      </g>
     </g>
     <g id="text_42">
      <!-- 100 -->
      <g transform="translate(508.740609 32.195469) scale(0.1 -0.1)">
       <use xlink:href="#DejaVuSans-31"/>
       <use xlink:href="#DejaVuSans-30" x="63.623047"/>
       <use xlink:href="#DejaVuSans-30" x="127.246094"/>
      </g>
     </g>
    </g>
    <g id="text_43">
     <!-- sum of each bin [-] -->
     <g transform="translate(502.660922 125.425875) rotate(-90) scale(0.1 -0.1)">
      <use xlink:href="#DejaVuSans-73"/>
      <use xlink:href="#DejaVuSans-75" x="52.099609"/>
      <use xlink:href="#DejaVuSans-6d" x="115.478516"/>
      <use xlink:href="#DejaVuSans-20" x="212.890625"/>
      <use xlink:href="#DejaVuSans-6f" x="244.677734"/>
      <use xlink:href="#DejaVuSans-66" x="305.859375"/>
      <use xlink:href="#DejaVuSans-20" x="341.064453"/>
      <use xlink:href="#DejaVuSans-65" x="372.851562"/>
      <use xlink:href="#DejaVuSans-61" x="434.375"/>
      <use xlink:href="#DejaVuSans-63" x="495.654297"/>
      <use xlink:href="#DejaVuSans-68" x="550.634766"/>
      <use xlink:href="#DejaVuSans-20" x="614.013672"/>
      <use xlink:href="#DejaVuSans-62" x="645.800781"/>
      <use xlink:href="#DejaVuSans-69" x="709.277344"/>
      <use xlink:href="#DejaVuSans-6e" x="737.060547"/>
      <use xlink:href="#DejaVuSans-20" x="800.439453"/>
      <use xlink:href="#DejaVuSans-5b" x="832.226562"/>
      <use xlink:href="#DejaVuSans-2d" x="871.240234"/>
      <use xlink:href="#DejaVuSans-5d" x="907.324219"/>
     </g>
    </g>
   </g>
   <g id="line2d_68">
    <path d="M 539.710156 127.82425 
L 540.696428 127.82425 
L 541.6827 127.82425 
L 542.668972 127.82425 
L 543.655244 127.82425 
L 544.641516 127.82425 
L 545.627789 127.82425 
L 546.614061 127.82425 
L 547.600333 127.82425 
L 548.586605 127.82425 
L 549.572877 127.82425 
L 550.559149 127.82425 
L 551.545421 127.82425 
L 552.531693 127.82425 
L 553.517965 127.82425 
L 554.504238 127.82425 
L 555.49051 127.82425 
L 556.476782 127.82425 
L 557.463054 127.82425 
L 558.449326 127.82425 
L 559.435598 127.82425 
L 560.42187 127.82425 
L 561.408142 127.82425 
L 562.394414 127.82425 
L 563.380686 127.82425 
L 564.366959 127.82425 
L 565.353231 127.82425 
L 566.339503 127.82425 
L 567.325775 127.82425 
L 568.312047 127.82425 
L 569.298319 127.82425 
L 570.284591 127.82425 
L 571.270863 127.82425 
L 572.257135 127.82425 
L 573.243407 127.82425 
L 574.22968 127.82425 
L 575.215952 127.82425 
L 576.202224 127.82425 
L 577.188496 127.82425 
L 578.174768 127.82425 
L 579.16104 127.82425 
L 580.147312 127.82425 
L 581.133584 127.82425 
L 582.119856 127.82425 
L 583.106128 127.82425 
L 584.092401 127.82425 
L 585.078673 127.82425 
L 586.064945 127.82425 
L 587.051217 127.82425 
L 588.037489 127.82425 
L 589.023761 127.82425 
L 590.010033 127.82425 
L 590.996305 127.82425 
L 591.982577 127.82425 
L 592.968849 127.82425 
L 593.955122 127.82425 
L 594.941394 127.82425 
L 595.927666 127.82425 
L 596.913938 127.82425 
L 597.90021 124.154389 
L 598.886482 124.154389 
L 599.872754 124.154389 
L 600.859026 120.484529 
L 601.845298 116.814668 
L 602.83157 116.814668 
L 603.817843 116.814668 
L 604.804115 113.144807 
L 605.790387 105.805086 
L 606.776659 110.880425 
L 607.762931 110.880425 
L 608.749203 99.870843 
L 609.735475 96.669476 
L 610.721747 101.744815 
L 611.708019 84.332497 
L 612.694291 67.857165 
L 613.680564 60.985937 
L 614.666836 70.19963 
L 615.653108 83.551676 
L 616.63938 84.957154 
L 617.625652 77.617433 
L 618.611924 95.107833 
L 619.598196 100.183172 
L 620.584468 100.651665 
L 621.57074 114.003711 
L 622.557012 110.802343 
L 623.543285 119.07905 
L 624.529557 127.355757 
L 625.515829 127.355757 
L 626.502101 123.685897 
L 627.488373 127.82425 
L 628.474645 127.82425 
L 629.460917 127.82425 
L 630.447189 127.82425 
L 631.433461 127.82425 
L 632.419734 127.82425 
L 633.406006 127.82425 
L 634.392278 127.82425 
L 635.37855 127.82425 
L 636.364822 127.82425 
L 637.351094 127.82425 
" clip-path="url(#p5d3e33d14c)" style="fill: none; stroke: #000000; stroke-width: 1.5; stroke-linecap: square"/>
   </g>
   <g id="patch_18">
    <path d="M 534.828109 127.82425 
L 534.828109 28.39625 
" style="fill: none; stroke: #000000; stroke-width: 0.8; stroke-linejoin: miter; stroke-linecap: square"/>
   </g>
   <g id="patch_19">
    <path d="M 642.233141 127.82425 
L 642.233141 28.39625 
" style="fill: none; stroke: #000000; stroke-width: 0.8; stroke-linejoin: miter; stroke-linecap: square"/>
   </g>
   <g id="patch_20">
    <path d="M 534.828109 127.82425 
L 642.233141 127.82425 
" style="fill: none; stroke: #000000; stroke-width: 0.8; stroke-linejoin: miter; stroke-linecap: square"/>
   </g>
   <g id="patch_21">
    <path d="M 534.828109 28.39625 
L 642.233141 28.39625 
" style="fill: none; stroke: #000000; stroke-width: 0.8; stroke-linejoin: miter; stroke-linecap: square"/>
   </g>
   <g id="text_44">
    <!-- voxel 3035 -->
    <g transform="translate(561.085313 11.198437) scale(0.1 -0.1)">
     <use xlink:href="#DejaVuSans-76"/>
     <use xlink:href="#DejaVuSans-6f" x="59.179688"/>
     <use xlink:href="#DejaVuSans-78" x="117.236328"/>
     <use xlink:href="#DejaVuSans-65" x="173.291016"/>
     <use xlink:href="#DejaVuSans-6c" x="234.814453"/>
     <use xlink:href="#DejaVuSans-20" x="262.597656"/>
     <use xlink:href="#DejaVuSans-33" x="294.384766"/>
     <use xlink:href="#DejaVuSans-30" x="358.007812"/>
     <use xlink:href="#DejaVuSans-33" x="421.630859"/>
     <use xlink:href="#DejaVuSans-35" x="485.253906"/>
    </g>
    <!--   cumsum = 708.67 -->
    <g transform="translate(539.057188 22.39625) scale(0.1 -0.1)">
     <use xlink:href="#DejaVuSans-20"/>
     <use xlink:href="#DejaVuSans-20" x="31.787109"/>
     <use xlink:href="#DejaVuSans-63" x="63.574219"/>
     <use xlink:href="#DejaVuSans-75" x="118.554688"/>
     <use xlink:href="#DejaVuSans-6d" x="181.933594"/>
     <use xlink:href="#DejaVuSans-73" x="279.345703"/>
     <use xlink:href="#DejaVuSans-75" x="331.445312"/>
     <use xlink:href="#DejaVuSans-6d" x="394.824219"/>
     <use xlink:href="#DejaVuSans-20" x="492.236328"/>
     <use xlink:href="#DejaVuSans-3d" x="524.023438"/>
     <use xlink:href="#DejaVuSans-20" x="607.8125"/>
     <use xlink:href="#DejaVuSans-37" x="639.599609"/>
     <use xlink:href="#DejaVuSans-30" x="703.222656"/>
     <use xlink:href="#DejaVuSans-38" x="766.845703"/>
     <use xlink:href="#DejaVuSans-2e" x="830.46875"/>
     <use xlink:href="#DejaVuSans-36" x="862.255859"/>
     <use xlink:href="#DejaVuSans-37" x="925.878906"/>
    </g>
   </g>
  </g>
  <g id="axes_5">
   <g id="patch_22">
    <path d="M 698.648937 127.82425 
L 806.053969 127.82425 
L 806.053969 28.39625 
L 698.648937 28.39625 
z
" style="fill: #ffffff"/>
   </g>
   <g id="matplotlib.axis_9">
    <g id="xtick_13">
     <g id="line2d_69">
      <path d="M 703.530984 127.82425 
L 703.530984 28.39625 
" clip-path="url(#pfa7bf519a8)" style="fill: none; stroke: #b0b0b0; stroke-opacity: 0.5; stroke-width: 0.8; stroke-linecap: square"/>
     </g>
     <g id="line2d_70">
      <g>
       <use xlink:href="#m8d5912f6f0" x="703.530984" y="127.82425" style="stroke: #000000; stroke-width: 0.8"/>
      </g>
     </g>
     <g id="text_45">
      <!-- 0 -->
      <g transform="translate(700.349734 142.422687) scale(0.1 -0.1)">
       <use xlink:href="#DejaVuSans-30"/>
      </g>
     </g>
    </g>
    <g id="xtick_14">
     <g id="line2d_71">
      <path d="M 752.844589 127.82425 
L 752.844589 28.39625 
" clip-path="url(#pfa7bf519a8)" style="fill: none; stroke: #b0b0b0; stroke-opacity: 0.5; stroke-width: 0.8; stroke-linecap: square"/>
     </g>
     <g id="line2d_72">
      <g>
       <use xlink:href="#m8d5912f6f0" x="752.844589" y="127.82425" style="stroke: #000000; stroke-width: 0.8"/>
      </g>
     </g>
     <g id="text_46">
      <!-- 50 -->
      <g transform="translate(746.482089 142.422687) scale(0.1 -0.1)">
       <use xlink:href="#DejaVuSans-35"/>
       <use xlink:href="#DejaVuSans-30" x="63.623047"/>
      </g>
     </g>
    </g>
    <g id="xtick_15">
     <g id="line2d_73">
      <path d="M 802.158194 127.82425 
L 802.158194 28.39625 
" clip-path="url(#pfa7bf519a8)" style="fill: none; stroke: #b0b0b0; stroke-opacity: 0.5; stroke-width: 0.8; stroke-linecap: square"/>
     </g>
     <g id="line2d_74">
      <g>
       <use xlink:href="#m8d5912f6f0" x="802.158194" y="127.82425" style="stroke: #000000; stroke-width: 0.8"/>
      </g>
     </g>
     <g id="text_47">
      <!-- 100 -->
      <g transform="translate(792.614444 142.422687) scale(0.1 -0.1)">
       <use xlink:href="#DejaVuSans-31"/>
       <use xlink:href="#DejaVuSans-30" x="63.623047"/>
       <use xlink:href="#DejaVuSans-30" x="127.246094"/>
      </g>
     </g>
    </g>
    <g id="text_48">
     <!-- bin number -->
     <g transform="translate(723.516297 156.100812) scale(0.1 -0.1)">
      <use xlink:href="#DejaVuSans-62"/>
      <use xlink:href="#DejaVuSans-69" x="63.476562"/>
      <use xlink:href="#DejaVuSans-6e" x="91.259766"/>
      <use xlink:href="#DejaVuSans-20" x="154.638672"/>
      <use xlink:href="#DejaVuSans-6e" x="186.425781"/>
      <use xlink:href="#DejaVuSans-75" x="249.804688"/>
      <use xlink:href="#DejaVuSans-6d" x="313.183594"/>
      <use xlink:href="#DejaVuSans-62" x="410.595703"/>
      <use xlink:href="#DejaVuSans-65" x="474.072266"/>
      <use xlink:href="#DejaVuSans-72" x="535.595703"/>
     </g>
    </g>
   </g>
   <g id="matplotlib.axis_10">
    <g id="ytick_21">
     <g id="line2d_75">
      <path d="M 698.648937 127.82425 
L 806.053969 127.82425 
" clip-path="url(#pfa7bf519a8)" style="fill: none; stroke: #b0b0b0; stroke-opacity: 0.5; stroke-width: 0.8; stroke-linecap: square"/>
     </g>
     <g id="line2d_76">
      <g>
       <use xlink:href="#m2c769adcfc" x="698.648937" y="127.82425" style="stroke: #000000; stroke-width: 0.8"/>
      </g>
     </g>
     <g id="text_49">
      <!-- 0 -->
      <g transform="translate(685.286437 131.623469) scale(0.1 -0.1)">
       <use xlink:href="#DejaVuSans-30"/>
      </g>
     </g>
    </g>
    <g id="ytick_22">
     <g id="line2d_77">
      <path d="M 698.648937 102.96725 
L 806.053969 102.96725 
" clip-path="url(#pfa7bf519a8)" style="fill: none; stroke: #b0b0b0; stroke-opacity: 0.5; stroke-width: 0.8; stroke-linecap: square"/>
     </g>
     <g id="line2d_78">
      <g>
       <use xlink:href="#m2c769adcfc" x="698.648937" y="102.96725" style="stroke: #000000; stroke-width: 0.8"/>
      </g>
     </g>
     <g id="text_50">
      <!-- 25 -->
      <g transform="translate(678.923937 106.766469) scale(0.1 -0.1)">
       <use xlink:href="#DejaVuSans-32"/>
       <use xlink:href="#DejaVuSans-35" x="63.623047"/>
      </g>
     </g>
    </g>
    <g id="ytick_23">
     <g id="line2d_79">
      <path d="M 698.648937 78.11025 
L 806.053969 78.11025 
" clip-path="url(#pfa7bf519a8)" style="fill: none; stroke: #b0b0b0; stroke-opacity: 0.5; stroke-width: 0.8; stroke-linecap: square"/>
     </g>
     <g id="line2d_80">
      <g>
       <use xlink:href="#m2c769adcfc" x="698.648937" y="78.11025" style="stroke: #000000; stroke-width: 0.8"/>
      </g>
     </g>
     <g id="text_51">
      <!-- 50 -->
      <g transform="translate(678.923937 81.909469) scale(0.1 -0.1)">
       <use xlink:href="#DejaVuSans-35"/>
       <use xlink:href="#DejaVuSans-30" x="63.623047"/>
      </g>
     </g>
    </g>
    <g id="ytick_24">
     <g id="line2d_81">
      <path d="M 698.648937 53.25325 
L 806.053969 53.25325 
" clip-path="url(#pfa7bf519a8)" style="fill: none; stroke: #b0b0b0; stroke-opacity: 0.5; stroke-width: 0.8; stroke-linecap: square"/>
     </g>
     <g id="line2d_82">
      <g>
       <use xlink:href="#m2c769adcfc" x="698.648937" y="53.25325" style="stroke: #000000; stroke-width: 0.8"/>
      </g>
     </g>
     <g id="text_52">
      <!-- 75 -->
      <g transform="translate(678.923937 57.052469) scale(0.1 -0.1)">
       <use xlink:href="#DejaVuSans-37"/>
       <use xlink:href="#DejaVuSans-35" x="63.623047"/>
      </g>
     </g>
    </g>
    <g id="ytick_25">
     <g id="line2d_83">
      <path d="M 698.648937 28.39625 
L 806.053969 28.39625 
" clip-path="url(#pfa7bf519a8)" style="fill: none; stroke: #b0b0b0; stroke-opacity: 0.5; stroke-width: 0.8; stroke-linecap: square"/>
     </g>
     <g id="line2d_84">
      <g>
       <use xlink:href="#m2c769adcfc" x="698.648937" y="28.39625" style="stroke: #000000; stroke-width: 0.8"/>
      </g>
     </g>
     <g id="text_53">
      <!-- 100 -->
      <g transform="translate(672.561437 32.195469) scale(0.1 -0.1)">
       <use xlink:href="#DejaVuSans-31"/>
       <use xlink:href="#DejaVuSans-30" x="63.623047"/>
       <use xlink:href="#DejaVuSans-30" x="127.246094"/>
      </g>
     </g>
    </g>
    <g id="text_54">
     <!-- sum of each bin [-] -->
     <g transform="translate(666.48175 125.425875) rotate(-90) scale(0.1 -0.1)">
      <use xlink:href="#DejaVuSans-73"/>
      <use xlink:href="#DejaVuSans-75" x="52.099609"/>
      <use xlink:href="#DejaVuSans-6d" x="115.478516"/>
      <use xlink:href="#DejaVuSans-20" x="212.890625"/>
      <use xlink:href="#DejaVuSans-6f" x="244.677734"/>
      <use xlink:href="#DejaVuSans-66" x="305.859375"/>
      <use xlink:href="#DejaVuSans-20" x="341.064453"/>
      <use xlink:href="#DejaVuSans-65" x="372.851562"/>
      <use xlink:href="#DejaVuSans-61" x="434.375"/>
      <use xlink:href="#DejaVuSans-63" x="495.654297"/>
      <use xlink:href="#DejaVuSans-68" x="550.634766"/>
      <use xlink:href="#DejaVuSans-20" x="614.013672"/>
      <use xlink:href="#DejaVuSans-62" x="645.800781"/>
      <use xlink:href="#DejaVuSans-69" x="709.277344"/>
      <use xlink:href="#DejaVuSans-6e" x="737.060547"/>
      <use xlink:href="#DejaVuSans-20" x="800.439453"/>
      <use xlink:href="#DejaVuSans-5b" x="832.226562"/>
      <use xlink:href="#DejaVuSans-2d" x="871.240234"/>
      <use xlink:href="#DejaVuSans-5d" x="907.324219"/>
     </g>
    </g>
   </g>
   <g id="line2d_85">
    <path d="M 703.530984 127.82425 
L 704.517256 127.82425 
L 705.503528 127.82425 
L 706.4898 127.82425 
L 707.476072 127.82425 
L 708.462345 127.82425 
L 709.448617 127.82425 
L 710.434889 127.82425 
L 711.421161 127.82425 
L 712.407433 127.82425 
L 713.393705 127.82425 
L 714.379977 127.82425 
L 715.366249 127.82425 
L 716.352521 127.82425 
L 717.338793 127.82425 
L 718.325066 127.82425 
L 719.311338 127.82425 
L 720.29761 127.82425 
L 721.283882 127.82425 
L 722.270154 127.82425 
L 723.256426 127.82425 
L 724.242698 127.82425 
L 725.22897 127.82425 
L 726.215242 127.82425 
L 727.201514 127.82425 
L 728.187787 127.82425 
L 729.174059 127.82425 
L 730.160331 127.82425 
L 731.146603 127.82425 
L 732.132875 127.82425 
L 733.119147 127.82425 
L 734.105419 127.82425 
L 735.091691 127.82425 
L 736.077963 127.82425 
L 737.064235 127.82425 
L 738.050508 127.82425 
L 739.03678 127.82425 
L 740.023052 127.82425 
L 741.009324 127.82425 
L 741.995596 127.82425 
L 742.981868 127.82425 
L 743.96814 127.82425 
L 744.954412 127.82425 
L 745.940684 127.82425 
L 746.926956 127.82425 
L 747.913229 127.82425 
L 748.899501 127.82425 
L 749.885773 127.82425 
L 750.872045 127.82425 
L 751.858317 127.82425 
L 752.844589 127.82425 
L 753.830861 127.82425 
L 754.817133 127.82425 
L 755.803405 127.82425 
L 756.789677 127.82425 
L 757.77595 127.82425 
L 758.762222 127.82425 
L 759.748494 127.82425 
L 760.734766 127.82425 
L 761.721038 127.82425 
L 762.70731 123.685897 
L 763.693582 123.685897 
L 764.679854 123.685897 
L 765.666126 123.685897 
L 766.652398 119.547543 
L 767.638671 123.217404 
L 768.624943 126.887264 
L 769.611215 126.887264 
L 770.597487 122.280418 
L 771.583759 122.280418 
L 772.570031 113.535218 
L 773.556303 96.513311 
L 774.542575 91.437972 
L 775.528847 86.362633 
L 776.51512 81.755787 
L 777.501392 68.872233 
L 778.487664 63.328401 
L 779.473936 64.655798 
L 780.460208 86.206469 
L 781.44648 93.077697 
L 782.432752 91.672219 
L 783.419024 86.128386 
L 784.405296 92.999615 
L 785.391568 103.540704 
L 786.377841 114.550286 
L 787.364113 125.559868 
L 788.350385 125.559868 
L 789.336657 121.421514 
L 790.322929 117.283161 
L 791.309201 117.283161 
L 792.295473 120.953022 
L 793.281745 127.82425 
L 794.268017 127.82425 
L 795.254289 127.82425 
L 796.240562 127.82425 
L 797.226834 127.82425 
L 798.213106 127.82425 
L 799.199378 127.82425 
L 800.18565 127.82425 
L 801.171922 127.82425 
" clip-path="url(#pfa7bf519a8)" style="fill: none; stroke: #000000; stroke-width: 1.5; stroke-linecap: square"/>
   </g>
   <g id="patch_23">
    <path d="M 698.648937 127.82425 
L 698.648937 28.39625 
" style="fill: none; stroke: #000000; stroke-width: 0.8; stroke-linejoin: miter; stroke-linecap: square"/>
   </g>
   <g id="patch_24">
    <path d="M 806.053969 127.82425 
L 806.053969 28.39625 
" style="fill: none; stroke: #000000; stroke-width: 0.8; stroke-linejoin: miter; stroke-linecap: square"/>
   </g>
   <g id="patch_25">
    <path d="M 698.648937 127.82425 
L 806.053969 127.82425 
" style="fill: none; stroke: #000000; stroke-width: 0.8; stroke-linejoin: miter; stroke-linecap: square"/>
   </g>
   <g id="patch_26">
    <path d="M 698.648937 28.39625 
L 806.053969 28.39625 
" style="fill: none; stroke: #000000; stroke-width: 0.8; stroke-linejoin: miter; stroke-linecap: square"/>
   </g>
   <g id="text_55">
    <!-- voxel 1716 -->
    <g transform="translate(724.906141 11.198437) scale(0.1 -0.1)">
     <use xlink:href="#DejaVuSans-76"/>
     <use xlink:href="#DejaVuSans-6f" x="59.179688"/>
     <use xlink:href="#DejaVuSans-78" x="117.236328"/>
     <use xlink:href="#DejaVuSans-65" x="173.291016"/>
     <use xlink:href="#DejaVuSans-6c" x="234.814453"/>
     <use xlink:href="#DejaVuSans-20" x="262.597656"/>
     <use xlink:href="#DejaVuSans-31" x="294.384766"/>
     <use xlink:href="#DejaVuSans-37" x="358.007812"/>
     <use xlink:href="#DejaVuSans-31" x="421.630859"/>
     <use xlink:href="#DejaVuSans-36" x="485.253906"/>
    </g>
    <!--   cumsum = 667.83 -->
    <g transform="translate(702.878016 22.39625) scale(0.1 -0.1)">
     <use xlink:href="#DejaVuSans-20"/>
     <use xlink:href="#DejaVuSans-20" x="31.787109"/>
     <use xlink:href="#DejaVuSans-63" x="63.574219"/>
     <use xlink:href="#DejaVuSans-75" x="118.554688"/>
     <use xlink:href="#DejaVuSans-6d" x="181.933594"/>
     <use xlink:href="#DejaVuSans-73" x="279.345703"/>
     <use xlink:href="#DejaVuSans-75" x="331.445312"/>
     <use xlink:href="#DejaVuSans-6d" x="394.824219"/>
     <use xlink:href="#DejaVuSans-20" x="492.236328"/>
     <use xlink:href="#DejaVuSans-3d" x="524.023438"/>
     <use xlink:href="#DejaVuSans-20" x="607.8125"/>
     <use xlink:href="#DejaVuSans-36" x="639.599609"/>
     <use xlink:href="#DejaVuSans-36" x="703.222656"/>
     <use xlink:href="#DejaVuSans-37" x="766.845703"/>
     <use xlink:href="#DejaVuSans-2e" x="830.46875"/>
     <use xlink:href="#DejaVuSans-38" x="862.255859"/>
     <use xlink:href="#DejaVuSans-33" x="925.878906"/>
    </g>
   </g>
  </g>
 </g>
 <defs>
  <clipPath id="p4692c5f0cd">
   <rect x="43.365625" y="28.39625" width="107.405032" height="99.428"/>
  </clipPath>
  <clipPath id="p5ad6df5dfa">
   <rect x="207.186453" y="28.39625" width="107.405032" height="99.428"/>
  </clipPath>
  <clipPath id="p939da501a2">
   <rect x="371.007281" y="28.39625" width="107.405032" height="99.428"/>
  </clipPath>
  <clipPath id="p5d3e33d14c">
   <rect x="534.828109" y="28.39625" width="107.405032" height="99.428"/>
  </clipPath>
  <clipPath id="pfa7bf519a8">
   <rect x="698.648937" y="28.39625" width="107.405032" height="99.428"/>
  </clipPath>
 </defs>
</svg>
