<?xml version="1.0" encoding="utf-8" standalone="no"?>
<!DOCTYPE svg PUBLIC "-//W3C//DTD SVG 1.1//EN"
  "http://www.w3.org/Graphics/SVG/1.1/DTD/svg11.dtd">
<svg xmlns:xlink="http://www.w3.org/1999/xlink" width="840.168pt" height="336.142594pt" viewBox="0 0 840.168 336.142594" xmlns="http://www.w3.org/2000/svg" version="1.1">
 <metadata>
  <rdf:RDF xmlns:dc="http://purl.org/dc/elements/1.1/" xmlns:cc="http://creativecommons.org/ns#" xmlns:rdf="http://www.w3.org/1999/02/22-rdf-syntax-ns#">
   <cc:Work>
    <dc:type rdf:resource="http://purl.org/dc/dcmitype/StillImage"/>
    <dc:date>2023-05-27T00:26:48.368003</dc:date>
    <dc:format>image/svg+xml</dc:format>
    <dc:creator>
     <cc:Agent>
      <dc:title>Matplotlib v3.7.1, https://matplotlib.org/</dc:title>
     </cc:Agent>
    </dc:creator>
   </cc:Work>
  </rdf:RDF>
 </metadata>
 <defs>
  <style type="text/css">*{stroke-linejoin: round; stroke-linecap: butt}</style>
 </defs>
 <g id="figure_1">
  <g id="patch_1">
   <path d="M 0 336.142594 
L 840.168 336.142594 
L 840.168 0 
L 0 0 
z
" style="fill: #ffffff"/>
  </g>
  <g id="axes_1">
   <g id="patch_2">
    <path d="M 56.232 292.330969 
L 836.568 292.330969 
L 836.568 8.614969 
L 56.232 8.614969 
z
" style="fill: #eaeaf2"/>
   </g>
   <g id="matplotlib.axis_1">
    <g id="xtick_1">
     <g id="line2d_1">
      <path d="M 73.966909 292.330969 
L 73.966909 8.614969 
" clip-path="url(#p62b691fd44)" style="fill: none; stroke: #ffffff; stroke-linecap: round"/>
     </g>
     <g id="text_1">
      <!-- 0 -->
      <g style="fill: #262626" transform="translate(69.767659 311.860906) scale(0.132 -0.132)">
       <defs>
        <path id="DejaVuSans-30" d="M 2034 4250 
Q 1547 4250 1301 3770 
Q 1056 3291 1056 2328 
Q 1056 1369 1301 889 
Q 1547 409 2034 409 
Q 2525 409 2770 889 
Q 3016 1369 3016 2328 
Q 3016 3291 2770 3770 
Q 2525 4250 2034 4250 
z
M 2034 4750 
Q 2819 4750 3233 4129 
Q 3647 3509 3647 2328 
Q 3647 1150 3233 529 
Q 2819 -91 2034 -91 
Q 1250 -91 836 529 
Q 422 1150 422 2328 
Q 422 3509 836 4129 
Q 1250 4750 2034 4750 
z
" transform="scale(0.015625)"/>
       </defs>
       <use xlink:href="#DejaVuSans-30"/>
      </g>
     </g>
    </g>
    <g id="xtick_2">
     <g id="line2d_2">
      <path d="M 162.641455 292.330969 
L 162.641455 8.614969 
" clip-path="url(#p62b691fd44)" style="fill: none; stroke: #ffffff; stroke-linecap: round"/>
     </g>
     <g id="text_2">
      <!-- 50 -->
      <g style="fill: #262626" transform="translate(154.242955 311.860906) scale(0.132 -0.132)">
       <defs>
        <path id="DejaVuSans-35" d="M 691 4666 
L 3169 4666 
L 3169 4134 
L 1269 4134 
L 1269 2991 
Q 1406 3038 1543 3061 
Q 1681 3084 1819 3084 
Q 2600 3084 3056 2656 
Q 3513 2228 3513 1497 
Q 3513 744 3044 326 
Q 2575 -91 1722 -91 
Q 1428 -91 1123 -41 
Q 819 9 494 109 
L 494 744 
Q 775 591 1075 516 
Q 1375 441 1709 441 
Q 2250 441 2565 725 
Q 2881 1009 2881 1497 
Q 2881 1984 2565 2268 
Q 2250 2553 1709 2553 
Q 1456 2553 1204 2497 
Q 953 2441 691 2322 
L 691 4666 
z
" transform="scale(0.015625)"/>
       </defs>
       <use xlink:href="#DejaVuSans-35"/>
       <use xlink:href="#DejaVuSans-30" x="63.623047"/>
      </g>
     </g>
    </g>
    <g id="xtick_3">
     <g id="line2d_3">
      <path d="M 251.316 292.330969 
L 251.316 8.614969 
" clip-path="url(#p62b691fd44)" style="fill: none; stroke: #ffffff; stroke-linecap: round"/>
     </g>
     <g id="text_3">
      <!-- 100 -->
      <g style="fill: #262626" transform="translate(238.71825 311.860906) scale(0.132 -0.132)">
       <defs>
        <path id="DejaVuSans-31" d="M 794 531 
L 1825 531 
L 1825 4091 
L 703 3866 
L 703 4441 
L 1819 4666 
L 2450 4666 
L 2450 531 
L 3481 531 
L 3481 0 
L 794 0 
L 794 531 
z
" transform="scale(0.015625)"/>
       </defs>
       <use xlink:href="#DejaVuSans-31"/>
       <use xlink:href="#DejaVuSans-30" x="63.623047"/>
       <use xlink:href="#DejaVuSans-30" x="127.246094"/>
      </g>
     </g>
    </g>
    <g id="xtick_4">
     <g id="line2d_4">
      <path d="M 339.990545 292.330969 
L 339.990545 8.614969 
" clip-path="url(#p62b691fd44)" style="fill: none; stroke: #ffffff; stroke-linecap: round"/>
     </g>
     <g id="text_4">
      <!-- 150 -->
      <g style="fill: #262626" transform="translate(327.392795 311.860906) scale(0.132 -0.132)">
       <use xlink:href="#DejaVuSans-31"/>
       <use xlink:href="#DejaVuSans-35" x="63.623047"/>
       <use xlink:href="#DejaVuSans-30" x="127.246094"/>
      </g>
     </g>
    </g>
    <g id="xtick_5">
     <g id="line2d_5">
      <path d="M 428.665091 292.330969 
L 428.665091 8.614969 
" clip-path="url(#p62b691fd44)" style="fill: none; stroke: #ffffff; stroke-linecap: round"/>
     </g>
     <g id="text_5">
      <!-- 200 -->
      <g style="fill: #262626" transform="translate(416.067341 311.860906) scale(0.132 -0.132)">
       <defs>
        <path id="DejaVuSans-32" d="M 1228 531 
L 3431 531 
L 3431 0 
L 469 0 
L 469 531 
Q 828 903 1448 1529 
Q 2069 2156 2228 2338 
Q 2531 2678 2651 2914 
Q 2772 3150 2772 3378 
Q 2772 3750 2511 3984 
Q 2250 4219 1831 4219 
Q 1534 4219 1204 4116 
Q 875 4013 500 3803 
L 500 4441 
Q 881 4594 1212 4672 
Q 1544 4750 1819 4750 
Q 2544 4750 2975 4387 
Q 3406 4025 3406 3419 
Q 3406 3131 3298 2873 
Q 3191 2616 2906 2266 
Q 2828 2175 2409 1742 
Q 1991 1309 1228 531 
z
" transform="scale(0.015625)"/>
       </defs>
       <use xlink:href="#DejaVuSans-32"/>
       <use xlink:href="#DejaVuSans-30" x="63.623047"/>
       <use xlink:href="#DejaVuSans-30" x="127.246094"/>
      </g>
     </g>
    </g>
    <g id="xtick_6">
     <g id="line2d_6">
      <path d="M 517.339636 292.330969 
L 517.339636 8.614969 
" clip-path="url(#p62b691fd44)" style="fill: none; stroke: #ffffff; stroke-linecap: round"/>
     </g>
     <g id="text_6">
      <!-- 250 -->
      <g style="fill: #262626" transform="translate(504.741886 311.860906) scale(0.132 -0.132)">
       <use xlink:href="#DejaVuSans-32"/>
       <use xlink:href="#DejaVuSans-35" x="63.623047"/>
       <use xlink:href="#DejaVuSans-30" x="127.246094"/>
      </g>
     </g>
    </g>
    <g id="xtick_7">
     <g id="line2d_7">
      <path d="M 606.014182 292.330969 
L 606.014182 8.614969 
" clip-path="url(#p62b691fd44)" style="fill: none; stroke: #ffffff; stroke-linecap: round"/>
     </g>
     <g id="text_7">
      <!-- 300 -->
      <g style="fill: #262626" transform="translate(593.416432 311.860906) scale(0.132 -0.132)">
       <defs>
        <path id="DejaVuSans-33" d="M 2597 2516 
Q 3050 2419 3304 2112 
Q 3559 1806 3559 1356 
Q 3559 666 3084 287 
Q 2609 -91 1734 -91 
Q 1441 -91 1130 -33 
Q 819 25 488 141 
L 488 750 
Q 750 597 1062 519 
Q 1375 441 1716 441 
Q 2309 441 2620 675 
Q 2931 909 2931 1356 
Q 2931 1769 2642 2001 
Q 2353 2234 1838 2234 
L 1294 2234 
L 1294 2753 
L 1863 2753 
Q 2328 2753 2575 2939 
Q 2822 3125 2822 3475 
Q 2822 3834 2567 4026 
Q 2313 4219 1838 4219 
Q 1578 4219 1281 4162 
Q 984 4106 628 3988 
L 628 4550 
Q 988 4650 1302 4700 
Q 1616 4750 1894 4750 
Q 2613 4750 3031 4423 
Q 3450 4097 3450 3541 
Q 3450 3153 3228 2886 
Q 3006 2619 2597 2516 
z
" transform="scale(0.015625)"/>
       </defs>
       <use xlink:href="#DejaVuSans-33"/>
       <use xlink:href="#DejaVuSans-30" x="63.623047"/>
       <use xlink:href="#DejaVuSans-30" x="127.246094"/>
      </g>
     </g>
    </g>
    <g id="xtick_8">
     <g id="line2d_8">
      <path d="M 694.688727 292.330969 
L 694.688727 8.614969 
" clip-path="url(#p62b691fd44)" style="fill: none; stroke: #ffffff; stroke-linecap: round"/>
     </g>
     <g id="text_8">
      <!-- 350 -->
      <g style="fill: #262626" transform="translate(682.090977 311.860906) scale(0.132 -0.132)">
       <use xlink:href="#DejaVuSans-33"/>
       <use xlink:href="#DejaVuSans-35" x="63.623047"/>
       <use xlink:href="#DejaVuSans-30" x="127.246094"/>
      </g>
     </g>
    </g>
    <g id="xtick_9">
     <g id="line2d_9">
      <path d="M 783.363273 292.330969 
L 783.363273 8.614969 
" clip-path="url(#p62b691fd44)" style="fill: none; stroke: #ffffff; stroke-linecap: round"/>
     </g>
     <g id="text_9">
      <!-- 400 -->
      <g style="fill: #262626" transform="translate(770.765523 311.860906) scale(0.132 -0.132)">
       <defs>
        <path id="DejaVuSans-34" d="M 2419 4116 
L 825 1625 
L 2419 1625 
L 2419 4116 
z
M 2253 4666 
L 3047 4666 
L 3047 1625 
L 3713 1625 
L 3713 1100 
L 3047 1100 
L 3047 0 
L 2419 0 
L 2419 1100 
L 313 1100 
L 313 1709 
L 2253 4666 
z
" transform="scale(0.015625)"/>
       </defs>
       <use xlink:href="#DejaVuSans-34"/>
       <use xlink:href="#DejaVuSans-30" x="63.623047"/>
       <use xlink:href="#DejaVuSans-30" x="127.246094"/>
      </g>
     </g>
    </g>
    <g id="text_10">
     <!-- Number of Features -->
     <g style="fill: #262626" transform="translate(375.0075 329.547844) scale(0.144 -0.144)">
      <defs>
       <path id="DejaVuSans-4e" d="M 628 4666 
L 1478 4666 
L 3547 763 
L 3547 4666 
L 4159 4666 
L 4159 0 
L 3309 0 
L 1241 3903 
L 1241 0 
L 628 0 
L 628 4666 
z
" transform="scale(0.015625)"/>
       <path id="DejaVuSans-75" d="M 544 1381 
L 544 3500 
L 1119 3500 
L 1119 1403 
Q 1119 906 1312 657 
Q 1506 409 1894 409 
Q 2359 409 2629 706 
Q 2900 1003 2900 1516 
L 2900 3500 
L 3475 3500 
L 3475 0 
L 2900 0 
L 2900 538 
Q 2691 219 2414 64 
Q 2138 -91 1772 -91 
Q 1169 -91 856 284 
Q 544 659 544 1381 
z
M 1991 3584 
L 1991 3584 
z
" transform="scale(0.015625)"/>
       <path id="DejaVuSans-6d" d="M 3328 2828 
Q 3544 3216 3844 3400 
Q 4144 3584 4550 3584 
Q 5097 3584 5394 3201 
Q 5691 2819 5691 2113 
L 5691 0 
L 5113 0 
L 5113 2094 
Q 5113 2597 4934 2840 
Q 4756 3084 4391 3084 
Q 3944 3084 3684 2787 
Q 3425 2491 3425 1978 
L 3425 0 
L 2847 0 
L 2847 2094 
Q 2847 2600 2669 2842 
Q 2491 3084 2119 3084 
Q 1678 3084 1418 2786 
Q 1159 2488 1159 1978 
L 1159 0 
L 581 0 
L 581 3500 
L 1159 3500 
L 1159 2956 
Q 1356 3278 1631 3431 
Q 1906 3584 2284 3584 
Q 2666 3584 2933 3390 
Q 3200 3197 3328 2828 
z
" transform="scale(0.015625)"/>
       <path id="DejaVuSans-62" d="M 3116 1747 
Q 3116 2381 2855 2742 
Q 2594 3103 2138 3103 
Q 1681 3103 1420 2742 
Q 1159 2381 1159 1747 
Q 1159 1113 1420 752 
Q 1681 391 2138 391 
Q 2594 391 2855 752 
Q 3116 1113 3116 1747 
z
M 1159 2969 
Q 1341 3281 1617 3432 
Q 1894 3584 2278 3584 
Q 2916 3584 3314 3078 
Q 3713 2572 3713 1747 
Q 3713 922 3314 415 
Q 2916 -91 2278 -91 
Q 1894 -91 1617 61 
Q 1341 213 1159 525 
L 1159 0 
L 581 0 
L 581 4863 
L 1159 4863 
L 1159 2969 
z
" transform="scale(0.015625)"/>
       <path id="DejaVuSans-65" d="M 3597 1894 
L 3597 1613 
L 953 1613 
Q 991 1019 1311 708 
Q 1631 397 2203 397 
Q 2534 397 2845 478 
Q 3156 559 3463 722 
L 3463 178 
Q 3153 47 2828 -22 
Q 2503 -91 2169 -91 
Q 1331 -91 842 396 
Q 353 884 353 1716 
Q 353 2575 817 3079 
Q 1281 3584 2069 3584 
Q 2775 3584 3186 3129 
Q 3597 2675 3597 1894 
z
M 3022 2063 
Q 3016 2534 2758 2815 
Q 2500 3097 2075 3097 
Q 1594 3097 1305 2825 
Q 1016 2553 972 2059 
L 3022 2063 
z
" transform="scale(0.015625)"/>
       <path id="DejaVuSans-72" d="M 2631 2963 
Q 2534 3019 2420 3045 
Q 2306 3072 2169 3072 
Q 1681 3072 1420 2755 
Q 1159 2438 1159 1844 
L 1159 0 
L 581 0 
L 581 3500 
L 1159 3500 
L 1159 2956 
Q 1341 3275 1631 3429 
Q 1922 3584 2338 3584 
Q 2397 3584 2469 3576 
Q 2541 3569 2628 3553 
L 2631 2963 
z
" transform="scale(0.015625)"/>
       <path id="DejaVuSans-20" transform="scale(0.015625)"/>
       <path id="DejaVuSans-6f" d="M 1959 3097 
Q 1497 3097 1228 2736 
Q 959 2375 959 1747 
Q 959 1119 1226 758 
Q 1494 397 1959 397 
Q 2419 397 2687 759 
Q 2956 1122 2956 1747 
Q 2956 2369 2687 2733 
Q 2419 3097 1959 3097 
z
M 1959 3584 
Q 2709 3584 3137 3096 
Q 3566 2609 3566 1747 
Q 3566 888 3137 398 
Q 2709 -91 1959 -91 
Q 1206 -91 779 398 
Q 353 888 353 1747 
Q 353 2609 779 3096 
Q 1206 3584 1959 3584 
z
" transform="scale(0.015625)"/>
       <path id="DejaVuSans-66" d="M 2375 4863 
L 2375 4384 
L 1825 4384 
Q 1516 4384 1395 4259 
Q 1275 4134 1275 3809 
L 1275 3500 
L 2222 3500 
L 2222 3053 
L 1275 3053 
L 1275 0 
L 697 0 
L 697 3053 
L 147 3053 
L 147 3500 
L 697 3500 
L 697 3744 
Q 697 4328 969 4595 
Q 1241 4863 1831 4863 
L 2375 4863 
z
" transform="scale(0.015625)"/>
       <path id="DejaVuSans-46" d="M 628 4666 
L 3309 4666 
L 3309 4134 
L 1259 4134 
L 1259 2759 
L 3109 2759 
L 3109 2228 
L 1259 2228 
L 1259 0 
L 628 0 
L 628 4666 
z
" transform="scale(0.015625)"/>
       <path id="DejaVuSans-61" d="M 2194 1759 
Q 1497 1759 1228 1600 
Q 959 1441 959 1056 
Q 959 750 1161 570 
Q 1363 391 1709 391 
Q 2188 391 2477 730 
Q 2766 1069 2766 1631 
L 2766 1759 
L 2194 1759 
z
M 3341 1997 
L 3341 0 
L 2766 0 
L 2766 531 
Q 2569 213 2275 61 
Q 1981 -91 1556 -91 
Q 1019 -91 701 211 
Q 384 513 384 1019 
Q 384 1609 779 1909 
Q 1175 2209 1959 2209 
L 2766 2209 
L 2766 2266 
Q 2766 2663 2505 2880 
Q 2244 3097 1772 3097 
Q 1472 3097 1187 3025 
Q 903 2953 641 2809 
L 641 3341 
Q 956 3463 1253 3523 
Q 1550 3584 1831 3584 
Q 2591 3584 2966 3190 
Q 3341 2797 3341 1997 
z
" transform="scale(0.015625)"/>
       <path id="DejaVuSans-74" d="M 1172 4494 
L 1172 3500 
L 2356 3500 
L 2356 3053 
L 1172 3053 
L 1172 1153 
Q 1172 725 1289 603 
Q 1406 481 1766 481 
L 2356 481 
L 2356 0 
L 1766 0 
Q 1100 0 847 248 
Q 594 497 594 1153 
L 594 3053 
L 172 3053 
L 172 3500 
L 594 3500 
L 594 4494 
L 1172 4494 
z
" transform="scale(0.015625)"/>
       <path id="DejaVuSans-73" d="M 2834 3397 
L 2834 2853 
Q 2591 2978 2328 3040 
Q 2066 3103 1784 3103 
Q 1356 3103 1142 2972 
Q 928 2841 928 2578 
Q 928 2378 1081 2264 
Q 1234 2150 1697 2047 
L 1894 2003 
Q 2506 1872 2764 1633 
Q 3022 1394 3022 966 
Q 3022 478 2636 193 
Q 2250 -91 1575 -91 
Q 1294 -91 989 -36 
Q 684 19 347 128 
L 347 722 
Q 666 556 975 473 
Q 1284 391 1588 391 
Q 1994 391 2212 530 
Q 2431 669 2431 922 
Q 2431 1156 2273 1281 
Q 2116 1406 1581 1522 
L 1381 1569 
Q 847 1681 609 1914 
Q 372 2147 372 2553 
Q 372 3047 722 3315 
Q 1072 3584 1716 3584 
Q 2034 3584 2315 3537 
Q 2597 3491 2834 3397 
z
" transform="scale(0.015625)"/>
      </defs>
      <use xlink:href="#DejaVuSans-4e"/>
      <use xlink:href="#DejaVuSans-75" x="74.804688"/>
      <use xlink:href="#DejaVuSans-6d" x="138.183594"/>
      <use xlink:href="#DejaVuSans-62" x="235.595703"/>
      <use xlink:href="#DejaVuSans-65" x="299.072266"/>
      <use xlink:href="#DejaVuSans-72" x="360.595703"/>
      <use xlink:href="#DejaVuSans-20" x="401.708984"/>
      <use xlink:href="#DejaVuSans-6f" x="433.496094"/>
      <use xlink:href="#DejaVuSans-66" x="494.677734"/>
      <use xlink:href="#DejaVuSans-20" x="529.882812"/>
      <use xlink:href="#DejaVuSans-46" x="561.669922"/>
      <use xlink:href="#DejaVuSans-65" x="613.689453"/>
      <use xlink:href="#DejaVuSans-61" x="675.212891"/>
      <use xlink:href="#DejaVuSans-74" x="736.492188"/>
      <use xlink:href="#DejaVuSans-75" x="775.701172"/>
      <use xlink:href="#DejaVuSans-72" x="839.080078"/>
      <use xlink:href="#DejaVuSans-65" x="877.943359"/>
      <use xlink:href="#DejaVuSans-73" x="939.466797"/>
     </g>
    </g>
   </g>
   <g id="matplotlib.axis_2">
    <g id="ytick_1">
     <g id="line2d_10">
      <path d="M 56.232 292.330969 
L 836.568 292.330969 
" clip-path="url(#p62b691fd44)" style="fill: none; stroke: #ffffff; stroke-linecap: round"/>
     </g>
     <g id="text_11">
      <!-- 20 -->
      <g style="fill: #262626" transform="translate(29.935 297.345937) scale(0.132 -0.132)">
       <use xlink:href="#DejaVuSans-32"/>
       <use xlink:href="#DejaVuSans-30" x="63.623047"/>
      </g>
     </g>
    </g>
    <g id="ytick_2">
     <g id="line2d_11">
      <path d="M 56.232 256.866469 
L 836.568 256.866469 
" clip-path="url(#p62b691fd44)" style="fill: none; stroke: #ffffff; stroke-linecap: round"/>
     </g>
     <g id="text_12">
      <!-- 30 -->
      <g style="fill: #262626" transform="translate(29.935 261.881437) scale(0.132 -0.132)">
       <use xlink:href="#DejaVuSans-33"/>
       <use xlink:href="#DejaVuSans-30" x="63.623047"/>
      </g>
     </g>
    </g>
    <g id="ytick_3">
     <g id="line2d_12">
      <path d="M 56.232 221.401969 
L 836.568 221.401969 
" clip-path="url(#p62b691fd44)" style="fill: none; stroke: #ffffff; stroke-linecap: round"/>
     </g>
     <g id="text_13">
      <!-- 40 -->
      <g style="fill: #262626" transform="translate(29.935 226.416937) scale(0.132 -0.132)">
       <use xlink:href="#DejaVuSans-34"/>
       <use xlink:href="#DejaVuSans-30" x="63.623047"/>
      </g>
     </g>
    </g>
    <g id="ytick_4">
     <g id="line2d_13">
      <path d="M 56.232 185.937469 
L 836.568 185.937469 
" clip-path="url(#p62b691fd44)" style="fill: none; stroke: #ffffff; stroke-linecap: round"/>
     </g>
     <g id="text_14">
      <!-- 50 -->
      <g style="fill: #262626" transform="translate(29.935 190.952437) scale(0.132 -0.132)">
       <use xlink:href="#DejaVuSans-35"/>
       <use xlink:href="#DejaVuSans-30" x="63.623047"/>
      </g>
     </g>
    </g>
    <g id="ytick_5">
     <g id="line2d_14">
      <path d="M 56.232 150.472969 
L 836.568 150.472969 
" clip-path="url(#p62b691fd44)" style="fill: none; stroke: #ffffff; stroke-linecap: round"/>
     </g>
     <g id="text_15">
      <!-- 60 -->
      <g style="fill: #262626" transform="translate(29.935 155.487937) scale(0.132 -0.132)">
       <defs>
        <path id="DejaVuSans-36" d="M 2113 2584 
Q 1688 2584 1439 2293 
Q 1191 2003 1191 1497 
Q 1191 994 1439 701 
Q 1688 409 2113 409 
Q 2538 409 2786 701 
Q 3034 994 3034 1497 
Q 3034 2003 2786 2293 
Q 2538 2584 2113 2584 
z
M 3366 4563 
L 3366 3988 
Q 3128 4100 2886 4159 
Q 2644 4219 2406 4219 
Q 1781 4219 1451 3797 
Q 1122 3375 1075 2522 
Q 1259 2794 1537 2939 
Q 1816 3084 2150 3084 
Q 2853 3084 3261 2657 
Q 3669 2231 3669 1497 
Q 3669 778 3244 343 
Q 2819 -91 2113 -91 
Q 1303 -91 875 529 
Q 447 1150 447 2328 
Q 447 3434 972 4092 
Q 1497 4750 2381 4750 
Q 2619 4750 2861 4703 
Q 3103 4656 3366 4563 
z
" transform="scale(0.015625)"/>
       </defs>
       <use xlink:href="#DejaVuSans-36"/>
       <use xlink:href="#DejaVuSans-30" x="63.623047"/>
      </g>
     </g>
    </g>
    <g id="ytick_6">
     <g id="line2d_15">
      <path d="M 56.232 115.008469 
L 836.568 115.008469 
" clip-path="url(#p62b691fd44)" style="fill: none; stroke: #ffffff; stroke-linecap: round"/>
     </g>
     <g id="text_16">
      <!-- 70 -->
      <g style="fill: #262626" transform="translate(29.935 120.023437) scale(0.132 -0.132)">
       <defs>
        <path id="DejaVuSans-37" d="M 525 4666 
L 3525 4666 
L 3525 4397 
L 1831 0 
L 1172 0 
L 2766 4134 
L 525 4134 
L 525 4666 
z
" transform="scale(0.015625)"/>
       </defs>
       <use xlink:href="#DejaVuSans-37"/>
       <use xlink:href="#DejaVuSans-30" x="63.623047"/>
      </g>
     </g>
    </g>
    <g id="ytick_7">
     <g id="line2d_16">
      <path d="M 56.232 79.543969 
L 836.568 79.543969 
" clip-path="url(#p62b691fd44)" style="fill: none; stroke: #ffffff; stroke-linecap: round"/>
     </g>
     <g id="text_17">
      <!-- 80 -->
      <g style="fill: #262626" transform="translate(29.935 84.558937) scale(0.132 -0.132)">
       <defs>
        <path id="DejaVuSans-38" d="M 2034 2216 
Q 1584 2216 1326 1975 
Q 1069 1734 1069 1313 
Q 1069 891 1326 650 
Q 1584 409 2034 409 
Q 2484 409 2743 651 
Q 3003 894 3003 1313 
Q 3003 1734 2745 1975 
Q 2488 2216 2034 2216 
z
M 1403 2484 
Q 997 2584 770 2862 
Q 544 3141 544 3541 
Q 544 4100 942 4425 
Q 1341 4750 2034 4750 
Q 2731 4750 3128 4425 
Q 3525 4100 3525 3541 
Q 3525 3141 3298 2862 
Q 3072 2584 2669 2484 
Q 3125 2378 3379 2068 
Q 3634 1759 3634 1313 
Q 3634 634 3220 271 
Q 2806 -91 2034 -91 
Q 1263 -91 848 271 
Q 434 634 434 1313 
Q 434 1759 690 2068 
Q 947 2378 1403 2484 
z
M 1172 3481 
Q 1172 3119 1398 2916 
Q 1625 2713 2034 2713 
Q 2441 2713 2670 2916 
Q 2900 3119 2900 3481 
Q 2900 3844 2670 4047 
Q 2441 4250 2034 4250 
Q 1625 4250 1398 4047 
Q 1172 3844 1172 3481 
z
" transform="scale(0.015625)"/>
       </defs>
       <use xlink:href="#DejaVuSans-38"/>
       <use xlink:href="#DejaVuSans-30" x="63.623047"/>
      </g>
     </g>
    </g>
    <g id="ytick_8">
     <g id="line2d_17">
      <path d="M 56.232 44.079469 
L 836.568 44.079469 
" clip-path="url(#p62b691fd44)" style="fill: none; stroke: #ffffff; stroke-linecap: round"/>
     </g>
     <g id="text_18">
      <!-- 90 -->
      <g style="fill: #262626" transform="translate(29.935 49.094437) scale(0.132 -0.132)">
       <defs>
        <path id="DejaVuSans-39" d="M 703 97 
L 703 672 
Q 941 559 1184 500 
Q 1428 441 1663 441 
Q 2288 441 2617 861 
Q 2947 1281 2994 2138 
Q 2813 1869 2534 1725 
Q 2256 1581 1919 1581 
Q 1219 1581 811 2004 
Q 403 2428 403 3163 
Q 403 3881 828 4315 
Q 1253 4750 1959 4750 
Q 2769 4750 3195 4129 
Q 3622 3509 3622 2328 
Q 3622 1225 3098 567 
Q 2575 -91 1691 -91 
Q 1453 -91 1209 -44 
Q 966 3 703 97 
z
M 1959 2075 
Q 2384 2075 2632 2365 
Q 2881 2656 2881 3163 
Q 2881 3666 2632 3958 
Q 2384 4250 1959 4250 
Q 1534 4250 1286 3958 
Q 1038 3666 1038 3163 
Q 1038 2656 1286 2365 
Q 1534 2075 1959 2075 
z
" transform="scale(0.015625)"/>
       </defs>
       <use xlink:href="#DejaVuSans-39"/>
       <use xlink:href="#DejaVuSans-30" x="63.623047"/>
      </g>
     </g>
    </g>
    <g id="ytick_9">
     <g id="line2d_18">
      <path d="M 56.232 8.614969 
L 836.568 8.614969 
" clip-path="url(#p62b691fd44)" style="fill: none; stroke: #ffffff; stroke-linecap: round"/>
     </g>
     <g id="text_19">
      <!-- 100 -->
      <g style="fill: #262626" transform="translate(21.5365 13.629937) scale(0.132 -0.132)">
       <use xlink:href="#DejaVuSans-31"/>
       <use xlink:href="#DejaVuSans-30" x="63.623047"/>
       <use xlink:href="#DejaVuSans-30" x="127.246094"/>
      </g>
     </g>
    </g>
    <g id="text_20">
     <!-- Mean Test Accuracy [%] -->
     <g style="fill: #262626" transform="translate(14.54175 236.464594) rotate(-90) scale(0.144 -0.144)">
      <defs>
       <path id="DejaVuSans-4d" d="M 628 4666 
L 1569 4666 
L 2759 1491 
L 3956 4666 
L 4897 4666 
L 4897 0 
L 4281 0 
L 4281 4097 
L 3078 897 
L 2444 897 
L 1241 4097 
L 1241 0 
L 628 0 
L 628 4666 
z
" transform="scale(0.015625)"/>
       <path id="DejaVuSans-6e" d="M 3513 2113 
L 3513 0 
L 2938 0 
L 2938 2094 
Q 2938 2591 2744 2837 
Q 2550 3084 2163 3084 
Q 1697 3084 1428 2787 
Q 1159 2491 1159 1978 
L 1159 0 
L 581 0 
L 581 3500 
L 1159 3500 
L 1159 2956 
Q 1366 3272 1645 3428 
Q 1925 3584 2291 3584 
Q 2894 3584 3203 3211 
Q 3513 2838 3513 2113 
z
" transform="scale(0.015625)"/>
       <path id="DejaVuSans-54" d="M -19 4666 
L 3928 4666 
L 3928 4134 
L 2272 4134 
L 2272 0 
L 1638 0 
L 1638 4134 
L -19 4134 
L -19 4666 
z
" transform="scale(0.015625)"/>
       <path id="DejaVuSans-41" d="M 2188 4044 
L 1331 1722 
L 3047 1722 
L 2188 4044 
z
M 1831 4666 
L 2547 4666 
L 4325 0 
L 3669 0 
L 3244 1197 
L 1141 1197 
L 716 0 
L 50 0 
L 1831 4666 
z
" transform="scale(0.015625)"/>
       <path id="DejaVuSans-63" d="M 3122 3366 
L 3122 2828 
Q 2878 2963 2633 3030 
Q 2388 3097 2138 3097 
Q 1578 3097 1268 2742 
Q 959 2388 959 1747 
Q 959 1106 1268 751 
Q 1578 397 2138 397 
Q 2388 397 2633 464 
Q 2878 531 3122 666 
L 3122 134 
Q 2881 22 2623 -34 
Q 2366 -91 2075 -91 
Q 1284 -91 818 406 
Q 353 903 353 1747 
Q 353 2603 823 3093 
Q 1294 3584 2113 3584 
Q 2378 3584 2631 3529 
Q 2884 3475 3122 3366 
z
" transform="scale(0.015625)"/>
       <path id="DejaVuSans-79" d="M 2059 -325 
Q 1816 -950 1584 -1140 
Q 1353 -1331 966 -1331 
L 506 -1331 
L 506 -850 
L 844 -850 
Q 1081 -850 1212 -737 
Q 1344 -625 1503 -206 
L 1606 56 
L 191 3500 
L 800 3500 
L 1894 763 
L 2988 3500 
L 3597 3500 
L 2059 -325 
z
" transform="scale(0.015625)"/>
       <path id="DejaVuSans-5b" d="M 550 4863 
L 1875 4863 
L 1875 4416 
L 1125 4416 
L 1125 -397 
L 1875 -397 
L 1875 -844 
L 550 -844 
L 550 4863 
z
" transform="scale(0.015625)"/>
       <path id="DejaVuSans-25" d="M 4653 2053 
Q 4381 2053 4226 1822 
Q 4072 1591 4072 1178 
Q 4072 772 4226 539 
Q 4381 306 4653 306 
Q 4919 306 5073 539 
Q 5228 772 5228 1178 
Q 5228 1588 5073 1820 
Q 4919 2053 4653 2053 
z
M 4653 2450 
Q 5147 2450 5437 2106 
Q 5728 1763 5728 1178 
Q 5728 594 5436 251 
Q 5144 -91 4653 -91 
Q 4153 -91 3862 251 
Q 3572 594 3572 1178 
Q 3572 1766 3864 2108 
Q 4156 2450 4653 2450 
z
M 1428 4353 
Q 1159 4353 1004 4120 
Q 850 3888 850 3481 
Q 850 3069 1003 2837 
Q 1156 2606 1428 2606 
Q 1700 2606 1854 2837 
Q 2009 3069 2009 3481 
Q 2009 3884 1853 4118 
Q 1697 4353 1428 4353 
z
M 4250 4750 
L 4750 4750 
L 1831 -91 
L 1331 -91 
L 4250 4750 
z
M 1428 4750 
Q 1922 4750 2215 4408 
Q 2509 4066 2509 3481 
Q 2509 2891 2217 2550 
Q 1925 2209 1428 2209 
Q 931 2209 642 2551 
Q 353 2894 353 3481 
Q 353 4063 643 4406 
Q 934 4750 1428 4750 
z
" transform="scale(0.015625)"/>
       <path id="DejaVuSans-5d" d="M 1947 4863 
L 1947 -844 
L 622 -844 
L 622 -397 
L 1369 -397 
L 1369 4416 
L 622 4416 
L 622 4863 
L 1947 4863 
z
" transform="scale(0.015625)"/>
      </defs>
      <use xlink:href="#DejaVuSans-4d"/>
      <use xlink:href="#DejaVuSans-65" x="86.279297"/>
      <use xlink:href="#DejaVuSans-61" x="147.802734"/>
      <use xlink:href="#DejaVuSans-6e" x="209.082031"/>
      <use xlink:href="#DejaVuSans-20" x="272.460938"/>
      <use xlink:href="#DejaVuSans-54" x="304.248047"/>
      <use xlink:href="#DejaVuSans-65" x="348.332031"/>
      <use xlink:href="#DejaVuSans-73" x="409.855469"/>
      <use xlink:href="#DejaVuSans-74" x="461.955078"/>
      <use xlink:href="#DejaVuSans-20" x="501.164062"/>
      <use xlink:href="#DejaVuSans-41" x="532.951172"/>
      <use xlink:href="#DejaVuSans-63" x="599.609375"/>
      <use xlink:href="#DejaVuSans-63" x="654.589844"/>
      <use xlink:href="#DejaVuSans-75" x="709.570312"/>
      <use xlink:href="#DejaVuSans-72" x="772.949219"/>
      <use xlink:href="#DejaVuSans-61" x="814.0625"/>
      <use xlink:href="#DejaVuSans-63" x="875.341797"/>
      <use xlink:href="#DejaVuSans-79" x="930.322266"/>
      <use xlink:href="#DejaVuSans-20" x="989.501953"/>
      <use xlink:href="#DejaVuSans-5b" x="1021.289062"/>
      <use xlink:href="#DejaVuSans-25" x="1060.302734"/>
      <use xlink:href="#DejaVuSans-5d" x="1155.322266"/>
     </g>
    </g>
   </g>
   <g id="PolyCollection_1">
    <defs>
     <path id="mee2409ef9d" d="M 91.701818 -169.923387 
L 91.701818 -150.205125 
L 127.171636 -248.725506 
L 162.641455 -229.007244 
L 198.111273 -229.007244 
L 233.581091 -209.324447 
L 269.050909 -248.725506 
L 304.520727 -229.007244 
L 339.990545 -268.408304 
L 375.460364 -268.408304 
L 410.930182 -229.007244 
L 446.4 -268.408304 
L 481.869818 -209.324447 
L 517.339636 -248.725506 
L 552.809455 -288.126566 
L 588.279273 -268.408304 
L 623.749091 -307.809363 
L 659.218909 -307.809363 
L 694.688727 -288.126566 
L 730.158545 -268.408304 
L 765.628364 -229.007244 
L 801.098182 -288.126566 
L 801.098182 -307.809363 
L 801.098182 -307.809363 
L 765.628364 -307.809363 
L 730.158545 -307.809363 
L 694.688727 -307.809363 
L 659.218909 -307.809363 
L 623.749091 -307.809363 
L 588.279273 -307.809363 
L 552.809455 -307.809363 
L 517.339636 -307.809363 
L 481.869818 -307.809363 
L 446.4 -307.809363 
L 410.930182 -307.809363 
L 375.460364 -281.71813 
L 339.990545 -307.809363 
L 304.520727 -229.007244 
L 269.050909 -288.126566 
L 233.581091 -268.408304 
L 198.111273 -288.126566 
L 162.641455 -248.725506 
L 127.171636 -248.725506 
L 91.701818 -169.923387 
z
" style="stroke: #c44e52; stroke-opacity: 0.2"/>
    </defs>
    <g clip-path="url(#p62b691fd44)">
     <use xlink:href="#mee2409ef9d" x="0" y="336.142594" style="fill: #c44e52; fill-opacity: 0.2; stroke: #c44e52; stroke-opacity: 0.2"/>
    </g>
   </g>
   <g id="PolyCollection_2">
    <defs>
     <path id="m6a9df4f0b3" d="M 91.701818 -209.324447 
L 91.701818 -169.923387 
L 127.171636 -189.606185 
L 162.641455 -229.007244 
L 198.111273 -268.408304 
L 233.581091 -169.923387 
L 269.050909 -268.408304 
L 304.520727 -229.007244 
L 339.990545 -268.408304 
L 375.460364 -268.408304 
L 410.930182 -248.725506 
L 446.4 -229.007244 
L 481.869818 -229.007244 
L 517.339636 -229.007244 
L 552.809455 -229.007244 
L 588.279273 -248.725506 
L 623.749091 -248.725506 
L 659.218909 -229.007244 
L 694.688727 -229.007244 
L 730.158545 -229.007244 
L 765.628364 -229.007244 
L 801.098182 -229.007244 
L 801.098182 -268.408304 
L 801.098182 -268.408304 
L 765.628364 -268.408304 
L 730.158545 -288.126566 
L 694.688727 -307.809363 
L 659.218909 -262.011394 
L 623.749091 -288.126566 
L 588.279273 -268.408304 
L 552.809455 -288.126566 
L 517.339636 -288.126566 
L 481.869818 -288.126566 
L 446.4 -288.126566 
L 410.930182 -288.126566 
L 375.460364 -288.126566 
L 339.990545 -288.126566 
L 304.520727 -288.126566 
L 269.050909 -288.126566 
L 233.581091 -268.408304 
L 198.111273 -307.809363 
L 162.641455 -268.408304 
L 127.171636 -288.126566 
L 91.701818 -209.324447 
z
" style="stroke: #55a868; stroke-opacity: 0.2"/>
    </defs>
    <g clip-path="url(#p62b691fd44)">
     <use xlink:href="#m6a9df4f0b3" x="0" y="336.142594" style="fill: #55a868; fill-opacity: 0.2; stroke: #55a868; stroke-opacity: 0.2"/>
    </g>
   </g>
   <g id="line2d_19">
    <path d="M 91.701818 172.791961 
L 127.171636 87.417088 
L 162.641455 100.562596 
L 198.111273 80.856155 
L 233.581091 100.562596 
L 269.050909 74.283401 
L 304.520727 107.13535 
L 339.990545 54.600604 
L 375.460364 61.161536 
L 410.930182 80.867977 
L 446.4 54.600604 
L 481.869818 87.428909 
L 517.339636 48.02785 
L 552.809455 34.894163 
L 588.279273 48.02785 
L 623.749091 28.333231 
L 659.218909 28.333231 
L 694.688727 34.894163 
L 730.158545 48.02785 
L 765.628364 74.295223 
L 801.098182 41.455096 
" clip-path="url(#p62b691fd44)" style="fill: none; stroke: #c44e52; stroke-width: 1.5; stroke-linecap: round"/>
    <defs>
     <path id="mda7565bf7b" d="M 0 3 
C 0.795609 3 1.55874 2.683901 2.12132 2.12132 
C 2.683901 1.55874 3 0.795609 3 0 
C 3 -0.795609 2.683901 -1.55874 2.12132 -2.12132 
C 1.55874 -2.683901 0.795609 -3 0 -3 
C -0.795609 -3 -1.55874 -2.683901 -2.12132 -2.12132 
C -2.683901 -1.55874 -3 -0.795609 -3 0 
C -3 0.795609 -2.683901 1.55874 -2.12132 2.12132 
C -1.55874 2.683901 -0.795609 3 0 3 
z
" style="stroke: #ffffff; stroke-width: 0.75"/>
    </defs>
    <g clip-path="url(#p62b691fd44)">
     <use xlink:href="#mda7565bf7b" x="91.701818" y="172.791961" style="fill: #c44e52; stroke: #ffffff; stroke-width: 0.75"/>
     <use xlink:href="#mda7565bf7b" x="127.171636" y="87.417088" style="fill: #c44e52; stroke: #ffffff; stroke-width: 0.75"/>
     <use xlink:href="#mda7565bf7b" x="162.641455" y="100.562596" style="fill: #c44e52; stroke: #ffffff; stroke-width: 0.75"/>
     <use xlink:href="#mda7565bf7b" x="198.111273" y="80.856155" style="fill: #c44e52; stroke: #ffffff; stroke-width: 0.75"/>
     <use xlink:href="#mda7565bf7b" x="233.581091" y="100.562596" style="fill: #c44e52; stroke: #ffffff; stroke-width: 0.75"/>
     <use xlink:href="#mda7565bf7b" x="269.050909" y="74.283401" style="fill: #c44e52; stroke: #ffffff; stroke-width: 0.75"/>
     <use xlink:href="#mda7565bf7b" x="304.520727" y="107.13535" style="fill: #c44e52; stroke: #ffffff; stroke-width: 0.75"/>
     <use xlink:href="#mda7565bf7b" x="339.990545" y="54.600604" style="fill: #c44e52; stroke: #ffffff; stroke-width: 0.75"/>
     <use xlink:href="#mda7565bf7b" x="375.460364" y="61.161536" style="fill: #c44e52; stroke: #ffffff; stroke-width: 0.75"/>
     <use xlink:href="#mda7565bf7b" x="410.930182" y="80.867977" style="fill: #c44e52; stroke: #ffffff; stroke-width: 0.75"/>
     <use xlink:href="#mda7565bf7b" x="446.4" y="54.600604" style="fill: #c44e52; stroke: #ffffff; stroke-width: 0.75"/>
     <use xlink:href="#mda7565bf7b" x="481.869818" y="87.428909" style="fill: #c44e52; stroke: #ffffff; stroke-width: 0.75"/>
     <use xlink:href="#mda7565bf7b" x="517.339636" y="48.02785" style="fill: #c44e52; stroke: #ffffff; stroke-width: 0.75"/>
     <use xlink:href="#mda7565bf7b" x="552.809455" y="34.894163" style="fill: #c44e52; stroke: #ffffff; stroke-width: 0.75"/>
     <use xlink:href="#mda7565bf7b" x="588.279273" y="48.02785" style="fill: #c44e52; stroke: #ffffff; stroke-width: 0.75"/>
     <use xlink:href="#mda7565bf7b" x="623.749091" y="28.333231" style="fill: #c44e52; stroke: #ffffff; stroke-width: 0.75"/>
     <use xlink:href="#mda7565bf7b" x="659.218909" y="28.333231" style="fill: #c44e52; stroke: #ffffff; stroke-width: 0.75"/>
     <use xlink:href="#mda7565bf7b" x="694.688727" y="34.894163" style="fill: #c44e52; stroke: #ffffff; stroke-width: 0.75"/>
     <use xlink:href="#mda7565bf7b" x="730.158545" y="48.02785" style="fill: #c44e52; stroke: #ffffff; stroke-width: 0.75"/>
     <use xlink:href="#mda7565bf7b" x="765.628364" y="74.295223" style="fill: #c44e52; stroke: #ffffff; stroke-width: 0.75"/>
     <use xlink:href="#mda7565bf7b" x="801.098182" y="41.455096" style="fill: #c44e52; stroke: #ffffff; stroke-width: 0.75"/>
    </g>
   </g>
   <g id="line2d_20">
    <path d="M 91.701818 139.951834 
L 127.171636 93.989842 
L 162.641455 94.001663 
L 198.111273 54.600604 
L 233.581091 100.562596 
L 269.050909 61.161536 
L 304.520727 80.856155 
L 339.990545 61.161536 
L 375.460364 54.588782 
L 410.930182 61.149715 
L 446.4 67.722469 
L 481.869818 80.856155 
L 517.339636 67.722469 
L 552.809455 67.722469 
L 588.279273 74.295223 
L 623.749091 67.722469 
L 659.218909 87.428909 
L 694.688727 67.73429 
L 730.158545 74.295223 
L 765.628364 87.428909 
L 801.098182 87.428909 
" clip-path="url(#p62b691fd44)" style="fill: none; stroke: #55a868; stroke-width: 1.5; stroke-linecap: round"/>
    <defs>
     <path id="mc2e1721aa2" d="M 0 3 
C 0.795609 3 1.55874 2.683901 2.12132 2.12132 
C 2.683901 1.55874 3 0.795609 3 0 
C 3 -0.795609 2.683901 -1.55874 2.12132 -2.12132 
C 1.55874 -2.683901 0.795609 -3 0 -3 
C -0.795609 -3 -1.55874 -2.683901 -2.12132 -2.12132 
C -2.683901 -1.55874 -3 -0.795609 -3 0 
C -3 0.795609 -2.683901 1.55874 -2.12132 2.12132 
C -1.55874 2.683901 -0.795609 3 0 3 
z
" style="stroke: #ffffff; stroke-width: 0.75"/>
    </defs>
    <g clip-path="url(#p62b691fd44)">
     <use xlink:href="#mc2e1721aa2" x="91.701818" y="139.951834" style="fill: #55a868; stroke: #ffffff; stroke-width: 0.75"/>
     <use xlink:href="#mc2e1721aa2" x="127.171636" y="93.989842" style="fill: #55a868; stroke: #ffffff; stroke-width: 0.75"/>
     <use xlink:href="#mc2e1721aa2" x="162.641455" y="94.001663" style="fill: #55a868; stroke: #ffffff; stroke-width: 0.75"/>
     <use xlink:href="#mc2e1721aa2" x="198.111273" y="54.600604" style="fill: #55a868; stroke: #ffffff; stroke-width: 0.75"/>
     <use xlink:href="#mc2e1721aa2" x="233.581091" y="100.562596" style="fill: #55a868; stroke: #ffffff; stroke-width: 0.75"/>
     <use xlink:href="#mc2e1721aa2" x="269.050909" y="61.161536" style="fill: #55a868; stroke: #ffffff; stroke-width: 0.75"/>
     <use xlink:href="#mc2e1721aa2" x="304.520727" y="80.856155" style="fill: #55a868; stroke: #ffffff; stroke-width: 0.75"/>
     <use xlink:href="#mc2e1721aa2" x="339.990545" y="61.161536" style="fill: #55a868; stroke: #ffffff; stroke-width: 0.75"/>
     <use xlink:href="#mc2e1721aa2" x="375.460364" y="54.588782" style="fill: #55a868; stroke: #ffffff; stroke-width: 0.75"/>
     <use xlink:href="#mc2e1721aa2" x="410.930182" y="61.149715" style="fill: #55a868; stroke: #ffffff; stroke-width: 0.75"/>
     <use xlink:href="#mc2e1721aa2" x="446.4" y="67.722469" style="fill: #55a868; stroke: #ffffff; stroke-width: 0.75"/>
     <use xlink:href="#mc2e1721aa2" x="481.869818" y="80.856155" style="fill: #55a868; stroke: #ffffff; stroke-width: 0.75"/>
     <use xlink:href="#mc2e1721aa2" x="517.339636" y="67.722469" style="fill: #55a868; stroke: #ffffff; stroke-width: 0.75"/>
     <use xlink:href="#mc2e1721aa2" x="552.809455" y="67.722469" style="fill: #55a868; stroke: #ffffff; stroke-width: 0.75"/>
     <use xlink:href="#mc2e1721aa2" x="588.279273" y="74.295223" style="fill: #55a868; stroke: #ffffff; stroke-width: 0.75"/>
     <use xlink:href="#mc2e1721aa2" x="623.749091" y="67.722469" style="fill: #55a868; stroke: #ffffff; stroke-width: 0.75"/>
     <use xlink:href="#mc2e1721aa2" x="659.218909" y="87.428909" style="fill: #55a868; stroke: #ffffff; stroke-width: 0.75"/>
     <use xlink:href="#mc2e1721aa2" x="694.688727" y="67.73429" style="fill: #55a868; stroke: #ffffff; stroke-width: 0.75"/>
     <use xlink:href="#mc2e1721aa2" x="730.158545" y="74.295223" style="fill: #55a868; stroke: #ffffff; stroke-width: 0.75"/>
     <use xlink:href="#mc2e1721aa2" x="765.628364" y="87.428909" style="fill: #55a868; stroke: #ffffff; stroke-width: 0.75"/>
     <use xlink:href="#mc2e1721aa2" x="801.098182" y="87.428909" style="fill: #55a868; stroke: #ffffff; stroke-width: 0.75"/>
    </g>
   </g>
   <g id="line2d_21"/>
   <g id="line2d_22"/>
   <g id="patch_3">
    <path d="M 56.232 292.330969 
L 56.232 8.614969 
" style="fill: none; stroke: #ffffff; stroke-width: 1.25; stroke-linejoin: miter; stroke-linecap: square"/>
   </g>
   <g id="patch_4">
    <path d="M 836.568 292.330969 
L 836.568 8.614969 
" style="fill: none; stroke: #ffffff; stroke-width: 1.25; stroke-linejoin: miter; stroke-linecap: square"/>
   </g>
   <g id="patch_5">
    <path d="M 56.232 292.330969 
L 836.568 292.330969 
" style="fill: none; stroke: #ffffff; stroke-width: 1.25; stroke-linejoin: miter; stroke-linecap: square"/>
   </g>
   <g id="patch_6">
    <path d="M 56.232 8.614969 
L 836.568 8.614969 
" style="fill: none; stroke: #ffffff; stroke-width: 1.25; stroke-linejoin: miter; stroke-linecap: square"/>
   </g>
   <g id="legend_1">
    <g id="patch_7">
     <path d="M 65.472 285.730969 
L 179.8095 285.730969 
Q 182.4495 285.730969 182.4495 283.090969 
L 182.4495 224.723719 
Q 182.4495 222.083719 179.8095 222.083719 
L 65.472 222.083719 
Q 62.832 222.083719 62.832 224.723719 
L 62.832 283.090969 
Q 62.832 285.730969 65.472 285.730969 
z
" style="fill: #eaeaf2; opacity: 0.8; stroke: #cccccc; stroke-linejoin: miter"/>
    </g>
    <g id="text_21">
     <!-- resample_cube -->
     <g style="fill: #262626" transform="translate(68.112 238.305469) scale(0.144 -0.144)">
      <defs>
       <path id="DejaVuSans-70" d="M 1159 525 
L 1159 -1331 
L 581 -1331 
L 581 3500 
L 1159 3500 
L 1159 2969 
Q 1341 3281 1617 3432 
Q 1894 3584 2278 3584 
Q 2916 3584 3314 3078 
Q 3713 2572 3713 1747 
Q 3713 922 3314 415 
Q 2916 -91 2278 -91 
Q 1894 -91 1617 61 
Q 1341 213 1159 525 
z
M 3116 1747 
Q 3116 2381 2855 2742 
Q 2594 3103 2138 3103 
Q 1681 3103 1420 2742 
Q 1159 2381 1159 1747 
Q 1159 1113 1420 752 
Q 1681 391 2138 391 
Q 2594 391 2855 752 
Q 3116 1113 3116 1747 
z
" transform="scale(0.015625)"/>
       <path id="DejaVuSans-6c" d="M 603 4863 
L 1178 4863 
L 1178 0 
L 603 0 
L 603 4863 
z
" transform="scale(0.015625)"/>
       <path id="DejaVuSans-5f" d="M 3263 -1063 
L 3263 -1509 
L -63 -1509 
L -63 -1063 
L 3263 -1063 
z
" transform="scale(0.015625)"/>
      </defs>
      <use xlink:href="#DejaVuSans-72"/>
      <use xlink:href="#DejaVuSans-65" x="38.863281"/>
      <use xlink:href="#DejaVuSans-73" x="100.386719"/>
      <use xlink:href="#DejaVuSans-61" x="152.486328"/>
      <use xlink:href="#DejaVuSans-6d" x="213.765625"/>
      <use xlink:href="#DejaVuSans-70" x="311.177734"/>
      <use xlink:href="#DejaVuSans-6c" x="374.654297"/>
      <use xlink:href="#DejaVuSans-65" x="402.4375"/>
      <use xlink:href="#DejaVuSans-5f" x="463.960938"/>
      <use xlink:href="#DejaVuSans-63" x="513.960938"/>
      <use xlink:href="#DejaVuSans-75" x="568.941406"/>
      <use xlink:href="#DejaVuSans-62" x="632.320312"/>
      <use xlink:href="#DejaVuSans-65" x="695.796875"/>
     </g>
    </g>
    <g id="line2d_23">
     <path d="M 99.9615 253.710656 
L 113.1615 253.710656 
L 126.3615 253.710656 
" style="fill: none; stroke: #c44e52; stroke-width: 1.5; stroke-linecap: round"/>
    </g>
    <g id="text_22">
     <!-- 2 -->
     <g style="fill: #262626" transform="translate(136.9215 258.330656) scale(0.132 -0.132)">
      <use xlink:href="#DejaVuSans-32"/>
     </g>
    </g>
    <g id="line2d_24">
     <path d="M 99.9615 273.085781 
L 113.1615 273.085781 
L 126.3615 273.085781 
" style="fill: none; stroke: #55a868; stroke-width: 1.5; stroke-linecap: round"/>
    </g>
    <g id="text_23">
     <!-- 3 -->
     <g style="fill: #262626" transform="translate(136.9215 277.705781) scale(0.132 -0.132)">
      <use xlink:href="#DejaVuSans-33"/>
     </g>
    </g>
   </g>
  </g>
 </g>
 <defs>
  <clipPath id="p62b691fd44">
   <rect x="56.232" y="8.614969" width="780.336" height="283.716"/>
  </clipPath>
 </defs>
</svg>
